<svg xmlns="http://www.w3.org/2000/svg" width="250.88" height="110.28" viewBox="0 0 250.88 110.28">
    <g data-name="그룹 683">
        <path data-name="패스 1941" d="M188.888 122.386a18.776 18.776 0 1 1-18.775-18.775 18.776 18.776 0 0 1 18.775 18.775z" transform="translate(-119.191 -103.611)" style="fill:#003b86"/>
        <path data-name="패스 1942" d="m218.887 187.951-37.259-37.259a13.674 13.674 0 0 0-19.324 0l-37.261 37.259a13.652 13.652 0 0 0 19.307 19.307l22.891-22.893c.749-.67 5.157-4.247 9.52.115l.015-.027 22.806 22.8a13.652 13.652 0 1 0 19.305-19.307z" transform="translate(-121.043 -100.977)" style="fill:#003b86"/>
        <path data-name="패스 1943" d="M259.145 122.386a18.776 18.776 0 1 1-18.775-18.775 18.776 18.776 0 0 1 18.775 18.775z" transform="translate(-114.896 -103.611)" style="fill:#e88c00"/>
        <path data-name="패스 1944" d="m289.144 187.951-37.261-37.259a13.674 13.674 0 0 0-19.324 0L195.3 187.951a13.653 13.653 0 0 0 19.308 19.307l22.892-22.893c.749-.67 5.157-4.247 9.519.115l.016-.027 22.8 22.8a13.652 13.652 0 1 0 19.307-19.307z" transform="translate(-116.748 -100.977)" style="fill:#e88c00"/>
        <path data-name="패스 1945" d="M329.34 122.386a18.776 18.776 0 1 1-18.776-18.775 18.776 18.776 0 0 1 18.776 18.775z" transform="translate(-110.605 -103.611)" style="fill:#3a9c67"/>
        <path data-name="패스 1946" d="m359.338 187.951-37.26-37.259a13.672 13.672 0 0 0-19.323 0l-37.259 37.259a13.652 13.652 0 0 0 19.304 19.307l22.891-22.893c.749-.67 5.159-4.247 9.519.115l.017-.027 22.8 22.8a13.652 13.652 0 0 0 19.306-19.307z" transform="translate(-112.457 -100.977)" style="fill:#3a9c67"/>
    </g>
</svg>
