<svg xmlns="http://www.w3.org/2000/svg" width="210.799" height="143.657" viewBox="0 0 210.799 143.657">
    <g data-name="그룹 689">
        <g data-name="그룹 686">
            <path data-name="패스 1953" d="M129.676 228.457c0 4.581-2.681 7.687-7.634 9.036l-1.153-2.29c3.425-.887 5.254-2.538 5.645-4.491H121.7v-2.255zm4.812 12.18c0 2.129-2.308 3.5-5.681 3.5-3.392 0-5.7-1.366-5.7-3.5 0-2.148 2.307-3.517 5.7-3.517 3.372-.001 5.681 1.369 5.681 3.517zm-2.84 0c0-.906-1.032-1.314-2.842-1.314-1.829 0-2.858.408-2.858 1.314 0 .888 1.029 1.3 2.858 1.3 1.81-.004 2.842-.412 2.842-1.3zm4.739-9.536v2.327h-2.077v3.462h-2.876v-9.464h2.876v3.674z" transform="translate(-120.889 -117.206)" style="fill:#1a1311"/>
            <path data-name="패스 1954" d="M154.046 241.6v2.255h-12.678v-5.006h2.219v-2.061a72.179 72.179 0 0 1-3.834.089l-.337-2.238a87.156 87.156 0 0 0 10.493-.514l.2 2.023a42.688 42.688 0 0 1-3.677.462v3.072h-2.222v1.918zm-13.5-10.653c0-1.759 1.74-3 4.173-3 2.45 0 4.19 1.242 4.19 3 0 1.793-1.74 3.019-4.19 3.019-2.428-.005-4.168-1.231-4.168-3.024zm2.718 0c0 .656.6.942 1.455.942.888 0 1.474-.286 1.474-.942 0-.64-.586-.923-1.474-.923-.847-.005-1.45.276-1.45.918zm7.546 6.072v-9.588h2.875v12.607h-2.875v-1.084h-2.982v-1.934z" transform="translate(-122.923 -117.206)" style="fill:#1a1311"/>
            <path data-name="패스 1955" d="M162.638 237.034a4.308 4.308 0 1 1 4.634-4.3 4.395 4.395 0 0 1-4.634 4.3zm9.534 4.563v2.255h-11.717v-5.7h2.875v3.448zm-9.534-7.032a1.828 1.828 0 1 0-1.83-1.828 1.7 1.7 0 0 0 1.83 1.829zm9.142 4.741h-2.875v-11.86h2.875z" transform="translate(-124.964 -117.208)" style="fill:#1a1311"/>
            <path data-name="패스 1956" d="M190.664 227.426v16.655h-2.716v-8.15h-.888v7.458h-2.66v-4.6l-1.243 1.652a6.412 6.412 0 0 1-2.875-3.409 6.764 6.764 0 0 1-2.86 4.029l-1.7-2.164c2.538-1.527 3.089-4.528 3.089-7.635h-2.485v-2.291h7.492v2.291H181.6c0 2.716.55 5.363 2.805 6.8v-10.4h2.663v5.984h.888v-6.215z" transform="translate(-126.909 -117.206)" style="fill:#1a1311"/>
            <path data-name="패스 1957" d="M206.2 237.337v1.244h1.6v5.557h-2.875V240.8h-8.754v-2.219h1.651v-1.244H194.5V235.1h15.073v2.237zm-10.28-6.249c0-2.041 2.45-3.3 6.125-3.3s6.125 1.261 6.125 3.3c0 2.06-2.45 3.321-6.125 3.321s-6.122-1.261-6.122-3.321zm2.966 0c0 .8 1.1 1.137 3.159 1.137s3.159-.337 3.159-1.137c0-.782-1.1-1.137-3.159-1.137s-3.156.355-3.156 1.137zm4.455 6.249h-2.663v1.244h2.663z" transform="translate(-128.972 -117.245)" style="fill:#1a1311"/>
            <path data-name="패스 1958" d="M221.526 236.749a5.783 5.783 0 0 1-3.5-2.893 6.244 6.244 0 0 1-3.923 3.391l-1.492-2.29a5.18 5.18 0 0 0 3.906-5.308v-1.385h2.93v1.243a4.738 4.738 0 0 0 3.533 5.007zm5.45 4.066c0 2.095-2.237 3.3-5.788 3.3-3.569 0-5.8-1.207-5.8-3.3 0-2.077 2.236-3.284 5.8-3.284 3.55.001 5.787 1.208 5.787 3.285zm-2.876 0c0-.781-.941-1.1-2.912-1.1-1.988 0-2.93.32-2.93 1.1 0 .8.942 1.119 2.93 1.119 1.97.001 2.912-.32 2.912-1.118zm-.072-8.309h-2.715v-2.29h2.715v-2.77h2.872v9.693h-2.877z" transform="translate(-130.96 -117.208)" style="fill:#1a1311"/>
            <path data-name="패스 1959" d="M240.589 236.573a57.394 57.394 0 0 1-9.143.586l-.266-2.292h1.527v-4.153h-1.136v-2.255h8.824v2.255h-1.136v3.886c.391-.036.8-.07 1.172-.125zm4.76 4.4c0 1.988-2.22 3.158-5.789 3.158-3.588 0-5.806-1.171-5.806-3.158 0-2.025 2.218-3.2 5.806-3.2 3.569.007 5.789 1.178 5.789 3.203zm-9.891-6.161 1.049-.036v-4.066h-1.049zm7.014 6.161c0-.745-.923-1.031-2.912-1.031-2.007 0-2.93.286-2.93 1.031 0 .709.923 1.011 2.93 1.011 1.989.003 2.912-.299 2.912-1.008zm-.071-5.558h-1.509v-2.253h1.508v-.962h-1.509v-2.255h1.509v-2.5h2.876v10.121H242.4z" transform="translate(-132.999 -117.208)" style="fill:#1a1311"/>
            <path data-name="패스 1960" d="M256.411 236.747a5.241 5.241 0 0 1-2.734-2.448 5.731 5.731 0 0 1-3.036 3.016l-1.492-2.218a5.007 5.007 0 0 0 3.073-4.935V228.4h2.786v1.759a4.406 4.406 0 0 0 2.575 4.26v-6.675h2.663v3.515h.835v-3.836h2.719v10.139h-2.715v-4.029h-.835v3.514h-2.663V235.1zm7.457 4.192c0 1.969-2.307 3.193-5.841 3.193-3.515 0-5.824-1.224-5.824-3.193 0-1.99 2.309-3.215 5.824-3.215 3.534.001 5.841 1.225 5.841 3.215zm-2.876 0c0-.748-1.012-1.066-2.965-1.066-1.934 0-2.947.319-2.947 1.066 0 .726 1.013 1.046 2.947 1.046 1.953 0 2.965-.319 2.965-1.046z" transform="translate(-134.972 -117.206)" style="fill:#1a1311"/>
            <path data-name="패스 1961" d="M283.007 240.119v2.291H267.9v-2.291h2.895v-5.113h2.824v5.113h1.278v-5.113h2.824v5.113zm-4.6-2.166a39.942 39.942 0 0 0 .569-6.835h-9.659v-2.256h12.534v1.51a44.546 44.546 0 0 1-.569 7.867z" transform="translate(-137.03 -117.364)" style="fill:#1a1311"/>
            <path data-name="패스 1962" d="M297.947 237.337v1.244h1.6v5.557h-2.877V240.8h-8.752v-2.219h1.652v-1.244h-3.321V235.1h15.075v2.237zm-10.28-6.249c0-2.041 2.451-3.3 6.125-3.3s6.125 1.261 6.125 3.3c0 2.06-2.449 3.321-6.125 3.321s-6.125-1.261-6.125-3.321zm2.965 0c0 .8 1.1 1.137 3.16 1.137s3.16-.337 3.16-1.137c0-.782-1.1-1.137-3.16-1.137s-3.16.355-3.16 1.137zm4.457 6.249h-2.664v1.244h2.664z" transform="translate(-139.045 -117.245)" style="fill:#1a1311"/>
            <path data-name="패스 1963" d="M313.646 237.532a6.177 6.177 0 0 1-3.728-2.983 6.184 6.184 0 0 1-3.888 3.248l-1.474-2.219a5.012 5.012 0 0 0 3.871-4.811h-3.09v-2.238h9.038v2.238h-3.019a4.819 4.819 0 0 0 3.747 4.544zm5.29 4.066v2.255h-11.717v-5.505h2.875v3.25zm-.391-2.22h-2.875v-11.932h2.875z" transform="translate(-141.055 -117.208)" style="fill:#1a1311"/>
            <path data-name="패스 1964" d="M338.036 236.2v2.183h-15.092V236.2zm-.728-5.576h-13.689V228.5h5.434v-1.189h2.875v1.189h5.38zm-1.029 10.9c0 1.7-2.13 2.609-5.842 2.609-3.692 0-5.824-.9-5.824-2.609 0-1.722 2.132-2.628 5.824-2.628 3.711.004 5.841.911 5.841 2.633zm-5.788-10.6c3.658 0 5.682.816 5.682 2.4 0 1.564-2.024 2.38-5.682 2.38s-5.682-.816-5.682-2.38c-.001-1.578 2.023-2.395 5.681-2.395zm2.858 10.6c0-.462-.782-.586-2.913-.586-2.112 0-2.893.124-2.893.586 0 .443.781.568 2.893.568 2.13.008 2.913-.12 2.913-.563zm-2.858-8.682c-1.883 0-2.61.088-2.61.478 0 .373.727.48 2.61.48s2.609-.107 2.609-.48c0-.385-.729-.473-2.61-.473z" transform="translate(-143.074 -117.193)" style="fill:#1a1311"/>
            <path data-name="패스 1965" d="M355.883 241.6v2.255h-12.677v-5.006h2.219v-2.061a72.192 72.192 0 0 1-3.835.089l-.337-2.238a87.156 87.156 0 0 0 10.493-.514l.2 2.023a42.692 42.692 0 0 1-3.675.462v3.072h-2.219v1.918zm-13.493-10.658c0-1.759 1.739-3 4.171-3 2.452 0 4.19 1.242 4.19 3 0 1.793-1.739 3.019-4.19 3.019-2.433 0-4.171-1.226-4.171-3.019zm2.716 0c0 .656.6.942 1.456.942.888 0 1.474-.286 1.474-.942 0-.64-.586-.923-1.474-.923-.853 0-1.456.281-1.456.923zm7.546 6.072v-9.588h2.875v12.607h-2.875v-1.084h-2.983v-1.934z" transform="translate(-145.085 -117.206)" style="fill:#1a1311"/>
        </g>
        <g data-name="그룹 687">
            <path data-name="패스 1966" d="M121.728 257.447c0-2.511 1.464-3.981 3.288-3.981a2.758 2.758 0 0 1 2.12.977l-.733.967a1.72 1.72 0 0 0-1.342-.638c-1.139 0-1.935.989-1.935 2.624 0 1.655.685 2.654 2.027 2.654a1.29 1.29 0 0 0 .861-.288v-1.5H124.8v-1.246h2.434v3.438a3.058 3.058 0 0 1-2.221.914c-1.87-.002-3.285-1.381-3.285-3.921z" transform="translate(-120.981 -120.065)" style="fill:#868585"/>
            <path data-name="패스 1967" d="M128.844 259.886c0-1.235.9-1.882 2.98-2.128-.018-.565-.239-1-.88-1a2.748 2.748 0 0 0-1.425.546l-.49-1a3.861 3.861 0 0 1 2.167-.761c1.314 0 1.99.873 1.99 2.541v3.364h-1.111l-.1-.618h-.028a2.326 2.326 0 0 1-1.565.762 1.561 1.561 0 0 1-1.538-1.706zm2.98-.04v-1.163c-1.259.185-1.684.567-1.684 1.081a.6.6 0 0 0 .685.647 1.326 1.326 0 0 0 .999-.565z" transform="translate(-121.762 -120.293)" style="fill:#868585"/>
            <path data-name="패스 1968" d="M134.969 255.689h1.112l.091.762h.036a2.308 2.308 0 0 1 1.686-.906c1.121 0 1.6.865 1.6 2.315v3.59h-1.362v-3.405c0-.886-.222-1.2-.732-1.2-.426 0-.693.227-1.082.648v3.961h-1.351z" transform="translate(-122.435 -120.293)" style="fill:#868585"/>
            <path data-name="패스 1969" d="M140.939 262.468a1.407 1.407 0 0 1 .741-1.193v-.051a1.127 1.127 0 0 1-.473-.968 1.463 1.463 0 0 1 .575-1.08v-.043a1.967 1.967 0 0 1-.686-1.5 2 2 0 0 1 2.094-2.088 2.2 2.2 0 0 1 .778.144h1.869v1.111h-.888a1.57 1.57 0 0 1 .24.875 1.848 1.848 0 0 1-2 1.954 2.007 2.007 0 0 1-.668-.134.6.6 0 0 0-.223.495c0 .308.2.473.815.473h.88c1.25 0 1.925.432 1.925 1.441 0 1.161-1.082 2.047-2.813 2.047-1.222-.001-2.166-.465-2.166-1.483zm3.685-.307c0-.412-.3-.515-.861-.515h-.629a2.7 2.7 0 0 1-.721-.082.884.884 0 0 0-.343.668c0 .484.481.761 1.24.761.777 0 1.314-.381 1.314-.832zm-.629-4.528c0-.679-.343-1.059-.8-1.059s-.815.38-.815 1.059.361 1.06.815 1.06.799-.38.799-1.06z" transform="translate(-123.09 -120.293)" style="fill:#868585"/>
            <path data-name="패스 1970" d="M146.6 255.707h1.361l.564 2.849c.1.556.166 1.112.258 1.677h.037c.1-.565.193-1.131.324-1.677l.62-2.849h1.212l.648 2.849c.121.556.213 1.112.325 1.677H152c.091-.565.157-1.121.257-1.677l.565-2.849h1.26l-1.278 5.76h-1.6l-.547-2.51c-.11-.545-.193-1.07-.3-1.676h-.045c-.1.606-.177 1.142-.288 1.676l-.528 2.51h-1.556z" transform="translate(-123.712 -120.311)" style="fill:#868585"/>
            <path data-name="패스 1971" d="M155.354 258.579c0-1.923 1.195-3.034 2.491-3.034s2.492 1.111 2.492 3.034c0 1.9-1.195 3.015-2.492 3.015s-2.491-1.112-2.491-3.015zm3.594 0c0-1.09-.4-1.8-1.1-1.8s-1.1.709-1.1 1.8.4 1.78 1.1 1.78 1.1-.699 1.1-1.78z" transform="translate(-124.673 -120.293)" style="fill:#868585"/>
            <path data-name="패스 1972" d="M161.918 255.689h1.111l.092.762h.038a2.305 2.305 0 0 1 1.685-.906c1.12 0 1.6.865 1.6 2.315v3.59h-1.362v-3.405c0-.886-.222-1.2-.732-1.2-.425 0-.694.227-1.084.648v3.961h-1.35z" transform="translate(-125.394 -120.293)" style="fill:#868585"/>
            <path data-name="패스 1973" d="M170.447 253.626h1.37v7.613h-1.37z" transform="translate(-126.33 -120.082)" style="fill:#868585"/>
            <path data-name="패스 1974" d="M173.442 255.689h1.112l.092.762h.037a2.3 2.3 0 0 1 1.685-.906c1.119 0 1.6.865 1.6 2.315v3.59h-1.361v-3.405c0-.886-.222-1.2-.731-1.2-.426 0-.7.227-1.083.648v3.961h-1.352z" transform="translate(-126.659 -120.293)" style="fill:#868585"/>
            <path data-name="패스 1975" d="m179.246 260.781.62-.946a2.134 2.134 0 0 0 1.39.628c.518 0 .75-.247.75-.606 0-.434-.538-.628-1.083-.866-.658-.276-1.416-.719-1.416-1.676a1.755 1.755 0 0 1 1.926-1.769 2.732 2.732 0 0 1 1.768.71l-.611.914a1.9 1.9 0 0 0-1.121-.494c-.462 0-.685.227-.685.556 0 .422.509.577 1.055.8.686.288 1.445.67 1.445 1.739a1.831 1.831 0 0 1-2.065 1.82 3.084 3.084 0 0 1-1.973-.81z" transform="translate(-127.296 -120.293)" style="fill:#868585"/>
            <path data-name="패스 1976" d="M184.523 259.261v-2.55h-.732v-1.123l.8-.071.158-1.543h1.139v1.543h1.278v1.194h-1.278v2.55c0 .658.24.968.7.968a1.422 1.422 0 0 0 .511-.124l.221 1.1a3.046 3.046 0 0 1-1.092.216c-1.228 0-1.705-.864-1.705-2.16z" transform="translate(-127.795 -120.121)" style="fill:#868585"/>
            <path data-name="패스 1977" d="M188.307 253.64a.809.809 0 1 1 1.618 0 .809.809 0 1 1-1.618 0zm.128 1.749h1.353v5.76h-1.353z" transform="translate(-128.291 -119.994)" style="fill:#868585"/>
            <path data-name="패스 1978" d="M191.429 259.261v-2.55h-.729v-1.123l.8-.071.156-1.543h1.139v1.543h1.277v1.194h-1.277v2.55c0 .658.239.968.7.968a1.417 1.417 0 0 0 .505-.129l.223 1.1a3.05 3.05 0 0 1-1.092.216c-1.231.005-1.702-.859-1.702-2.155z" transform="translate(-128.554 -120.121)" style="fill:#868585"/>
            <path data-name="패스 1979" d="M195.295 259.307v-3.6h1.361v3.405c0 .9.223 1.2.723 1.2.425 0 .7-.207 1.055-.72v-3.888h1.366v5.76h-1.112l-.1-.823h-.037a2.027 2.027 0 0 1-1.657.968c-1.117.003-1.599-.862-1.599-2.302z" transform="translate(-129.059 -120.311)" style="fill:#868585"/>
            <path data-name="패스 1980" d="M201.8 259.261v-2.55h-.733v-1.123l.8-.071.158-1.543h1.139v1.543h1.276v1.194h-1.276v2.55c0 .658.239.968.7.968a1.412 1.412 0 0 0 .509-.124l.223 1.1a3.046 3.046 0 0 1-1.092.216c-1.232 0-1.704-.864-1.704-2.16z" transform="translate(-129.692 -120.121)" style="fill:#868585"/>
            <path data-name="패스 1981" d="M205.166 258.579c0-1.871 1.175-3.034 2.417-3.034 1.425 0 2.166 1.163 2.166 2.758a3.135 3.135 0 0 1-.064.687h-3.194a1.422 1.422 0 0 0 1.435 1.44 1.988 1.988 0 0 0 1.166-.4l.463.928a3.051 3.051 0 0 1-1.815.637c-1.44-.001-2.574-1.122-2.574-3.016zm3.417-.586c0-.781-.315-1.276-.981-1.276-.547 0-1.029.434-1.13 1.276z" transform="translate(-130.142 -120.293)" style="fill:#868585"/>
            <path data-name="패스 1982" d="M216.022 254.111a1.54 1.54 0 0 0-.546-.123c-.409 0-.629.266-.629.9v.495h.971v1.194h-.971v4.567h-1.362v-4.567h-.693v-1.123l.693-.061v-.474c0-1.2.5-2.129 1.807-2.129a2.493 2.493 0 0 1 .98.206z" transform="translate(-130.98 -119.991)" style="fill:#868585"/>
            <path data-name="패스 1983" d="M216.379 258.579c0-1.923 1.195-3.034 2.49-3.034s2.491 1.111 2.491 3.034c0 1.9-1.194 3.015-2.491 3.015s-2.49-1.112-2.49-3.015zm3.592 0c0-1.09-.4-1.8-1.1-1.8s-1.1.709-1.1 1.8.4 1.78 1.1 1.78 1.1-.699 1.1-1.78z" transform="translate(-131.374 -120.293)" style="fill:#868585"/>
            <path data-name="패스 1984" d="M222.941 255.689h1.111l.093 1.018h.037a1.812 1.812 0 0 1 1.472-1.163 1.351 1.351 0 0 1 .612.123l-.242 1.307a1.481 1.481 0 0 0-.536-.092c-.408 0-.9.3-1.194 1.131v3.436h-1.353z" transform="translate(-132.094 -120.293)" style="fill:#868585"/>
            <path data-name="패스 1985" d="M230.629 254.893H228.7v-1.267h5.241v1.267H232v6.346h-1.37z" transform="translate(-132.727 -120.082)" style="fill:#868585"/>
            <path data-name="패스 1986" d="M234.331 259.886c0-1.235.9-1.882 2.981-2.128-.018-.565-.24-1-.88-1a2.745 2.745 0 0 0-1.426.546l-.491-1a3.868 3.868 0 0 1 2.167-.761c1.314 0 1.99.873 1.99 2.541v3.364h-1.111l-.1-.618h-.028a2.316 2.316 0 0 1-1.562.762 1.562 1.562 0 0 1-1.54-1.706zm2.981-.04v-1.163c-1.259.185-1.685.567-1.685 1.081a.6.6 0 0 0 .685.647 1.328 1.328 0 0 0 1-.565z" transform="translate(-133.345 -120.293)" style="fill:#868585"/>
            <path data-name="패스 1987" d="M240.457 259.551v-6.595h1.353v6.667c0 .339.148.452.276.452a.668.668 0 0 0 .186-.021l.167 1.123a1.7 1.7 0 0 1-.7.134c-.948-.001-1.282-.691-1.282-1.76z" transform="translate(-134.017 -120.009)" style="fill:#868585"/>
            <path data-name="패스 1988" d="M243.057 258.579c0-1.871 1.177-3.034 2.416-3.034 1.426 0 2.168 1.163 2.168 2.758a3.124 3.124 0 0 1-.065.687h-3.194a1.423 1.423 0 0 0 1.434 1.44 1.989 1.989 0 0 0 1.167-.4l.462.928a3.046 3.046 0 0 1-1.813.637c-1.445-.001-2.575-1.122-2.575-3.016zm3.416-.586c0-.781-.314-1.276-.98-1.276-.546 0-1.028.434-1.131 1.276z" transform="translate(-134.303 -120.293)" style="fill:#868585"/>
            <path data-name="패스 1989" d="M249.152 255.689h1.111l.093.762h.036a2.307 2.307 0 0 1 1.685-.906c1.121 0 1.6.865 1.6 2.315v3.59h-1.361v-3.405c0-.886-.221-1.2-.732-1.2-.426 0-.694.227-1.082.648v3.961h-1.352z" transform="translate(-134.972 -120.293)" style="fill:#868585"/>
            <path data-name="패스 1990" d="M255.637 259.261v-2.55h-.737v-1.123l.8-.071.158-1.543H257v1.543h1.277v1.194H257v2.55c0 .658.24.968.7.968a1.413 1.413 0 0 0 .509-.124l.223 1.1a3.052 3.052 0 0 1-1.093.216c-1.231 0-1.702-.864-1.702-2.16z" transform="translate(-135.604 -120.121)" style="fill:#868585"/>
            <path data-name="패스 1991" d="M267.149 261.366a5.223 5.223 0 0 1-1.7-.8 3.113 3.113 0 0 1-2.1.8 2.091 2.091 0 0 1-2.242-2.161 2.55 2.55 0 0 1 1.287-2.16 3.9 3.9 0 0 1-.435-1.645 1.806 1.806 0 0 1 1.8-1.934 1.524 1.524 0 0 1 1.593 1.655 2.9 2.9 0 0 1-1.472 2.2 9.213 9.213 0 0 0 1.481 1.583 6 6 0 0 0 .842-1.933h1.232a8.768 8.768 0 0 1-1.157 2.612 3.942 3.942 0 0 0 1.212.546zm-3.637-1.164a1.738 1.738 0 0 0 1-.379 10.412 10.412 0 0 1-1.546-1.78 1.507 1.507 0 0 0-.564 1.07 1.047 1.047 0 0 0 1.11 1.087zm-.177-3.785c.537-.361.954-.73.954-1.285 0-.38-.158-.658-.519-.658-.4 0-.685.359-.685.926a2.582 2.582 0 0 0 .25 1.017z" transform="translate(-136.284 -120.065)" style="fill:#868585"/>
            <path data-name="패스 1992" d="M269.111 253.626h1.372v6.337h2.777v1.276h-4.148z" transform="translate(-137.164 -120.082)" style="fill:#868585"/>
            <path data-name="패스 1993" d="M274.531 253.64a.811.811 0 1 1 1.621 0 .811.811 0 1 1-1.621 0zm.13 1.749h1.351v5.76h-1.351z" transform="translate(-137.759 -119.994)" style="fill:#868585"/>
            <path data-name="패스 1994" d="M280.238 254.111a1.545 1.545 0 0 0-.547-.123c-.409 0-.63.266-.63.9v.495h.973v1.194h-.973v4.567H277.7v-4.567h-.7v-1.123l.7-.061v-.474c0-1.2.5-2.129 1.8-2.129a2.487 2.487 0 0 1 .981.206z" transform="translate(-138.03 -119.991)" style="fill:#868585"/>
            <path data-name="패스 1995" d="M280.6 258.579c0-1.871 1.175-3.034 2.416-3.034 1.425 0 2.166 1.163 2.166 2.758a3.129 3.129 0 0 1-.065.687h-3.194a1.424 1.424 0 0 0 1.434 1.44 1.989 1.989 0 0 0 1.168-.4l.463.928a3.053 3.053 0 0 1-1.815.637c-1.448-.001-2.573-1.122-2.573-3.016zm3.417-.586c0-.781-.315-1.276-.983-1.276-.546 0-1.027.434-1.129 1.276z" transform="translate(-138.425 -120.293)" style="fill:#868585"/>
            <path data-name="패스 1996" d="M286.689 259.551v-6.595h1.353v6.667c0 .339.148.452.276.452a.662.662 0 0 0 .186-.021l.167 1.123a1.7 1.7 0 0 1-.7.134c-.948-.001-1.282-.691-1.282-1.76z" transform="translate(-139.094 -120.009)" style="fill:#868585"/>
            <path data-name="패스 1997" d="M289.289 258.579c0-1.923 1.2-3.034 2.492-3.034s2.491 1.111 2.491 3.034c0 1.9-1.195 3.015-2.491 3.015s-2.492-1.112-2.492-3.015zm3.594 0c0-1.09-.4-1.8-1.1-1.8s-1.1.709-1.1 1.8.4 1.78 1.1 1.78 1.1-.699 1.1-1.78z" transform="translate(-139.379 -120.293)" style="fill:#868585"/>
            <path data-name="패스 1998" d="M295.853 255.689h1.112l.092.762h.037a2.307 2.307 0 0 1 1.686-.906c1.119 0 1.6.865 1.6 2.315v3.59h-1.361v-3.405c0-.886-.223-1.2-.732-1.2-.426 0-.693.227-1.083.648v3.961h-1.351z" transform="translate(-140.1 -120.293)" style="fill:#868585"/>
            <path data-name="패스 1999" d="M301.824 262.468a1.407 1.407 0 0 1 .741-1.193v-.051a1.127 1.127 0 0 1-.473-.968 1.463 1.463 0 0 1 .575-1.08v-.043a1.966 1.966 0 0 1-.685-1.5 2 2 0 0 1 2.093-2.088 2.187 2.187 0 0 1 .777.144h1.87v1.111h-.888a1.57 1.57 0 0 1 .24.875 1.848 1.848 0 0 1-2 1.954 2.007 2.007 0 0 1-.668-.134.6.6 0 0 0-.223.495c0 .308.2.473.815.473h.88c1.25 0 1.926.432 1.926 1.441 0 1.161-1.084 2.047-2.814 2.047-1.221-.001-2.166-.465-2.166-1.483zm3.685-.307c0-.412-.305-.515-.862-.515h-.629a2.718 2.718 0 0 1-.723-.082.885.885 0 0 0-.342.668c0 .484.481.761 1.24.761.779 0 1.316-.381 1.316-.832zm-.63-4.528c0-.679-.343-1.059-.8-1.059s-.816.38-.816 1.059.362 1.06.816 1.06.8-.38.8-1.06z" transform="translate(-140.755 -120.293)" style="fill:#868585"/>
            <path data-name="패스 2000" d="M310.28 253.626h4.2v1.267h-2.83v1.758h2.406v1.276h-2.406v2.037h2.934v1.276h-4.3z" transform="translate(-141.684 -120.082)" style="fill:#868585"/>
            <path data-name="패스 2001" d="M315.782 258.295c0-1.882 1.056-3.034 2.176-3.034a1.712 1.712 0 0 1 1.316.628l-.057-.906v-2.026h1.361v8.209h-1.1l-.112-.6h-.027a2.065 2.065 0 0 1-1.434.741c-1.29.003-2.123-1.129-2.123-3.012zm3.434 1.174v-2.53a1.3 1.3 0 0 0-.961-.434c-.585 0-1.075.618-1.075 1.771 0 1.193.388 1.788 1.075 1.788a1.126 1.126 0 0 0 .961-.595z" transform="translate(-142.288 -120.009)" style="fill:#868585"/>
            <path data-name="패스 2002" d="M322.438 259.307v-3.6h1.362v3.405c0 .9.221 1.2.721 1.2.427 0 .7-.207 1.056-.72v-3.888h1.361v5.76h-1.111l-.1-.823h-.037a2.032 2.032 0 0 1-1.658.968c-1.112.003-1.594-.862-1.594-2.302z" transform="translate(-143.019 -120.311)" style="fill:#868585"/>
            <path data-name="패스 2003" d="M328.451 258.579a2.746 2.746 0 0 1 2.647-3.034 2.141 2.141 0 0 1 1.51.638l-.647.976a1.133 1.133 0 0 0-.8-.379c-.787 0-1.324.709-1.324 1.8s.537 1.78 1.286 1.78a1.53 1.53 0 0 0 1.01-.463l.536 1a2.425 2.425 0 0 1-1.694.7c-1.431-.003-2.524-1.115-2.524-3.018z" transform="translate(-143.679 -120.293)" style="fill:#868585"/>
            <path data-name="패스 2004" d="M333.569 259.886c0-1.235.9-1.882 2.981-2.128-.021-.565-.241-1-.879-1a2.751 2.751 0 0 0-1.428.546l-.491-1a3.866 3.866 0 0 1 2.167-.761c1.314 0 1.991.873 1.991 2.541v3.364h-1.11l-.1-.618h-.029a2.324 2.324 0 0 1-1.563.762 1.561 1.561 0 0 1-1.539-1.706zm2.981-.04v-1.163c-1.26.185-1.686.567-1.686 1.081a.6.6 0 0 0 .685.647 1.329 1.329 0 0 0 1.001-.565z" transform="translate(-144.241 -120.293)" style="fill:#868585"/>
            <path data-name="패스 2005" d="M339.626 259.261v-2.55h-.732v-1.123l.8-.071.157-1.543h1.139v1.543h1.278v1.194h-1.278v2.55c0 .658.241.968.705.968a1.408 1.408 0 0 0 .507-.124l.223 1.1a3.047 3.047 0 0 1-1.093.216c-1.232 0-1.706-.864-1.706-2.16z" transform="translate(-144.826 -120.121)" style="fill:#868585"/>
            <path data-name="패스 2006" d="M343.407 253.64a.81.81 0 1 1 1.62 0 .81.81 0 1 1-1.62 0zm.131 1.749h1.35v5.76h-1.35z" transform="translate(-145.321 -119.994)" style="fill:#868585"/>
            <path data-name="패스 2007" d="M346.039 258.579c0-1.923 1.194-3.034 2.491-3.034s2.491 1.111 2.491 3.034c0 1.9-1.195 3.015-2.491 3.015s-2.491-1.112-2.491-3.015zm3.591 0c0-1.09-.4-1.8-1.1-1.8s-1.1.709-1.1 1.8.4 1.78 1.1 1.78 1.1-.699 1.1-1.78z" transform="translate(-145.61 -120.293)" style="fill:#868585"/>
            <path data-name="패스 2008" d="M352.6 255.689h1.112l.092.762h.037a2.307 2.307 0 0 1 1.686-.906c1.119 0 1.6.865 1.6 2.315v3.59h-1.361v-3.405c0-.886-.223-1.2-.732-1.2-.426 0-.693.227-1.083.648v3.961H352.6z" transform="translate(-146.331 -120.293)" style="fill:#868585"/>
        </g>
        <g data-name="그룹 688">
            <path data-name="패스 2009" d="M182.839 119.361a15.751 15.751 0 1 1-15.75-15.75 15.752 15.752 0 0 1 15.75 15.75z" transform="translate(-124.232 -103.611)" style="fill:#003b86"/>
            <path data-name="패스 2010" d="m203.126 181.3-31.258-31.258a11.471 11.471 0 0 0-16.211 0L124.4 181.3a11.453 11.453 0 0 0 16.2 16.2l19.2-19.2c.629-.562 4.326-3.563 7.987.1l.012-.022L186.93 197.5a11.453 11.453 0 0 0 16.2-16.2z" transform="translate(-120.906 -108.341)" style="fill:#003b86"/>
            <path data-name="패스 2011" d="M253.1 119.361a15.751 15.751 0 1 1-15.75-15.75 15.752 15.752 0 0 1 15.75 15.75z" transform="translate(-131.947 -103.611)" style="fill:#e88c00"/>
            <path data-name="패스 2012" d="m273.383 181.3-31.258-31.258a11.471 11.471 0 0 0-16.211 0l-31.26 31.258a11.453 11.453 0 0 0 16.2 16.2l19.2-19.205c.628-.562 4.326-3.563 7.986.1l.013-.022 19.13 19.131a11.453 11.453 0 0 0 16.2-16.2z" transform="translate(-128.62 -108.341)" style="fill:#e88c00"/>
            <path data-name="패스 2013" d="M323.291 119.361a15.752 15.752 0 1 1-15.751-15.75 15.752 15.752 0 0 1 15.751 15.75z" transform="translate(-139.654 -103.611)" style="fill:#3a9c67"/>
            <path data-name="패스 2014" d="m343.577 181.3-31.259-31.258a11.47 11.47 0 0 0-16.211 0L264.85 181.3a11.453 11.453 0 0 0 16.2 16.2l19.2-19.205c.628-.562 4.328-3.563 7.986.1l.014-.022 19.13 19.127a11.453 11.453 0 0 0 16.2-16.2z" transform="translate(-136.328 -108.341)" style="fill:#3a9c67"/>
        </g>
    </g>
</svg>
