<svg xmlns="http://www.w3.org/2000/svg" width="300" height="95.901" viewBox="0 0 300 95.901">
    <g data-name="그룹 571">
        <g data-name="그룹 570">
            <g data-name="그룹 568">
                <path data-name="패스 1630" d="M84.912 181.917c0 6.933-4.058 11.635-11.554 13.678l-1.748-3.466c5.187-1.344 7.954-3.843 8.546-6.8h-7.31v-3.413zm7.283 18.435c0 3.223-3.493 5.293-8.6 5.293-5.132 0-8.627-2.07-8.627-5.293 0-3.252 3.494-5.321 8.627-5.321 5.105 0 8.6 2.069 8.6 5.321zm-4.3 0c0-1.372-1.56-1.989-4.3-1.989-2.768 0-4.327.617-4.327 1.989 0 1.344 1.558 1.961 4.327 1.961 2.741 0 4.305-.613 4.305-1.961zm7.174-14.43v3.519h-3.143v5.24h-4.354v-14.323h4.354v5.564z" transform="translate(-71.611 -127.601)" style="fill:#1a1311"/>
                <path data-name="패스 1631" d="M121.581 201.8v3.412H102.4v-7.577h3.359v-3.117c-2.042.107-4.03.134-5.8.134l-.51-3.386a132.05 132.05 0 0 0 15.881-.78l.3 3.064c-1.827.323-3.709.537-5.563.7v4.65h-3.359v2.9zm-20.421-16.12c0-2.661 2.634-4.541 6.315-4.541 3.708 0 6.342 1.88 6.342 4.541 0 2.714-2.634 4.568-6.342 4.568-3.681 0-6.315-1.855-6.315-4.568zm4.111 0c0 .994.914 1.424 2.2 1.424 1.344 0 2.23-.43 2.23-1.424 0-.968-.886-1.4-2.23-1.4-1.287.001-2.201.432-2.201 1.4zm11.421 9.189v-14.511h4.353v19.08h-4.353V197.8h-4.514v-2.93z" transform="translate(-74.475 -127.601)" style="fill:#1a1311"/>
                <path data-name="패스 1632" d="M134.371 194.9c-3.923 0-7.014-2.768-7.014-6.5 0-3.762 3.091-6.5 7.014-6.5s7.014 2.741 7.014 6.5c0 3.732-3.091 6.5-7.014 6.5zm14.431 6.906v3.412h-17.735v-8.625h4.353v5.213zm-14.431-10.641a2.768 2.768 0 1 0-2.771-2.765 2.581 2.581 0 0 0 2.771 2.764zm13.839 7.175h-4.353v-17.95h4.353z" transform="translate(-80.55 -127.605)" style="fill:#1a1311"/>
                <path data-name="패스 1633" d="M176.585 180.358v25.206h-4.111V193.23h-1.344v11.286h-4.03v-6.96l-1.879 2.5a9.711 9.711 0 0 1-4.355-5.159 10.235 10.235 0 0 1-4.326 6.1l-2.579-3.278c3.842-2.311 4.675-6.853 4.675-11.555h-3.762V182.7h11.339v3.466h-3.359c0 4.111.833 8.115 4.245 10.292v-15.75h4.032v9.056h1.343v-9.406z" transform="translate(-84.835 -127.601)" style="fill:#1a1311"/>
                <path data-name="패스 1634" d="M199.885 195.355v1.88h2.415v8.411h-4.352V200.6H184.7v-3.361h2.5v-1.88h-5.024v-3.386h22.814v3.386zm-15.559-9.455c0-3.091 3.71-5 9.271-5s9.272 1.907 9.272 5c0 3.117-3.709 5.024-9.272 5.024s-9.271-1.911-9.271-5.024zm4.488 0c0 1.208 1.666 1.72 4.782 1.72s4.783-.511 4.783-1.72c0-1.183-1.666-1.72-4.783-1.72s-4.782.533-4.782 1.72zm6.745 9.458h-4.031v1.88h4.031z" transform="translate(-89.371 -127.657)" style="fill:#1a1311"/>
                <path data-name="패스 1635" d="M222.865 194.47a8.752 8.752 0 0 1-5.293-4.381 9.45 9.45 0 0 1-5.938 5.132l-2.258-3.466a7.841 7.841 0 0 0 5.912-8.034v-2.1h4.433v1.88c0 3.225 1.183 6.288 5.348 7.579zm8.251 6.152c0 3.172-3.387 5-8.76 5-5.4 0-8.787-1.827-8.787-5 0-3.143 3.385-4.971 8.787-4.971 5.373 0 8.759 1.829 8.759 4.971zm-4.354 0c0-1.181-1.425-1.665-4.407-1.665-3.011 0-4.434.484-4.434 1.665 0 1.21 1.424 1.694 4.434 1.694 2.982 0 4.407-.484 4.407-1.694zm-.107-12.575h-4.112v-3.466h4.112v-4.192h4.352v14.671h-4.352z" transform="translate(-93.711 -127.605)" style="fill:#1a1311"/>
                <path data-name="패스 1636" d="M251.507 194.2a86.761 86.761 0 0 1-13.84.886l-.4-3.466h2.31v-6.288h-1.719v-3.412h13.352v3.413h-1.719v5.885c.591-.054 1.209-.107 1.774-.188zm7.2 6.665c0 3.009-3.359 4.782-8.761 4.782-5.427 0-8.787-1.774-8.787-4.782 0-3.064 3.36-4.838 8.787-4.838 5.404 0 8.762 1.773 8.762 4.838zm-14.967-9.325 1.585-.053v-6.154h-1.585zm10.614 9.325c0-1.129-1.4-1.558-4.407-1.558-3.036 0-4.433.429-4.433 1.558 0 1.075 1.4 1.531 4.433 1.531 3.011.004 4.407-.456 4.407-1.531zm-.107-8.411h-2.284v-3.413h2.284v-1.451h-2.284v-3.413h2.284v-3.788h4.353v15.317h-4.354z" transform="translate(-98.175 -127.605)" style="fill:#1a1311"/>
                <path data-name="패스 1637" d="M275.245 194.467a7.927 7.927 0 0 1-4.138-3.709 8.687 8.687 0 0 1-4.6 4.568l-2.257-3.359a7.576 7.576 0 0 0 4.648-7.47v-2.661h4.22v2.664a6.668 6.668 0 0 0 3.9 6.448v-10.1h4.031v5.321h1.263v-5.805h4.112V195.7h-4.112v-6.1h-1.263v5.321h-4.031v-2.956zm11.286 6.341c0 2.984-3.494 4.837-8.842 4.837-5.319 0-8.813-1.853-8.813-4.837 0-3.009 3.494-4.863 8.813-4.863 5.348-.001 8.842 1.855 8.842 4.862zm-4.354 0c0-1.128-1.532-1.612-4.488-1.612-2.927 0-4.46.484-4.46 1.612 0 1.1 1.532 1.586 4.46 1.586 2.956-.001 4.488-.484 4.488-1.587z" transform="translate(-102.534 -127.601)" style="fill:#1a1311"/>
                <path data-name="패스 1638" d="M315.279 199.552v3.466h-22.867v-3.466h4.381v-7.738h4.273v7.738H303v-7.738h4.272v7.738zm-6.96-3.278a60.175 60.175 0 0 0 .86-10.346h-14.617v-3.412h18.971v2.284a67.5 67.5 0 0 1-.859 11.9z" transform="translate(-107.08 -127.823)" style="fill:#1a1311"/>
                <path data-name="패스 1639" d="M337.68 195.355v1.88h2.42v8.411h-4.352V200.6H322.5v-3.361h2.5v-1.88h-5.024v-3.386h22.813v3.386zm-15.559-9.455c0-3.091 3.71-5 9.271-5s9.272 1.907 9.272 5c0 3.117-3.709 5.024-9.272 5.024s-9.271-1.911-9.271-5.024zm4.489 0c0 1.208 1.665 1.72 4.782 1.72s4.783-.511 4.783-1.72c0-1.183-1.666-1.72-4.783-1.72s-4.782.533-4.782 1.72zm6.744 9.458h-4.032v1.88h4.032z" transform="translate(-111.504 -127.657)" style="fill:#1a1311"/>
                <path data-name="패스 1640" d="M361.229 195.651a9.334 9.334 0 0 1-5.643-4.514 9.364 9.364 0 0 1-5.885 4.918l-2.23-3.36c4.3-1.316 5.75-4.407 5.857-7.282h-4.675v-3.386h13.677v3.386h-4.568c.107 2.687 1.531 5.59 5.671 6.879zm8.007 6.154v3.412H351.5v-8.33h4.354v4.918zm-.59-3.359h-4.354v-18.057h4.354z" transform="translate(-115.865 -127.605)" style="fill:#1a1311"/>
                <path data-name="패스 1641" d="M397.931 193.642v3.3H375.09v-3.3zm-1.1-8.438h-20.72v-3.224h8.223v-1.8h4.353v1.8h8.142zm-1.559 16.5c0 2.58-3.224 3.95-8.84 3.95-5.589 0-8.814-1.37-8.814-3.95 0-2.606 3.225-3.978 8.814-3.978 5.613-.001 8.837 1.374 8.837 3.974zm-8.759-16.042c5.535 0 8.6 1.235 8.6 3.627 0 2.366-3.063 3.6-8.6 3.6s-8.6-1.235-8.6-3.6c-.003-2.389 3.061-3.628 8.597-3.628zm4.327 16.042c0-.7-1.183-.886-4.407-.886-3.2 0-4.38.188-4.38.886 0 .672 1.182.86 4.38.86 3.221-.001 4.404-.189 4.404-.864zm-4.327-13.141c-2.849 0-3.951.135-3.951.726 0 .565 1.1.726 3.951.726s3.95-.161 3.95-.726c-.003-.589-1.106-.727-3.953-.727z" transform="translate(-121.902 -127.583)" style="fill:#1a1311"/>
                <path data-name="패스 1642" d="M424.731 201.8v3.412h-19.186v-7.577h3.355v-3.117c-2.042.107-4.031.134-5.8.134l-.51-3.386a132 132 0 0 0 15.88-.78l.3 3.064c-1.827.323-3.71.537-5.563.7v4.65h-3.359v2.9zm-20.422-16.12c0-2.661 2.633-4.541 6.315-4.541 3.708 0 6.341 1.88 6.341 4.541 0 2.714-2.633 4.568-6.341 4.568-3.682 0-6.315-1.855-6.315-4.568zm4.111 0c0 .994.913 1.424 2.2 1.424 1.344 0 2.23-.43 2.23-1.424 0-.968-.886-1.4-2.23-1.4-1.287.001-2.2.432-2.2 1.4zm11.419 9.189v-14.511h4.355v19.08h-4.355V197.8h-4.513v-2.93z" transform="translate(-124.731 -127.601)" style="fill:#1a1311"/>
            </g>
            <g data-name="그룹 569">
                <path data-name="패스 1643" d="M74.242 219.747c0-2.932 1.9-4.651 4.267-4.651a3.742 3.742 0 0 1 2.751 1.141l-.95 1.13a2.332 2.332 0 0 0-1.741-.745c-1.479 0-2.512 1.154-2.512 3.064 0 1.934.889 3.1 2.631 3.1a1.791 1.791 0 0 0 1.117-.336v-1.75h-1.573v-1.453h3.16v4.013a4.183 4.183 0 0 1-2.883 1.07c-2.429-.005-4.267-1.616-4.267-4.583z" transform="translate(-71.882 -131.176)" style="fill:#868585"/>
                <path data-name="패스 1644" d="M84.422 222.578c0-1.442 1.165-2.2 3.868-2.488-.024-.661-.311-1.165-1.141-1.165a3.81 3.81 0 0 0-1.852.637l-.635-1.166a5.37 5.37 0 0 1 2.812-.889c1.706 0 2.583 1.022 2.583 2.968v3.93h-1.442l-.132-.72h-.037a3.165 3.165 0 0 1-2.03.889 1.911 1.911 0 0 1-1.994-1.996zm3.868-.048v-1.357c-1.635.216-2.186.66-2.186 1.261 0 .528.371.757.888.757a1.782 1.782 0 0 0 1.298-.661z" transform="translate(-72.93 -131.424)" style="fill:#868585"/>
                <path data-name="패스 1645" d="M93.328 217.675h1.442l.119.89h.049a3.1 3.1 0 0 1 2.186-1.058c1.455 0 2.079 1.01 2.079 2.7v4.193h-1.766v-3.977c0-1.034-.288-1.407-.948-1.407a1.935 1.935 0 0 0-1.407.757v4.627h-1.754z" transform="translate(-73.846 -131.424)" style="fill:#868585"/>
                <path data-name="패스 1646" d="M102.033 225.6a1.635 1.635 0 0 1 .962-1.395v-.06a1.276 1.276 0 0 1-.613-1.129 1.671 1.671 0 0 1 .745-1.262v-.054a2.224 2.224 0 0 1-.889-1.754 2.48 2.48 0 0 1 2.716-2.44 3.205 3.205 0 0 1 1.01.168h2.427v1.3h-1.154a1.7 1.7 0 0 1 .313 1.021 2.3 2.3 0 0 1-2.6 2.283 2.839 2.839 0 0 1-.865-.157.672.672 0 0 0-.289.578c0 .36.265.553 1.059.553H106c1.623 0 2.5.505 2.5 1.682 0 1.358-1.407 2.392-3.653 2.392-1.589-.001-2.814-.541-2.814-1.726zm4.782-.362c0-.481-.4-.6-1.117-.6h-.817a3.81 3.81 0 0 1-.938-.1 1.01 1.01 0 0 0-.443.781c0 .565.623.889 1.61.889 1.009-.001 1.705-.445 1.705-.974zm-.815-5.291c0-.794-.444-1.238-1.045-1.238s-1.058.444-1.058 1.238a1.092 1.092 0 0 0 1.058 1.237c.587 0 1.045-.445 1.045-1.237z" transform="translate(-74.742 -131.424)" style="fill:#868585"/>
                <path data-name="패스 1647" d="M110.337 217.694h1.763l.732 3.329c.132.649.216 1.3.336 1.958h.048c.133-.66.253-1.321.421-1.958l.806-3.329h1.574l.841 3.329c.157.649.276 1.3.421 1.958h.06c.119-.66.2-1.31.336-1.958l.733-3.329h1.635l-1.659 6.73h-2.079l-.71-2.932c-.144-.637-.252-1.251-.384-1.959h-.059c-.134.709-.23 1.334-.373 1.959l-.685 2.932h-2.018z" transform="translate(-75.596 -131.443)" style="fill:#868585"/>
                <path data-name="패스 1648" d="M122.632 221.052a3.244 3.244 0 1 1 3.231 3.521 3.286 3.286 0 0 1-3.231-3.521zm4.662 0c0-1.274-.516-2.1-1.431-2.1s-1.429.83-1.429 2.1.517 2.079 1.429 2.079 1.431-.817 1.431-2.079z" transform="translate(-76.861 -131.424)" style="fill:#868585"/>
                <path data-name="패스 1649" d="M132.1 217.675h1.442l.119.89h.048a3.1 3.1 0 0 1 2.187-1.058c1.454 0 2.078 1.01 2.078 2.7v4.193h-1.765v-3.977c0-1.034-.288-1.407-.949-1.407a1.933 1.933 0 0 0-1.406.757v4.627H132.1z" transform="translate(-77.836 -131.424)" style="fill:#868585"/>
                <path data-name="패스 1650" d="M145.119 215.283h1.781v8.893h-1.779z" transform="translate(-83.039 -131.195)" style="fill:#868585"/>
                <path data-name="패스 1651" d="M149.994 217.675h1.443l.119.89h.048a3.1 3.1 0 0 1 2.187-1.058c1.454 0 2.079 1.01 2.079 2.7v4.193h-1.77v-3.977c0-1.034-.288-1.407-.948-1.407a1.935 1.935 0 0 0-1.408.757v4.627h-1.754z" transform="translate(-83.861 -131.424)" style="fill:#868585"/>
                <path data-name="패스 1652" d="m158.485 223.623.806-1.105a2.923 2.923 0 0 0 1.8.733c.673 0 .972-.289.972-.709 0-.505-.7-.733-1.406-1.01-.853-.324-1.838-.841-1.838-1.957 0-1.215.985-2.068 2.5-2.068a3.767 3.767 0 0 1 2.3.83l-.794 1.069a2.586 2.586 0 0 0-1.453-.577c-.6 0-.889.264-.889.649 0 .493.66.673 1.37.937.889.336 1.875.78 1.875 2.031 0 1.177-.925 2.127-2.681 2.127a4.246 4.246 0 0 1-2.562-.95z" transform="translate(-85.194 -131.424)" style="fill:#868585"/>
                <path data-name="패스 1653" d="M166.305 221.862v-2.979h-.949v-1.31l1.033-.085.2-1.8h1.478v1.8h1.658v1.395h-1.658v2.979c0 .77.312 1.129.913 1.129a1.982 1.982 0 0 0 .661-.144l.288 1.286a4.346 4.346 0 0 1-1.418.253c-1.592 0-2.206-1.01-2.206-2.524z" transform="translate(-86.269 -131.237)" style="fill:#868585"/>
                <path data-name="패스 1654" d="M172.187 215.307a1.056 1.056 0 0 1 2.1 0 1.056 1.056 0 0 1-2.1 0zm.169 2.043h1.754v6.73h-1.754z" transform="translate(-87.305 -131.099)" style="fill:#868585"/>
                <path data-name="패스 1655" d="M177.235 221.862v-2.979h-.95v-1.31l1.033-.085.2-1.8H179v1.8h1.658v1.395H179v2.979c0 .77.312 1.129.913 1.129a1.967 1.967 0 0 0 .66-.144l.29 1.286a4.35 4.35 0 0 1-1.417.253c-1.599 0-2.211-1.01-2.211-2.524z" transform="translate(-87.995 -131.237)" style="fill:#868585"/>
                <path data-name="패스 1656" d="M183.223 221.9v-4.206h1.765v3.978c0 1.046.29 1.406.937 1.406a1.621 1.621 0 0 0 1.371-.841v-4.543h1.765v6.73h-1.442l-.132-.962h-.048a2.7 2.7 0 0 1-2.15 1.13c-1.441.001-2.066-1.009-2.066-2.692z" transform="translate(-89.115 -131.443)" style="fill:#868585"/>
                <path data-name="패스 1657" d="M192.623 221.862v-2.979h-.949v-1.31l1.033-.085.2-1.8h1.478v1.8h1.659v1.395h-1.654v2.979c0 .77.312 1.129.913 1.129a1.962 1.962 0 0 0 .66-.144l.289 1.286a4.345 4.345 0 0 1-1.417.253c-1.598 0-2.212-1.01-2.212-2.524z" transform="translate(-90.425 -131.237)" style="fill:#868585"/>
                <path data-name="패스 1658" d="M197.969 221.052a3.3 3.3 0 0 1 3.136-3.545c1.85 0 2.812 1.358 2.812 3.221a3.3 3.3 0 0 1-.084.8h-4.146a1.768 1.768 0 0 0 1.862 1.683 2.773 2.773 0 0 0 1.513-.468l.6 1.081a4.235 4.235 0 0 1-2.355.745 3.261 3.261 0 0 1-3.338-3.517zm4.434-.685c0-.912-.409-1.49-1.274-1.49a1.518 1.518 0 0 0-1.467 1.49z" transform="translate(-91.449 -131.424)" style="fill:#868585"/>
                <path data-name="패스 1659" d="M214.015 215.858a2.184 2.184 0 0 0-.708-.144c-.529 0-.818.313-.818 1.058v.576h1.262v1.395h-1.262v5.335h-1.766v-5.335h-.9v-1.31l.9-.073v-.553a2.183 2.183 0 0 1 2.343-2.488 3.524 3.524 0 0 1 1.274.24z" transform="translate(-93.289 -131.096)" style="fill:#868585"/>
                <path data-name="패스 1660" d="M215.461 221.052a3.244 3.244 0 1 1 3.231 3.521 3.286 3.286 0 0 1-3.231-3.521zm4.662 0c0-1.274-.517-2.1-1.431-2.1s-1.429.83-1.429 2.1.516 2.079 1.429 2.079 1.431-.817 1.431-2.079z" transform="translate(-94.228 -131.424)" style="fill:#868585"/>
                <path data-name="패스 1661" d="M224.93 217.675h1.442l.12 1.19h.048a2.329 2.329 0 0 1 1.91-1.358 1.9 1.9 0 0 1 .793.144l-.311 1.526a2.138 2.138 0 0 0-.7-.108c-.529 0-1.165.348-1.55 1.321v4.01h-1.752z" transform="translate(-95.669 -131.424)" style="fill:#868585"/>
                <path data-name="패스 1662" d="M236.884 216.761h-2.5v-1.478h6.8v1.478h-2.524v7.415h-1.779z" transform="translate(-97.232 -131.195)" style="fill:#868585"/>
                <path data-name="패스 1663" d="M242.648 222.578c0-1.442 1.165-2.2 3.87-2.488-.024-.661-.313-1.165-1.142-1.165a3.792 3.792 0 0 0-1.85.637l-.638-1.166a5.381 5.381 0 0 1 2.812-.889c1.706 0 2.584 1.022 2.584 2.968v3.93h-1.442l-.133-.72h-.035a3.175 3.175 0 0 1-2.032.889 1.912 1.912 0 0 1-1.994-1.996zm3.87-.048v-1.357c-1.634.216-2.188.66-2.188 1.261 0 .528.373.757.891.757a1.785 1.785 0 0 0 1.297-.661z" transform="translate(-98.505 -131.424)" style="fill:#868585"/>
                <path data-name="패스 1664" d="M251.555 222.21v-7.7h1.755v7.787c0 .4.192.528.36.528a.993.993 0 0 0 .241-.024l.216 1.31a2.4 2.4 0 0 1-.913.157c-1.227-.003-1.659-.809-1.659-2.058z" transform="translate(-99.818 -131.115)" style="fill:#868585"/>
                <path data-name="패스 1665" d="M255.922 221.052a3.3 3.3 0 0 1 3.136-3.545c1.85 0 2.812 1.358 2.812 3.221a3.257 3.257 0 0 1-.084.8h-4.146a1.769 1.769 0 0 0 1.863 1.683 2.781 2.781 0 0 0 1.515-.468l.6 1.081a4.24 4.24 0 0 1-2.356.745 3.26 3.26 0 0 1-3.34-3.517zm4.433-.685c0-.912-.408-1.49-1.274-1.49a1.517 1.517 0 0 0-1.465 1.49z" transform="translate(-100.614 -131.424)" style="fill:#868585"/>
                <path data-name="패스 1666" d="M264.787 217.675h1.442l.121.89h.048a3.1 3.1 0 0 1 2.186-1.058c1.455 0 2.08 1.01 2.08 2.7v4.193H268.9v-3.977c0-1.034-.289-1.407-.95-1.407a1.933 1.933 0 0 0-1.406.757v4.627h-1.755z" transform="translate(-102.013 -131.424)" style="fill:#868585"/>
                <path data-name="패스 1667" d="M274.16 221.862v-2.979h-.948v-1.31l1.033-.085.205-1.8h1.478v1.8h1.659v1.395h-1.659v2.979c0 .77.313 1.129.914 1.129a1.976 1.976 0 0 0 .66-.144l.288 1.286a4.341 4.341 0 0 1-1.418.253c-1.598 0-2.212-1.01-2.212-2.524z" transform="translate(-103.3 -131.237)" style="fill:#868585"/>
                <path data-name="패스 1668" d="M291.077 224.325a7.206 7.206 0 0 1-2.211-.937 4.308 4.308 0 0 1-2.727.937c-1.863 0-2.908-1.142-2.908-2.524a2.95 2.95 0 0 1 1.67-2.523 4.183 4.183 0 0 1-.564-1.923 2.215 2.215 0 0 1 2.33-2.259 1.88 1.88 0 0 1 2.068 1.935c0 1.177-.962 1.911-1.912 2.571a11.265 11.265 0 0 0 1.924 1.851 6.733 6.733 0 0 0 1.094-2.259h1.6a9.744 9.744 0 0 1-1.5 3.052 5.36 5.36 0 0 0 1.574.637zm-4.722-1.358a2.4 2.4 0 0 0 1.3-.445 12.633 12.633 0 0 1-2.007-2.079 1.706 1.706 0 0 0-.733 1.25 1.3 1.3 0 0 0 1.44 1.274zm-.228-4.423c.7-.42 1.237-.853 1.237-1.5 0-.444-.205-.769-.673-.769-.517 0-.889.421-.889 1.081a2.755 2.755 0 0 0 .325 1.188z" transform="translate(-105.02 -131.176)" style="fill:#868585"/>
                <path data-name="패스 1669" d="M294.56 215.283h1.779v7.4h3.605v1.49h-5.384z" transform="translate(-106.702 -131.195)" style="fill:#868585"/>
                <path data-name="패스 1670" d="M302.557 215.307a1.055 1.055 0 0 1 2.1 0 1.055 1.055 0 0 1-2.1 0zm.168 2.043h1.754v6.73h-1.754z" transform="translate(-107.834 -131.099)" style="fill:#868585"/>
                <path data-name="패스 1671" d="M310.955 215.858a2.185 2.185 0 0 0-.709-.144c-.528 0-.817.313-.817 1.058v.576h1.263v1.395h-1.263v5.335h-1.766v-5.335h-.9v-1.31l.9-.073v-.553a2.183 2.183 0 0 1 2.344-2.488 3.532 3.532 0 0 1 1.274.24z" transform="translate(-108.595 -131.096)" style="fill:#868585"/>
                <path data-name="패스 1672" d="M312.4 221.052a3.3 3.3 0 0 1 3.136-3.545c1.851 0 2.812 1.358 2.812 3.221a3.3 3.3 0 0 1-.084.8h-4.146a1.769 1.769 0 0 0 1.863 1.683 2.771 2.771 0 0 0 1.513-.468l.6 1.081a4.237 4.237 0 0 1-2.355.745 3.261 3.261 0 0 1-3.339-3.517zm4.435-.685c0-.912-.409-1.49-1.274-1.49a1.518 1.518 0 0 0-1.467 1.49z" transform="translate(-109.546 -131.424)" style="fill:#868585"/>
                <path data-name="패스 1673" d="M321.268 222.21v-7.7h1.754v7.787c0 .4.192.528.361.528a.994.994 0 0 0 .24-.024l.215 1.31a2.4 2.4 0 0 1-.913.157c-1.225-.003-1.657-.809-1.657-2.058z" transform="translate(-110.801 -131.115)" style="fill:#868585"/>
                <path data-name="패스 1674" d="M325.633 221.052a3.245 3.245 0 1 1 3.232 3.521 3.287 3.287 0 0 1-3.232-3.521zm4.662 0c0-1.274-.517-2.1-1.43-2.1s-1.429.83-1.429 2.1.517 2.079 1.429 2.079 1.435-.817 1.435-2.079z" transform="translate(-111.662 -131.424)" style="fill:#868585"/>
                <path data-name="패스 1675" d="M335.1 217.675h1.442l.121.89h.047a3.1 3.1 0 0 1 2.187-1.058c1.454 0 2.079 1.01 2.079 2.7v4.193h-1.766v-3.977c0-1.034-.29-1.407-.95-1.407a1.93 1.93 0 0 0-1.4.757v4.627h-1.76z" transform="translate(-113.133 -131.424)" style="fill:#868585"/>
                <path data-name="패스 1676" d="M343.807 225.6a1.633 1.633 0 0 1 .962-1.395v-.06a1.274 1.274 0 0 1-.614-1.129 1.672 1.672 0 0 1 .745-1.262v-.054a2.226 2.226 0 0 1-.889-1.754 2.481 2.481 0 0 1 2.716-2.44 3.2 3.2 0 0 1 1.009.168h2.428v1.3h-1.154a1.686 1.686 0 0 1 .312 1.021 2.3 2.3 0 0 1-2.6 2.283 2.849 2.849 0 0 1-.865-.157.674.674 0 0 0-.289.578c0 .36.265.553 1.058.553h1.142c1.622 0 2.5.505 2.5 1.682 0 1.358-1.406 2.392-3.654 2.392-1.581-.001-2.807-.541-2.807-1.726zm4.783-.362c0-.481-.4-.6-1.118-.6h-.817a3.8 3.8 0 0 1-.937-.1 1.01 1.01 0 0 0-.445.781c0 .565.626.889 1.61.889 1.009-.001 1.707-.445 1.707-.974zm-.817-5.287c0-.794-.445-1.238-1.046-1.238s-1.057.444-1.057 1.238a1.091 1.091 0 0 0 1.057 1.237c.589-.004 1.046-.449 1.046-1.241z" transform="translate(-114.538 -131.424)" style="fill:#868585"/>
                <path data-name="패스 1677" d="M356.732 215.283h5.454v1.478h-3.675v2.055h3.124v1.49h-3.124v2.379h3.809v1.49h-5.588z" transform="translate(-120.013 -131.195)" style="fill:#868585"/>
                <path data-name="패스 1678" d="M364.835 220.744c0-2.2 1.369-3.545 2.823-3.545a2.315 2.315 0 0 1 1.707.733l-.072-1.057v-2.367h1.766v9.592h-1.429l-.144-.7h-.037a2.786 2.786 0 0 1-1.862.866c-1.67-.001-2.752-1.324-2.752-3.522zm4.459 1.369v-2.956a1.787 1.787 0 0 0-1.251-.5c-.757 0-1.394.721-1.394 2.067 0 1.393.505 2.091 1.394 2.091a1.5 1.5 0 0 0 1.251-.702z" transform="translate(-120.847 -131.115)" style="fill:#868585"/>
                <path data-name="패스 1679" d="M374.424 221.9v-4.206h1.766v3.978c0 1.046.289 1.406.937 1.406a1.619 1.619 0 0 0 1.371-.841v-4.543h1.766v6.73h-1.442l-.132-.962h-.048a2.705 2.705 0 0 1-2.151 1.13c-1.442.001-2.067-1.009-2.067-2.692z" transform="translate(-121.833 -131.443)" style="fill:#868585"/>
                <path data-name="패스 1680" d="M383.184 221.052a3.359 3.359 0 0 1 3.436-3.545 2.939 2.939 0 0 1 1.958.745l-.841 1.141a1.538 1.538 0 0 0-1.033-.445c-1.021 0-1.718.83-1.718 2.1s.7 2.079 1.67 2.079a2.087 2.087 0 0 0 1.31-.541l.7 1.166a3.338 3.338 0 0 1-2.2.817 3.216 3.216 0 0 1-3.282-3.517z" transform="translate(-122.735 -131.424)" style="fill:#868585"/>
                <path data-name="패스 1681" d="M390.791 222.578c0-1.442 1.165-2.2 3.869-2.488-.023-.661-.312-1.165-1.141-1.165a3.8 3.8 0 0 0-1.851.637l-.637-1.166a5.378 5.378 0 0 1 2.811-.889c1.707 0 2.585 1.022 2.585 2.968v3.93h-1.442l-.134-.72h-.035a3.171 3.171 0 0 1-2.031.889 1.912 1.912 0 0 1-1.994-1.996zm3.869-.048v-1.357c-1.634.216-2.187.66-2.187 1.261 0 .528.373.757.89.757a1.782 1.782 0 0 0 1.297-.661z" transform="translate(-123.517 -131.424)" style="fill:#868585"/>
                <path data-name="패스 1682" d="M399.616 221.862v-2.979h-.95v-1.31l1.033-.085.2-1.8h1.478v1.8h1.659v1.395h-1.659v2.979c0 .77.312 1.129.913 1.129a1.972 1.972 0 0 0 .661-.144l.288 1.286a4.34 4.34 0 0 1-1.417.253c-1.593 0-2.206-1.01-2.206-2.524z" transform="translate(-124.328 -131.237)" style="fill:#868585"/>
                <path data-name="패스 1683" d="M405.5 215.307a1.057 1.057 0 0 1 2.1 0 1.057 1.057 0 0 1-2.1 0zm.169 2.043h1.756v6.73h-1.756z" transform="translate(-125.031 -131.099)" style="fill:#868585"/>
                <path data-name="패스 1684" d="M409.9 221.052a3.245 3.245 0 1 1 3.233 3.521 3.287 3.287 0 0 1-3.233-3.521zm4.663 0c0-1.274-.517-2.1-1.43-2.1s-1.43.83-1.43 2.1.517 2.079 1.43 2.079 1.432-.817 1.432-2.079z" transform="translate(-125.484 -131.424)" style="fill:#868585"/>
                <path data-name="패스 1685" d="M419.372 217.675h1.443l.119.89h.049a3.1 3.1 0 0 1 2.186-1.058c1.455 0 2.079 1.01 2.079 2.7v4.193h-1.766v-3.977c0-1.034-.288-1.407-.95-1.407a1.935 1.935 0 0 0-1.4.757v4.627h-1.755z" transform="translate(-126.458 -131.424)" style="fill:#868585"/>
            </g>
        </g>
        <path data-name="패스 1686" d="M101.85 129.054a7.505 7.505 0 1 1-7.505-7.5 7.506 7.506 0 0 1 7.505 7.5z" transform="translate(-73.178 -121.55)" style="fill:#00397b"/>
        <path data-name="패스 1687" d="m111.627 158.412-14.894-14.894a5.468 5.468 0 0 0-7.725 0l-14.893 14.894a5.457 5.457 0 0 0 7.717 7.717l9.151-9.15a2.649 2.649 0 0 1 3.8.046l.007-.011 9.115 9.115a5.457 5.457 0 0 0 7.717-7.717z" transform="translate(-71.704 -123.646)" style="fill:#00397b"/>
        <path data-name="패스 1688" d="M135.069 129.054a7.505 7.505 0 1 1-7.505-7.5 7.506 7.506 0 0 1 7.505 7.5z" transform="translate(-76.596 -121.55)" style="fill:#dd870d"/>
        <path data-name="패스 1689" d="m144.846 158.412-14.895-14.895a5.466 5.466 0 0 0-7.724 0l-14.894 14.895a5.457 5.457 0 0 0 7.717 7.717l9.15-9.15a2.649 2.649 0 0 1 3.8.046l.007-.011 9.115 9.115a5.457 5.457 0 0 0 7.718-7.717z" transform="translate(-75.122 -123.646)" style="fill:#dd870d"/>
        <path data-name="패스 1690" d="M168.258 129.054a7.505 7.505 0 1 1-7.505-7.5 7.506 7.506 0 0 1 7.505 7.5z" transform="translate(-84.603 -121.55)" style="fill:#3b9366"/>
        <path data-name="패스 1691" d="m178.035 158.412-14.894-14.895a5.466 5.466 0 0 0-7.724 0l-14.895 14.895a5.457 5.457 0 0 0 7.718 7.717l9.15-9.15a2.649 2.649 0 0 1 3.8.046l.007-.011 9.115 9.115a5.457 5.457 0 0 0 7.717-7.717z" transform="translate(-82.673 -123.646)" style="fill:#3b9366"/>
    </g>
</svg>
