<svg xmlns="http://www.w3.org/2000/svg" width="248.426" height="63.933" viewBox="0 0 248.426 63.933">
    <g data-name="그룹 685">
        <path data-name="패스 1950" d="m217.929 187.547-36.895-36.895a13.54 13.54 0 0 0-19.135 0L125 187.547a13.519 13.519 0 1 0 19.118 19.118L166.788 184c.742-.663 5.107-4.205 9.427.113l.015-.026 22.583 22.582a13.518 13.518 0 1 0 19.116-19.118z" transform="translate(-121.043 -146.693)" style="fill:#003b86"/>
        <path data-name="패스 1951" d="m288.186 187.547-36.9-36.895a13.54 13.54 0 0 0-19.135 0l-36.9 36.895a13.519 13.519 0 0 0 19.119 19.118L237.045 184c.742-.663 5.107-4.205 9.426.113l.016-.026 22.581 22.582a13.519 13.519 0 0 0 19.118-19.118z" transform="translate(-117.477 -146.693)" style="fill:#e88c00"/>
        <path data-name="패스 1952" d="m358.38 187.547-36.9-36.895a13.539 13.539 0 0 0-19.134 0l-36.895 36.895a13.518 13.518 0 0 0 19.117 19.118L307.239 184c.742-.663 5.109-4.205 9.426.113l.017-.026 22.581 22.582a13.518 13.518 0 1 0 19.117-19.118z" transform="translate(-113.915 -146.693)" style="fill:#3a9c67"/>
    </g>
</svg>
