<svg xmlns="http://www.w3.org/2000/svg" width="129.913" height="135.666" viewBox="0 0 129.913 135.666">
    <g data-name="그룹 487">
        <path data-name="패스 1574" d="M840.961 271.783a18.365 18.365 0 0 1-5.8-.978c-1.623-.437-5.939-1.593-6.38-.776l-.324.6-.624.272a10.776 10.776 0 0 0-1.9 1.228 9.177 9.177 0 0 1-4.686 2.208 6.639 6.639 0 0 1-4.109-1.279c-.954-.584-1.337-.78-1.877-.664-.628.134-1.376.971-2.1 1.781a10.418 10.418 0 0 1-3.026 2.593c-3.533 1.737-5.412.482-7.231-.734-.3-.2-.6-.4-.928-.6-2.191-1.367-4-1.858-5.375-1.459-1.342.388-2.565 1.707-3.632 3.922l-.27.557c-1.363 2.865-2.136 3.846-6.118 4.5a43.48 43.48 0 0 1-2.446.312 24.032 24.032 0 0 0-3.3.511 17.942 17.942 0 0 0-1.279 5.828l.032 1.082-.825.56a5.553 5.553 0 0 0-.265 1.067 7.039 7.039 0 0 1-1.3 3.318l-.01.008c1.793 1.475 4.75 4.286 5.947 7.6.762 2.1-.015 4.309-.7 6.256-1.13 3.206-1.1 3.958.185 4.741.606.37.667.408 1.919-.478a9.938 9.938 0 0 1 2.391-1.352c3.133-1.127 5.693.331 7.752 1.5 1.665.95 3.1 1.77 4.785 1.536a16.95 16.95 0 0 0 1.722-.389c1.9-.492 4.261-1.108 6.377-.115 2 .94 3.462 3.409 4.9 6.075.151.28.294.546.418.763.242.432.458.847.665 1.249a7.821 7.821 0 0 0 2.15 2.987 7.683 7.683 0 0 0 1.444.778 6.857 6.857 0 0 1 4.066 3.818 13.826 13.826 0 0 1 .569 5.994 21.3 21.3 0 0 0-.03 2.715 20.576 20.576 0 0 0 .412 2.43 11.937 11.937 0 0 1 .056 6.581c-.948 2.817-2.852 4.9-4.689 6.912a18.436 18.436 0 0 0-3.724 5.11 14.45 14.45 0 0 0-.523 5.239c.036 3.585.078 7.647-3.476 10.107a7.014 7.014 0 0 1-5.478.832 5.072 5.072 0 0 0-2.312-.04c-.8.279-1.717 1.658-2.457 2.765a19.123 19.123 0 0 1-1.282 1.741 9.016 9.016 0 0 1-1.168 2.9c-.6 1.046-.83 1.435-.439 2.461.575 1.5 2.142 2.493 4.318 3.518 2.664 1.254 4.729 2.12 7.212 1.851 6.677-.726 14.989-1.628 20.316 5.477a13.233 13.233 0 0 1 1.925 5.238 9.15 9.15 0 0 0 .939 2.972c.139 0 .809-.035 2.446-1.122 3.691-2.45 5.581-6.676 7.582-11.146.583-1.3 1.186-2.648 1.832-3.94a14.743 14.743 0 0 0 1.846-6.766c.015-.3.011-.676.007-1.068-.018-1.929-.054-5.943 3.662-6.4 6.854-.844 9.484 11.589 9.877 13.688a21.117 21.117 0 0 1 1.011 2.251 10.7 10.7 0 0 0 1.624 3.133 3.344 3.344 0 0 0 2.593 1.126 17 17 0 0 1 1.913.379 7.4 7.4 0 0 1 4.785-.57 9.726 9.726 0 0 1 5.856 3.3 8.416 8.416 0 0 0 3.758-1.2 20.728 20.728 0 0 1 3.116-1.322 10.868 10.868 0 0 1 5.768-.006 7.9 7.9 0 0 0 3.216.215c3-.6 3.434-2.811 3.724-7.711a24.132 24.132 0 0 1 .693-5.284 11.277 11.277 0 0 1 6.534-7.688 11.627 11.627 0 0 1 3.882-.788 18.963 18.963 0 0 1-1.264-7.738c.2-7.139-.016-7.378-5.205-13.127a155.036 155.036 0 0 1-10.532-13.16c-6.076-8.4-12-16.645-18.222-24.975-3.567-4.775-7.714-8.957-11.225-13.8-3.427-4.727-3.081-9.862-5.238-14.606-2.64-5.8-6.6-11.177-10.557-16.526a15.2 15.2 0 0 1-3.899 1.222z" transform="translate(-777.184 -269.744)" style="fill:#26498c"/>
        <text transform="translate(52.816 67.756)" style="fill:#fff;font-size:14px;font-family:NotoSansCJKkr-Medium,Noto Sans CJK KR;font-weight:500"><tspan x="0" y="0">강릉시</tspan></text>
    </g>
</svg>
