<svg xmlns="http://www.w3.org/2000/svg" width="86.851" height="114.033" viewBox="0 0 86.851 114.033">
    <g data-name="그룹 496">
        <path data-name="패스 1571" d="M591.405 125.9v13.808c0 .673-.038 1.46-.08 2.294-.122 2.474-.35 7.081 1.023 8.081l.544.4.189.649c.028.1.044.146.063.21.046.01.067.017.131.03 0 0 .854.167.865.186l.451.746.536.884a14.613 14.613 0 0 1 2.51 6.026 13.384 13.384 0 0 1-.452 4.239 9.957 9.957 0 0 0-.343 2.237l.026.41-.143.387c-.749 2.042-.32 4.671.094 7.214a37.153 37.153 0 0 1 .506 4.019c.04.791.054 1.56.069 2.3.057 2.94.106 5.479 1.651 7.815.451.682.885 1.265 1.3 1.828 1.645 2.209 3.067 4.118 2.619 8.4-.243 2.323-.682 4.516-1.1 6.637-.25 1.246-.484 2.422-.683 3.624l-.287 1.731a12.345 12.345 0 0 0 4.089 3.384c2.5 1.143 2.752.947 4.681-.583a47.09 47.09 0 0 1 1.565-1.2 9.679 9.679 0 0 1 7.194-1.542 6.786 6.786 0 0 1 4.582 3.069 10.766 10.766 0 0 1 1.251 5.7 8.559 8.559 0 0 0 .478 3.348 6.394 6.394 0 0 0 2.669-1.864 14.179 14.179 0 0 1 3.153-2.5c2.437-1.35 5.108-.561 7.255.073.789.233 2.431.718 2.753.511.512-.33.57-1.281.6-2.7.035-1.529.078-3.432 1.476-4.687a4.788 4.788 0 0 1 3.746-1.016c2.295.192 4.012 1.845 5.53 3.3.434.42.986.947 1.483 1.343a34.913 34.913 0 0 0 .069-3.52l-.02-1.526a15.638 15.638 0 0 1 .749-4.384 14.628 14.628 0 0 0 .572-2.682c.126-1.574-.813-2.883-1.9-4.4-1.5-2.1-3.554-4.962-1.369-8.613a12.675 12.675 0 0 1 1.769-2.257 3.058 3.058 0 0 0 1.163-2.659 15.007 15.007 0 0 0-.92-4.408 37.56 37.56 0 0 1-.678-2.353c-.955-3.961.407-9.257 1.5-13.511l.476-1.877a5.959 5.959 0 0 1 3.148-4.408 7.191 7.191 0 0 0 1.449-1.052c.946-.9.977-1.546.938-3.43-.011-.563-.024-1.2.008-1.9.262-5.731 3.982-7.836 7.263-9.691a21.8 21.8 0 0 0 4.207-2.835c1.342-1.249 1.338-1.783 1.325-3.559a29.14 29.14 0 0 1 .02-1.658 16.874 16.874 0 0 1 .909-4.372 16.679 16.679 0 0 0 .726-3c.337-2.888-.11-3.883-.4-4.221-.626-.714-2.546-.746-4.765-.784a69.954 69.954 0 0 1-2.766-.085l-1.235-.068-.476-1.142a20.952 20.952 0 0 1-1.309-6.937 90.558 90.558 0 0 1-22.172 4.307c-10.47.488-21.306-2.979-30.887-6.575-4.831-1.813-9.5-3.592-15.118-2.642-2.719.46-5.176 2.142-7.6 3.359a31.951 31.951 0 0 1 3.33 14.092z" transform="translate(-588.076 -108.203)" style="fill:#26498c"/>
        <text transform="translate(19.924 54.297)" style="fill:#fff;font-size:14px;font-family:NotoSansCJKkr-Medium,Noto Sans CJK KR;font-weight:500"><tspan x="0" y="0">양구군</tspan></text>
    </g>
</svg>
