<svg xmlns="http://www.w3.org/2000/svg" width="205.68" height="127.81" viewBox="0 0 205.68 127.81">
    <g data-name="그룹 485">
        <path data-name="패스 1561" d="M693.912 458.335a28.111 28.111 0 0 0-1.2-7.447 46.63 46.63 0 0 1-1.162-5.64 89.641 89.641 0 0 1-.178-1.734c-.3-3.222-.567-6.006-2.94-7.711-1.8-1.3-4.376-1.892-6.871-2.468-.255-.06-.516-.125-.774-.185-.027.034-.042.068-.069.1a3.576 3.576 0 0 1-3.062 1.029c-2.475 1.257-5.229 1.066-7.681.875-3.312-.256-5.422-.318-6.969 1.592-1.392 1.719-2.774 5.26-3.89 9.966-.128.531-.228 1.262-.336 2.035-.381 2.708-.866 6.005-3.064 7.744a3.571 3.571 0 0 1-1.8 1.735c-2.265.934-5.055-.563-7.755-2.011a16.27 16.27 0 0 0-2.793-1.314c-1.838.123-4.063 3.065-4.938 5.7a13.1 13.1 0 0 1 .327 3.01l.395-.427.405 4.4c.263 2.819 5.161 3.516 8.634 3.654a30.267 30.267 0 0 0 1.567-2.1c1.668-2.4 3.393-4.881 6.123-5.1 1.648-.128 3.288.647 4.881 2.31a17.639 17.639 0 0 1 4.582 9.976 15.377 15.377 0 0 1-.683 5c-.118.466-.227.917-.319 1.353a53.219 53.219 0 0 1 8.066 3.6l1.895.966a40.979 40.979 0 0 0 7.944 2.527c6.738 1.695 14.378 3.616 17.432 10.5a2.952 2.952 0 0 1-.244 2.842c-3.054 4.582-9.171 5.426-14.566 6.169-7.134.986-8.853 1.756-8.769 3.93.1 2.523 1 3.141 1.293 3.341 2.77 1.9 10.3-.683 14.345-2.069a41.452 41.452 0 0 1 4.315-1.332c12.2-2.567 14.739 2.979 17.191 8.345a32.746 32.746 0 0 0 3.048 5.618c1.852 2.6 3.325 2.622 6.263 2.668 2.8.043 6.483.127 10.5 3.123a9.235 9.235 0 0 1 6.073-2.257c3.48.177 5.687 2.889 7.462 5.068a13.633 13.633 0 0 0 2.839 2.908c2.729 1.653 6.466 1.979 10.421 2.325 3.495.306 7.106.622 10.323 1.925a27.509 27.509 0 0 1 9.091 6.022 27.488 27.488 0 0 0 6.736 4.879l.955.485c4.891 2.484 10.778 5.452 16.308 6.7.971-8.417 7.647-14.982 16.766-15.9 8.552-.858 10.47 2.825 11.818 7 .616 1.906 1.144 3.554 3.049 4.926 2.149 1.552 4.039 1.452 6.588.184-1.126-3.574-1.29-8.793-1.431-13.466-.058-1.936-.117-3.765-.237-5.275-.468-5.984 1.908-10.84 4.3-15.511-.216-.028-.435-.053-.675-.093-1.154-.181-2.386-.324-3.688-.476-4.3-.5-9.177-1.069-13.073-3.314a9.646 9.646 0 0 1-3.651-3.9 12.717 12.717 0 0 0-1.217-1.8c-.747-.884-.912-.882-1.832-.878a8.812 8.812 0 0 1-3.57-.605 11.318 11.318 0 0 1-3.271-2.23 8.924 8.924 0 0 0-2.031-1.5 16.481 16.481 0 0 0-7.333-1.066c-2.964.151-4.1.474-5.944 2.311-.421.419-.925.866-1.458 1.338-1.122.991-2.816 2.489-3.152 3.451l-.589 1.7-1.744-.429a22.61 22.61 0 0 1-3.188-1.1c-1.822-.733-3.154-1.255-5.268-.777-5.057 2.376-7.936-2.324-9.67-5.169-.249-.41-.485-.8-.715-1.156-.164-.251-.328-.519-.486-.776-.6-.981-1.348-2.2-2.1-2.495a3.952 3.952 0 0 0-1.575-.188 5.961 5.961 0 0 1-4.536-1.545c-2.85-2.55-5.795-9.172-6.334-12.957a13.578 13.578 0 0 1 .446-4.425c.254-1.231.777-3.786.208-3.989l-.348-.124-.281-.242a19.343 19.343 0 0 0-5.721-3.565l-.77-.236-.382-.7c-.515-.533-3.619-.236-4.948-.11a15.257 15.257 0 0 1-5.228-.042v-.044a1.694 1.694 0 0 0 .8.1l.12-1.644-.854.7.046-.651-.995.812a1.647 1.647 0 0 0 .313.362l-.012.008a16.914 16.914 0 0 1-3.615-5.32c-.82-1.225-1.94-1.518-3.836-1.906a9.06 9.06 0 0 1-4.955-2.185l-.756-.75.216-1.046a18.776 18.776 0 0 1 1.245-3.611 15.943 15.943 0 0 0 1.141-3.426c-2.49-2.788-6.447-.619-7.657.155-1.884 1.2-2.129 2.55-2.531 4.78a21.2 21.2 0 0 1-.849 3.49c-1.149 3.243-5.416 9.881-10.608 8.481a8.21 8.21 0 0 1-4.3-2.955c-.965-1.113-1.316-1.5-3.066-1.17a3.832 3.832 0 0 1-3.7-.262c-2.484-1.695-2.555-6.219-2.26-10.852z" transform="translate(-638.435 -433.15)" style="fill:#26498c"/>
        <text transform="translate(78.565 82.35)" style="fill:#fff;font-size:14px;font-family:NotoSansCJKkr-Medium,Noto Sans CJK KR;font-weight:500"><tspan x="0" y="0">영월군</tspan></text>
    </g>
</svg>
