<svg xmlns="http://www.w3.org/2000/svg" width="96.602" height="145.496" viewBox="0 0 96.602 145.496">
    <g data-name="그룹 495">
        <path data-name="패스 1570" d="M695.387 103.614a5.8 5.8 0 0 0 .45 1.923c.531.85.639.834 1.968.642a8.156 8.156 0 0 1 3.549.075 5.022 5.022 0 0 1 3.621 2.822c.92 2.322-.521 4.71-1.793 6.817-.3.494-.686 1.144-.931 1.645l.149.046.375.76c.363.73 1.086.825 3.694.487a11.675 11.675 0 0 1 4.289-.029c3.448.859 7.014 4.732 7.482 8.124.3 2.154-.319 4.551-.917 6.87-1.323 5.153-1.505 7.319 1.7 8.457.442-.083.878-.171 1.292-.274 1.932-.483 4.336-1.083 6.958 1.489a15.706 15.706 0 0 1 2.523 3.559 18.477 18.477 0 0 0 1.282 2 7.143 7.143 0 0 0 2.434.414l-.329-.277 3.877-.88a7.372 7.372 0 0 0 1.482-.923c1.5-1.074 4-2.871 6.521-1.168 1.378.928 1.863 3.047 2.322 6.885.037.328.072.61.1.8.151 1.013.4 2.087.663 3.223a30.453 30.453 0 0 1 .934 5.664 12.435 12.435 0 0 1 5.357-.26 8.478 8.478 0 0 1 3.937 2.613 7.167 7.167 0 0 0 1.546 1.312c1.483.708 1.8.534 3.375-1.864 1.018-1.554 2.288-3.487 4.559-4.3a6.394 6.394 0 0 1 6.1.565 8.091 8.091 0 0 0 1.43.678c1.531.508 2.371.089 4.569-1.2l.652-.379a72.067 72.067 0 0 1 9.336-4.706c-2.49-6.763-5.266-13.421-8.13-19.792-2.253-5-4.764-10.129-6.85-14.972-1.945-4.524-1.9-9.172-3.96-13.8-2.265-5.076-4.611-7.549-5.731-13.289-1.019-5.213-1.975-10.241-3.982-15.116-1.941-4.714-4.669-9.165-6.408-13.815-1.846-4.935-1.38-9.019-2.279-14.3-.989-5.8-7.47-24.028-12.967-27.269-11.151-6.571-18.236 9-19.092 16.608-1.165 10.343.067 21.825-3.94 31.577-3.777 9.192-11.405 17.437-18.6 24.1a55.157 55.157 0 0 1-4.665 3.82c1.561 1.275 1.861 3.249 2.048 4.638z" transform="translate(-693.336 -21.292)" style="fill:#26498c"/>
        <text transform="translate(23.664 91.208)" style="fill:#fff;font-size:14px;font-family:NotoSansCJKkr-Medium,Noto Sans CJK KR;font-weight:500"><tspan x="0" y="0">고성군</tspan></text>
    </g>
</svg>
