<svg xmlns="http://www.w3.org/2000/svg" width="284.08" height="125.743" viewBox="0 0 284.08 125.743">
    <g data-name="그룹 492">
        <path data-name="패스 1564" d="M611.141 265.84a14.545 14.545 0 0 0-.518 2.055 11.9 11.9 0 0 1-1.263 3.792 5.649 5.649 0 0 1-1.574 4.471 10.065 10.065 0 0 1-8.573 2.831c-3.192-.66-4.555-3.084-5.651-5.032-.735-1.306-1.369-2.434-2.4-2.951-1.245-.628-2.3.077-4.829 2.511-2.008 1.93-4.284 4.118-7.372 4.19a9.919 9.919 0 0 1-3.738-.91 7.064 7.064 0 0 0-2.288-.628c-.236.542-.055 2.048.555 4.526.079.324.148.6.2.851a21.438 21.438 0 0 0 3.162 6.539 26.274 26.274 0 0 1 3.375 6.76c.631 2.249-.061 9.616-3.043 12.458a4.034 4.034 0 0 1-3.213 1.182c-2.555 1.3-7.092 2.871-9.938 2.737a11.3 11.3 0 0 1-4.365-1.229 5.777 5.777 0 0 0-3.5-.778 25.531 25.531 0 0 1-6.579-.219c-3.846-.465-7.166-.864-9.842 1.822l-.284.285-.372.15c-1.052.427-1.9 1.734-2.8 3.116-1.058 1.628-2.257 3.472-4.208 4.457-3.143 1.584-9.394 3.548-12.89.851l-.121-.094-.106-.111a1.283 1.283 0 0 0-.109-.1 9.493 9.493 0 0 0-1.1 1.07 10.086 10.086 0 0 1-2.068 1.858l-.573.35-.667-.074c-6.343-.7-6.717-4.142-7.017-6.915a9.7 9.7 0 0 0-1.227-4.374 3.817 3.817 0 0 0-3.8-1.906 8.4 8.4 0 0 0-5.1 2.605 16.305 16.305 0 0 1 .409 1.687c.687 3.724-1.125 7.43-2.724 10.7-1.016 2.077-2.066 4.225-2.152 5.773-.09 1.637.01 3.789 1.01 4.746 1.422 1.363 5.32.98 8.76.641 3.559-.35 7.239-.712 10.413.3 6.392 2.04 11.241 5.816 15.931 9.467 6.545 5.1 12.727 9.907 22.71 9.474a2.955 2.955 0 0 1 3.039 2.436c.311 1.747 1.587 2.381 4.643 3.512a18.6 18.6 0 0 1 4.4 2.089 31.214 31.214 0 0 1 5.816 5.847c.769.926 1.516 1.812 2.275 2.618.125-.024.256-.038.38-.065l1.359-.654c.961-.463 2.553-3.44 2.581-4.825l.014-.673.422-.525c.51-.633.991-1.289 1.5-1.984 1.99-2.717 4.244-5.8 8.4-7.191 3.574-1.2 7.642-.9 11.23-.642.206.016.383.023.584.037.2-2.819.954-7.46 3.726-10.01l.487-.448.657-.063c3.669-.356 6.093 1.554 8.231 3.241a11.855 11.855 0 0 0 4.495 2.594c1.367.326 5 1.188 6.365.96a4.72 4.72 0 0 0 1.649-1.062 6.7 6.7 0 0 1 3.491-1.812 2.361 2.361 0 0 1 .564-.305l.775-.259.729.363c1.768.88 2.5.784 2.732.7.572-.2 1.111-1.39 1.631-2.538.82-1.8 1.839-4.049 4.082-5.432a9.056 9.056 0 0 1 3.835-1.143 5.623 5.623 0 0 0 2.642-.767 8.675 8.675 0 0 0 1.074-1c1.143-1.177 2.871-2.956 5.676-2.549 2.191.315 3.77 1.94 5.159 3.374a12.394 12.394 0 0 0 1.946 1.764 9.829 9.829 0 0 0 2.8 1.059 16.557 16.557 0 0 1 3.258 1.147 12.657 12.657 0 0 1 3.679 3.084 11.135 11.135 0 0 0 2.089 1.957 2.237 2.237 0 0 0 .619.192 4.992 4.992 0 0 1 2.7 1.387 6.257 6.257 0 0 1 1.365 2.679 5.246 5.246 0 0 0 .458 1.177c.624.865 3.279 2.29 5.671 2.489a2.415 2.415 0 0 0 1.486-.174 1.061 1.061 0 0 0 .015-.513l-.127-1 .743-.691c2.133-1.977 3.893-5.379 5.594-8.67.924-1.79 1.8-3.479 2.747-4.987 4.721-7.521 9.893-6.223 15.878-4.721l.961.24c4.267 1.055 8.691.793 13.377.514l3.073-.168c5.487-.249 8.456-.606 10.7-5.5.319-.693.622-1.441.915-2.164 1.626-4.011 3.854-9.506 11.062-7.607a18.008 18.008 0 0 1 3.9 1.759c1.411.774 3.167 1.739 3.942 1.456.354-.129.748-.69 1.074-1.538a9.394 9.394 0 0 0 .355-3.654 18.756 18.756 0 0 1 .111-3.228c.443-3.045 2.02-5.78 3.455-8.268l.1-.172c2.153-3.735 5.689-9.852 10.363-11.031a9.434 9.434 0 0 1 2.1-1.364 5.17 5.17 0 0 0 1.405-.909 4.088 4.088 0 0 0 .489-1.565 6.314 6.314 0 0 1 1.012-2.75 23.261 23.261 0 0 1 1.275-5.854c-.928-.875-1.835-1.839-2.769-2.889-2.7-3.032-5.482-6.167-8.989-5.7a6.568 6.568 0 0 0-2.494 1.349c-1.633 1.168-3.865 2.769-6.837 1.81a15.3 15.3 0 0 1-4.651-3.116c-.587-.5-1.181-1-1.738-1.419l-.408.271a72.227 72.227 0 0 0-8.114 5.942l-1.467 1.3-1.309-1.459c-2.615-2.921-3.706-3.144-4.122-3.017-.669.2-1.166 1.589-1.565 2.7a10.832 10.832 0 0 1-1.06 2.372c-1.921 2.881-3.465 2.976-5.287 2.8a6.43 6.43 0 0 0-1.663-.006c-1.372.193-1.658.68-2.428 1.983-.252.424-.568.917-.931 1.429a4.09 4.09 0 0 1-.179 2.134 7.96 7.96 0 0 0-.135.477l-.28 1.175-1.172.284c-3.159.765-6.654-.551-10.037-1.824a21.6 21.6 0 0 0-6.239-1.728l-2.562-.045.7-2.464c.32-1.126-.6-3.77-2.644-6.074a8.322 8.322 0 0 0-3.134-2.332 11.643 11.643 0 0 1-2.38 4.654 11.326 11.326 0 0 1-2.311 1.851 5.853 5.853 0 0 0-1.767 1.482 4.531 4.531 0 0 0-.562 1.379c-.426 1.53-1.02 2.874-4.041 3.824a18.335 18.335 0 0 1-2.6.571 18.062 18.062 0 0 0-1.89.414 9.347 9.347 0 0 1-3.582 3.742 14.115 14.115 0 0 0-1.2.819l-1.111-.956a3.72 3.72 0 0 0-.3-.155 4.577 4.577 0 0 1-.851-.5c-.074-.058-.184-.14-.312-.237-1.448-1.08-3.046-2.368-3.656-3.986a29.177 29.177 0 0 1-1.156-5.2c-2.409-2.406-2.516-5.7-2.585-8.647-.046-1.927-.089-3.747-.766-4.993-1.914-3.516-5.292-5.115-9.851-6.989a38.937 38.937 0 0 0-5.271-1.605c-3.173-.8-6.454-1.637-9.582-3.87a26.393 26.393 0 0 1-6.106-6.811 28.758 28.758 0 0 0-4.082-5c-1.621-1.462-3.2-1.315-5.837-.932-.335.048-.683.09-1.028.135l-.174.486c-1.7 4.774-2.818 7.928-6.91 12.213a21.964 21.964 0 0 0-4.329 7.224z" transform="translate(-492.825 -245.531)" style="fill:#26498c"/>
        <text transform="translate(120.175 66.969)" style="fill:#fff;font-size:14px;font-family:NotoSansCJKkr-Medium,Noto Sans CJK KR;font-weight:500"><tspan x="0" y="0">홍천군</tspan></text>
    </g>
</svg>
