<svg xmlns="http://www.w3.org/2000/svg" width="45.348" height="26.081" viewBox="0 0 45.348 26.081">
    <g data-name="그룹 683">
        <path data-name="패스 1565" d="M776.823 163.055c-2 1.171-3.886 2.276-6.741 1.33a9.988 9.988 0 0 1-1.823-.846 2.262 2.262 0 0 0-2.461-.254 5.539 5.539 0 0 0-2.24 2.375c-1.173 1.784-3.133 4.769-7.226 2.817a8.439 8.439 0 0 1-2.279-1.8 4.71 4.71 0 0 0-1.771-1.35 8.456 8.456 0 0 0-3.282.273c-.358.073-.724.14-1.087.2a7.554 7.554 0 0 1-.967 1.861l-.351.479c-2.363 3.224-3.023 4.365-1.2 6.879.586.813 1.156 1.536 1.705 2.233 1.808 2.292 3.372 4.307 4.207 7.758a17.667 17.667 0 0 0 3.283-1.7c1.876-1.148 3.65-2.233 5.405-2.206l.7.01.491.5a11.929 11.929 0 0 0 2.218 1.972 9.488 9.488 0 0 0 2.05-1l.575-.322a7.563 7.563 0 0 1 4.314-.8c1.359.053 1.867.073 2.579-.967l.117-.168.152-.136c2.282-2.045 5.107-1.735 7.376-1.485a9.546 9.546 0 0 0 3.729-.036 12.988 12.988 0 0 0 3.507-2.134c.47-.354.954-.718 1.443-1.054.155-.106.3-.175.457-.271-.019-.087-.042-.174-.063-.262a161.361 161.361 0 0 0-4.763-16.017 59.733 59.733 0 0 0-7.505 3.811z" transform="translate(-744.347 -158.928)" style="fill:#26498c"/>
        <text transform="translate(6.339 19.061)" style="fill:#fff;font-size:12px;font-family:NotoSansCJKkr-Medium,Noto Sans CJK KR;font-weight:500"><tspan x="0" y="0">속초시</tspan></text>
    </g>
</svg>
