<svg xmlns="http://www.w3.org/2000/svg" width="120.804" height="113.753" viewBox="0 0 120.804 113.753">
    <g data-name="그룹 497">
        <path data-name="패스 1572" d="M527.1 107.817a12.953 12.953 0 0 1-2.3 2.448 15.519 15.519 0 0 0-1.276 1.2c-2.192 2.4-2 3.243-.126 6.112 3.442 5.272 3.5 9.695.161 12.133a7.811 7.811 0 0 1-3.556 1.26 6 6 0 0 0-1.9.517 2.631 2.631 0 0 0-1.029 1.214 8.891 8.891 0 0 1-1.2 1.707 5.885 5.885 0 0 1-5.636 2.093 4.1 4.1 0 0 0-1.965.121c-.783.278-.911.478-.948 2.6a17.669 17.669 0 0 1-.154 2.36c-.514 3.41-1.416 7.014-4.2 7.9a4.785 4.785 0 0 1-4.421-.831 4.54 4.54 0 0 0-.442-.273 2.679 2.679 0 0 0-.618.435c-.846.733-1.156 2.214-1.485 3.782a19.815 19.815 0 0 1-.742 2.834 7.939 7.939 0 0 1-3.04 3.8 5.9 5.9 0 0 0-1.576 1.546c-.2.609.331 2.716.648 3.982.7 2.773 1.412 5.642.109 7.6a3.79 3.79 0 0 1-2.695 1.643l.262-.058c-.834.246-1.733.426-2.6.6a21.95 21.95 0 0 0-3.344.851 12.644 12.644 0 0 0-2.991 1.908c-.559.43-1.131.859-1.725 1.251a22.155 22.155 0 0 1 2.651 6.859 32.547 32.547 0 0 1 .109 9.548c-.393 4.459-.732 8.311 1.811 11 1.565 1.654 4.949 2.77 8.22 3.851a54.156 54.156 0 0 1 6.953 2.663 10.575 10.575 0 0 1 2.822-5.336 9.485 9.485 0 0 1 4.653-1.775c.892-.167 2.385-.449 2.553-.822l.228-.509.46-.314c1.1-.75 1.349-1.209-1.271-5.144-1.814-2.724-4.074-6.116-2.609-9.661 1.134-2.745 2.783-4.334 4.9-4.723 4.258-.783 8.489 3.711 11.578 6.991.66.7 1.229 1.3 1.66 1.7l1.069.986a7.933 7.933 0 0 0 1.827.408 15.268 15.268 0 0 1 3.274.744c3.648 1.3 3.6 4.046 3.562 5.864a9.808 9.808 0 0 0 .117 2.175c.218 1.083.527 1.351.618 1.407.476.3 1.933-.07 3.1-.366 2.288-.579 5.134-1.3 7.575.459a16.541 16.541 0 0 1 1.718 1.46c1.1 1.035 1.362 1.281 2.739 1.006a8.069 8.069 0 0 0 2.575-1.313 11.46 11.46 0 0 1 3.987-1.9c8.085-1.662 10.613 4.387 12.643 9.248 0 0 .167.4.172.408.675 1.612 1.442 3.44 2.733 3.926.637.24 1.353 0 2.469-.414a8.572 8.572 0 0 1 3.1-.713 13.625 13.625 0 0 1 3.842.731 5.994 5.994 0 0 0 1.905.4s.449-.3.848-2.191a10 10 0 0 0-.29-3.719c-.38-1.922-.81-4.1.454-5.878a6.083 6.083 0 0 1 4.4-2.227c2.6-.36 5.223.566 7.76 1.462.849.3 1.669.584 2.449.811.111-.573.212-1.159.324-1.718.406-2.032.825-4.134 1.05-6.274.289-2.754-.385-3.656-1.86-5.637-.43-.578-.919-1.234-1.43-2.007-2.178-3.291-2.242-6.658-2.3-9.916-.015-.713-.028-1.451-.064-2.18a33.989 33.989 0 0 0-.461-3.582c-.453-2.782-.948-5.916-.017-8.825a14.285 14.285 0 0 1 .422-2.907 10.245 10.245 0 0 0 .382-2.981 11.519 11.519 0 0 0-1.949-4.376l-.156-.257a3.253 3.253 0 0 1-2.162-2.28c-2.442-2.479-2.239-7.293-2.06-10.9.038-.782.075-1.522.075-2.1V125.9a28.479 28.479 0 0 0-3.139-12.8 6.089 6.089 0 0 1-1.771-.038c-5.026-.892-8.307-8.3-13.162-9.182-4.95-.9-8.371 2.517-12.618 2.152-3.2-.274-3.08-1.442-6.6-.982-1.756.231-3.562 1.68-6.266 1.97-4.47.479-11.326.6-15.919.835-.311.018-.594-.025-.894-.038z" transform="translate(-478.309 -103.731)" style="fill:#26498c"/>
        <text transform="translate(45.691 63.769)" style="fill:#fff;font-size:14px;font-family:NotoSansCJKkr-Medium,Noto Sans CJK KR;font-weight:500"><tspan x="0" y="0">화천군</tspan></text>
    </g>
</svg>
