<svg xmlns="http://www.w3.org/2000/svg" width="131.674" height="130.509" viewBox="0 0 131.674 130.509">
    <g data-name="그룹 494">
        <path data-name="패스 1569" d="M511.374 206.676c-1.137 1.79-3.322 2.221-5.117 2.558a7.13 7.13 0 0 0-2.795.874c-.829.723-1.5 2.655-1.846 4.6.3.244.605.489.889.759a19.868 19.868 0 0 1 3.316 4.559 13.4 13.4 0 0 0 2.49 3.433 8.516 8.516 0 0 0 2.671 1.253 14.3 14.3 0 0 1 5.87 3.322c7.666 7.65 5.654 15.9 3.167 23.024-3.229 9.254-7.2 10.844-13.2 13.255-1.159.466-2.36.946-3.7 1.54-5.107 2.256-5.114 2.7-5.169 6.182a38.811 38.811 0 0 1-.478 6.13 8.511 8.511 0 0 1-2.625 4.539 4.206 4.206 0 0 0-1.113 1.483 6.706 6.706 0 0 0 .411 3.309 13 13 0 0 1 .633 5.371c-.791 6.3-2.75 8.753-5.69 11.567.316.134.63.261.941.388a12.339 12.339 0 0 1 5.451 3.513 12.114 12.114 0 0 1 6.628-2.884 7.7 7.7 0 0 1 7.457 3.763 13.277 13.277 0 0 1 1.8 6.025c.243 2.251.344 2.941 2.742 3.311.245-.23.5-.495.764-.779.99-1.074 2.222-2.411 4-2.421a4 4 0 0 1 2.966 1.415l-.227-.2c1.472 1.135 5.689.271 8.706-1.251a8.7 8.7 0 0 0 2.678-3.084 11.529 11.529 0 0 1 4.185-4.37c3.989-3.819 8.711-3.274 12.889-2.771a22.19 22.19 0 0 0 5.56.23 9.58 9.58 0 0 1 5.672 1.081 7.706 7.706 0 0 0 2.926.884c2.092.1 6.57-1.485 8.452-2.56l.765-.437.836.278.033.008c1.306-.5 2.658-6.768 2.126-8.66a22.953 22.953 0 0 0-2.917-5.732 24.683 24.683 0 0 1-3.673-7.787c-.044-.2-.108-.456-.181-.753-.642-2.606-1.613-6.543.67-8.475 2.01-1.7 4.495-.745 6.309-.046a7.79 7.79 0 0 0 2.229.647c1.554-.036 3.169-1.589 4.73-3.091 2.4-2.307 5.389-5.18 9.338-3.19 2.1 1.058 3.14 2.908 4.058 4.541 1.008 1.792 1.645 2.819 3.011 3.1a6.122 6.122 0 0 0 4.885-1.651 1.671 1.671 0 0 0 .516-1.743l-.306-1.075.762-.814a7.143 7.143 0 0 0 .893-2.743 17.469 17.469 0 0 1 .69-2.647 26.086 26.086 0 0 1 5.185-8.556c3.292-3.445 4.3-5.91 5.757-10l-.282-1.361a62.713 62.713 0 0 1-1.049-7.4 21.322 21.322 0 0 1 .156-4.167 15.491 15.491 0 0 0 .146-2.71l-.038-.444.154-.418c.127-.338.254-.746.393-1.177.551-1.739 1.267-3.962 2.888-5.44a15.234 15.234 0 0 1-.447-3.8 7.545 7.545 0 0 0-.654-3.712 2.9 2.9 0 0 0-2-1.286 5.71 5.71 0 0 0-4.126.876c-.528.38-.979.738-1.416 1.084-2.531 2.007-4.385 3.081-8.768 1.08-1.613-.735-6.2-3.782-6.683-7.085a3.994 3.994 0 0 1-.013-.488 48.486 48.486 0 0 1-2.741-.9c-2.09-.739-4.252-1.5-5.9-1.274-1.363.189-1.676.54-1.724.609-.28.392-.013 1.741.2 2.825a13.035 13.035 0 0 1 .28 5.295c-.326 1.555-.961 3.743-2.693 4.771-1.688 1-3.475.464-5.053-.01a10.172 10.172 0 0 0-2.745-.565 5.773 5.773 0 0 0-1.69.466 7.135 7.135 0 0 1-5.229.408c-2.882-1.085-4.1-3.979-4.985-6.1l-.169-.4c-2.173-5.2-3.525-7.869-8.211-6.906A8.264 8.264 0 0 0 553.37 209a11.233 11.233 0 0 1-3.969 1.887 6.189 6.189 0 0 1-6.21-2 13.144 13.144 0 0 0-1.323-1.134c-.883-.637-2.275-.349-4.3.165-2 .507-4.268 1.081-6.173-.119a5.688 5.688 0 0 1-2.382-3.967 13.5 13.5 0 0 1-.2-3.027c.033-1.728.015-1.735-.941-2.076a11.281 11.281 0 0 0-2.484-.549 9.84 9.84 0 0 1-5.082-1.929l-1.5-1.065.362-.594c-.22-.231-.436-.457-.678-.714-2.044-2.171-5.849-6.211-8-5.816-.892.164-1.563 1.368-1.968 2.351-.662 1.6.816 3.823 2.246 5.97 1.91 2.853 4.732 7.117.606 10.293z" transform="translate(-489.086 -188.037)" style="fill:#26498c"/>
        <text transform="translate(53.914 66.463)" style="fill:#fff;font-size:14px;font-family:NotoSansCJKkr-Medium,Noto Sans CJK KR;font-weight:500"><tspan x="0" y="0">춘천시</tspan></text>
    </g>
</svg>
