<svg xmlns="http://www.w3.org/2000/svg" width="126.454" height="109.174" viewBox="0 0 126.454 109.174">
    <g data-name="그룹 491">
        <path data-name="패스 1578" d="M552.95 419.9c-9.82 22.092-18.768 45.615-17.914 68.055.187.454.374.908.567 1.384 2 4.92 4.731 11.657 8.673 13.4 2.66 1.182 5.672.155 9.159-1.035 3.594-1.228 7.655-2.586 12.082-1.664 3.111-.2 6.321.752 9.43 1.688a45.531 45.531 0 0 0 5.229 1.339 38.225 38.225 0 0 0 .155-8.416c-.3-5.646-.632-12.045 3.66-17.035 4.23-4.919 9.931-7.2 15.642-6.266a16.416 16.416 0 0 1 12.5 10.262c.868 2.144 1.5 4.275 2.1 6.332 1.078 3.664 2.094 7.125 3.881 7.887 1 .432 3.147.451 7.687-1.888a33.856 33.856 0 0 0 5.093-3.59c3.728-2.964 7.956-6.319 12.931-5.592a11.245 11.245 0 0 1 6.011 3.077 12.072 12.072 0 0 1 5.857-5.268 10.856 10.856 0 0 1 4.79-.67c.108-.519.227-1.037.359-1.548a12.173 12.173 0 0 0 .573-3.707 13.817 13.817 0 0 0-3.5-7.568c-.7-.731-1.33-1.134-1.725-1.1-.867.067-2.211 2-3.192 3.413a25.772 25.772 0 0 1-2.5 3.216l-.592.613-.855-.014c-7.288-.114-11.63-1.948-12.981-5.437l-.466-.065-.362-1.224a14.318 14.318 0 0 1-.427-4.183c0-.64 0-1.257-.058-1.84-.874.05-1.725.135-2.541.246-3.258.447-6.94.935-9.816-4.323a23.067 23.067 0 0 0-2.172-1.5c-2.8-1.791-5.97-3.824-5.633-6.742v.446c-.523-4.66 2.108-10.383 7.27-11.51.627-.138 1.2-.223 1.707-.3 1.5-.222 2.178-.328 3.066-1.359.726-.844.726-.844.654-1.6-.036-.41-.09-.972-.088-1.708 0-2.669 1.33-4.524 2.5-6.157 1.009-1.41 1.806-2.522 1.788-4.005-.024-2.3-2.993-6.183-5.274-7.511a22.1 22.1 0 0 0-5.634-2.025 22.436 22.436 0 0 1-8.071-3.344c-2.607-1.9-5.018-2.334-7.811-2.834a34.508 34.508 0 0 1-5.829-1.422c-3.995-1.428-4.479-2.968-5.207-6.381-.1-.472-.181-1.092-.274-1.812a18.353 18.353 0 0 0-.973-4.526c-1.153.073-4.211 2.609-5.716 3.863a30.062 30.062 0 0 1-3.555 2.7c-.968 1.983-2.9 3.711-4.939 5.53-3.849 3.431-6.08 5.706-4.609 8.337l.333.6-.106.673a13.272 13.272 0 0 0-.066 1.939 9.779 9.779 0 0 1-.871 5.083l-.376.641-.705.235c-4.375 1.452-5.953-2.249-6.711-4.029a5.965 5.965 0 0 0-.995-1.822l-.749-.535-.073-.917c-.177-2.259-3.341-5.146-5.995-6.206a43.11 43.11 0 0 1-2.725 6.343c-.535 1.088-1.096 2.22-1.611 3.376z" transform="translate(-534.979 -394.09)" style="fill:#26498c"/>
        <text transform="translate(26.021 61.41)" style="fill:#fff;font-size:14px;font-family:NotoSansCJKkr-Medium,Noto Sans CJK KR;font-weight:500"><tspan x="0" y="0">원주시</tspan></text>
    </g>
</svg>
