<svg xmlns="http://www.w3.org/2000/svg" width="123.225" height="140.449" viewBox="0 0 123.225 140.449">
    <g data-name="그룹 484">
        <path data-name="패스 1567" d="M846.76 390.971c-.611 1.214-1.168 2.46-1.76 3.782-2.145 4.786-4.358 9.737-9 12.82-1.6 1.061-3.971 2.37-6.128 1.491-2.245-.915-2.8-3.509-3.293-5.8a10.547 10.547 0 0 0-1.224-3.7c-3.981-5.308-10.178-4.635-16.9-3.906-3.6.392-6.684-1.056-9.155-2.22-2.632-1.24-5.221-2.785-6.325-5.683-.088-.233-.143-.447-.205-.665-1.975 1.567-4.2 2.76-6.619 2.515-2.256-.228-4.256-1.639-6.115-4.312-1.167-1.68-2.424-2.567-3.365-2.378-.828.168-2.011 1.392-2.622 4.289a46.669 46.669 0 0 0-.646 4.78c-.406 4-.825 8.141-3.213 11.478a6.011 6.011 0 0 1-4.893 2.853 3.757 3.757 0 0 0-1.946.593c-1.016.673-.862 1.844-.1 4.384l.174.59c.107.376.239.761.376 1.167.568 1.681 1.211 3.589.307 5.324a4.547 4.547 0 0 1-2.926 2.189c-2.948.868-4.953-.7-6.416-1.853a7.959 7.959 0 0 0-1.756-1.161c-.687-.273-.887-.1-1.006 0-1.5 1.27-1.813 7.074-1.205 9.91.51 2.395 1.971 4.239 3.513 6.2 1.854 2.347 3.954 5.007 4.334 8.806a42.537 42.537 0 0 0 2.479 9.692c.63 1.845 1.283 3.754 1.811 5.781 1.4 5.386 4.493 17.346-1.148 22.829a15.76 15.76 0 0 1-.467 4.87 12.33 12.33 0 0 0-.4 3.079c.421 2.961 3 8.729 5.057 10.572a2.153 2.153 0 0 0 1.878.54 7.632 7.632 0 0 1 3.035.456c1.99.774 3.122 2.626 4.035 4.116.15.246.293.481.431.692.257.4.52.828.773 1.245 2.289 3.759 3.189 4.428 4.816 3.573l.216-.112.236-.057a11.546 11.546 0 0 1 7.775.938c.424.17.836.335 1.254.487a22.428 22.428 0 0 1 3.333-3.406c.488-.432.946-.838 1.286-1.175 2.711-2.71 4.912-3.275 8.529-3.46a20.033 20.033 0 0 1 9.115 1.4 12.057 12.057 0 0 1 3.052 2.142 8.208 8.208 0 0 0 2.108 1.525 5.064 5.064 0 0 0 2.114.33 5.459 5.459 0 0 1 4.859 2.274 16.276 16.276 0 0 1 1.592 2.323 5.856 5.856 0 0 0 2.234 2.508c3.19 1.84 7.445 2.335 11.558 2.814 1.344.156 2.612.3 3.845.5.248.038.491.068.748.1a13.477 13.477 0 0 1 1.658.291c.3-.293.6-.58.9-.859 1.681-1.582 3.008-2.833 3.247-5.347a15.352 15.352 0 0 0-1.195-6.062h-.385c0-.317.028-.574.035-.872a7.562 7.562 0 0 0-2.146-3.082s-.55-.371-.552-.375l-.213-.624c-.054-.154-.3-.641-.458-.961-.251-.5-.532-1.065-.732-1.565a137.4 137.4 0 0 1-5.315-16c-.185-.71-.468-1.522-.771-2.385a22.773 22.773 0 0 1-1.422-5.542 8.743 8.743 0 0 1 1.421-5.136 9.638 9.638 0 0 0 .94-2.075c.387-1.456-.386-2.869-1.687-5.061-1.381-2.327-3.1-5.225-2.551-8.854.8-5.207 4.908-8.572 8.537-11.542a81.686 81.686 0 0 0 2.069-1.726c2.221-1.935 3.437-4.686 4.724-7.6a36.464 36.464 0 0 1 3.326-6.343c3.171-4.536 6.821-4.165 9.757-3.87a8.559 8.559 0 0 0 4.59-.331 8.839 8.839 0 0 0 4.869-4.618 5.168 5.168 0 0 0-.316-4.133c-.286-.587-.6-1.115-.912-1.624a9.346 9.346 0 0 1-1.76-5.529 16.329 16.329 0 0 1 2.053-7.214 6.536 6.536 0 0 0-2.652-1.134 3.31 3.31 0 0 0-2.5.311l-.885.768-1.1-.415a8.928 8.928 0 0 0-2.05-.447 7.178 7.178 0 0 1-5-2.4 13.741 13.741 0 0 1-2.357-4.322 14.762 14.762 0 0 0-.924-2.056l-.2-.333-.058-.386c-.685-4.486-3.308-10.936-5.541-10.694a7.8 7.8 0 0 0-.216 2.445c.006.429.01.874-.009 1.29a18.734 18.734 0 0 1-2.259 8.343z" transform="translate(-750.51 -378.878)" style="fill:#26498c"/>
        <text transform="translate(30.49 73.622)" style="fill:#fff;font-size:14px;font-family:NotoSansCJKkr-Medium,Noto Sans CJK KR;font-weight:500"><tspan x="0" y="0">정선군</tspan></text>
    </g>
</svg>
