<svg xmlns="http://www.w3.org/2000/svg" width="137.413" height="189.462" viewBox="0 0 137.413 189.462">
    <g data-name="그룹 493">
        <path data-name="패스 1568" d="m656.726 218.74-1.159.317c-2.657.727-4.721-1.259-6.382-2.856-1.043-1-2.225-2.141-3.126-2.216a2.3 2.3 0 0 0-.765.028 6.882 6.882 0 0 0-.184 1.836c-.043 1.871-.1 4.432-2.409 5.92-1.843 1.186-4.055.533-6.007-.044-1.591-.469-3.235-.955-4.23-.4a10.773 10.773 0 0 0-2.3 1.87 9.039 9.039 0 0 1-6.145 3.169l-.913.071-.16-.164a12.81 12.81 0 0 0-1.311 3.153c-.112.354-.223.677-.335 1a21.9 21.9 0 0 1-.154 2.967 18.032 18.032 0 0 0-.154 3.395c.189 2.065.4 3.7.67 5.286a39.6 39.6 0 0 0 1.375-.183c2.8-.4 5.968-.865 9.043 1.906a32.225 32.225 0 0 1 4.67 5.661 23.051 23.051 0 0 0 5.169 5.866c2.524 1.8 5.312 2.51 8.262 3.259a42.116 42.116 0 0 1 5.8 1.78c4.259 1.749 9.085 3.732 11.816 8.75 1.135 2.082 1.192 4.475 1.245 6.785.074 3.1.228 5.072 1.749 6.269l1.177.926-.4.958a23.963 23.963 0 0 0 .96 4.393 7.711 7.711 0 0 0 2.325 2.218l.242.183a3.159 3.159 0 0 0 1.274-1.681l.2-1.059 1-.408a15.862 15.862 0 0 1 3.515-.891 15.668 15.668 0 0 0 2.071-.443c1.219-.384 1.231-.425 1.424-1.117a8.29 8.29 0 0 1 1.028-2.434 9.087 9.087 0 0 1 2.929-2.666 8.086 8.086 0 0 0 1.538-1.182 9.162 9.162 0 0 0 1.734-3.771c.095-.318.189-.645.293-.978l.364-1.169 1.209-.191c2.476-.392 5.321.99 7.807 3.792a14.33 14.33 0 0 1 3.655 7.5 35.516 35.516 0 0 1 5.535 1.743 23.793 23.793 0 0 0 6.312 1.777l-.533-.945.949-1.051a10.555 10.555 0 0 0 1.22-1.773c.9-1.525 2.023-3.423 5.271-3.881a10.28 10.28 0 0 1 2.592-.014 3.85 3.85 0 0 0 .692.033c.007 0 .293-.133.937-1.1a9.2 9.2 0 0 0 .629-1.514c.66-1.841 1.561-4.363 4.125-5.144 2.715-.828 5.207 1.076 6.91 2.772 2.329-1.886 4.734-3.5 7.077-5.05l.132-.089a20.5 20.5 0 0 1 .066-3.691c.06-.732.117-1.426.117-1.981 0-6.495 0-11.627 3.283-17.7a16.241 16.241 0 0 0 1.15-3.084 21.065 21.065 0 0 1 1.29-3.5 15.881 15.881 0 0 1 2.993-3.8 11.008 11.008 0 0 0 2.294-2.9c.449-1.085.093-1.953-.626-3.518-.245-.532-.5-1.084-.719-1.689-.252-.688-.456-1.433-.674-2.22-.458-1.67-.976-3.562-1.894-4.443a11.54 11.54 0 0 0-3.158-1.7 23.211 23.211 0 0 1-2.73-1.309 5.773 5.773 0 0 0-4.527-.961 4.241 4.241 0 0 1-3.759 1.014c-2.719-.638-4.352-3.915-5.592-7.035a19.75 19.75 0 0 1-1.024-11.53c.03-.16.074-.407.118-.694.394-2.453.821-4.565 2.064-5.563 1.3-1.048 3.253-.913 5.139-.782a12.167 12.167 0 0 0 1.556.053 8.873 8.873 0 0 0 6.12-3.246c-.787-2.907-2.174-4.684-4.03-7.041a79.043 79.043 0 0 1-2.076-2.715c-3.884-5.377-1.194-9.052 1.413-12.606l.4-.547c1.643-2.254.911-5.4.137-8.726-.269-1.165-.551-2.369-.724-3.543a40.951 40.951 0 0 1-.115-.9 22.737 22.737 0 0 0-.748-4.08 6.741 6.741 0 0 0-1.8 1.041c.4.337.718.6.72.6l-3.1 1.209a12.094 12.094 0 0 1-9.392.229l-.436-.175-.311-.352a18.277 18.277 0 0 1-2.024-3.026 12.533 12.533 0 0 0-1.864-2.708c-1.045-1.027-1.51-.911-3.24-.478a21.472 21.472 0 0 1-2.125.445l-.431.063-.416-.126c-7.645-2.286-5.928-8.958-4.791-13.373a16.41 16.41 0 0 0 .83-5.349c-.249-1.794-2.662-4.371-4.529-4.838a9.268 9.268 0 0 0-2.83.114c-2.222.288-5.468.671-7.293-1.967a3.008 3.008 0 0 1-1.4-1.56c-.662-1.735.4-3.495 1.527-5.358.5-.834 1.679-2.787 1.5-3.323-.005-.008-.187-.25-1.012-.48a4.674 4.674 0 0 0-1.927.029c-1.489.215-3.98.575-5.875-2.453a8.507 8.507 0 0 1-1.017-3.485c-.2-1.5-.341-2.03-.779-2.229l-.721-.328-.082-.208a105.541 105.541 0 0 1-22.18 10.712c.02.275.04.551.058.824a23.393 23.393 0 0 0 .643 4.712c.427.013.874.034 1.29.04 3.159.053 5.888.1 7.663 2.128 1.343 1.535 1.759 3.779 1.354 7.275a20.106 20.106 0 0 1-.873 3.7 13.517 13.517 0 0 0-.74 3.389c-.022.518-.02.993-.017 1.452.014 2.079.03 4.045-2.581 6.474a25.093 25.093 0 0 1-4.95 3.379c-3.354 1.9-5.112 3.045-5.266 6.44a23.466 23.466 0 0 0-.005 1.633c.041 1.975.087 4.216-2.157 6.363a11.067 11.067 0 0 1-2.157 1.59c-.809.481-1 .6-1.333 1.954l-.486 1.923c-.932 3.63-2.21 8.6-1.483 11.607.161.679.377 1.372.606 2.106a18.157 18.157 0 0 1 1.1 5.609 6.838 6.838 0 0 1-2.23 5.326 8.872 8.872 0 0 0-1.262 1.586c-.79 1.321-.358 2.129 1.189 4.291 1.277 1.781 2.865 4 2.624 7.011a17.6 17.6 0 0 1-.7 3.427 12.094 12.094 0 0 0-.6 3.309l.02 1.474a26.8 26.8 0 0 1-.44 6.45z" transform="translate(-620.953 -101.379)" style="fill:#26498c"/>
        <text transform="translate(54.047 120.121)" style="fill:#fff;font-size:14px;font-family:NotoSansCJKkr-Medium,Noto Sans CJK KR;font-weight:500"><tspan x="0" y="0">인제군</tspan></text>
    </g>
</svg>
