<svg xmlns="http://www.w3.org/2000/svg" width="133.734" height="147.14" viewBox="0 0 133.734 147.14">
    <g data-name="그룹 482">
        <path data-name="패스 1577" d="M926.542 419.781c-.623.362-1.251.719-1.871 1.071a69.653 69.653 0 0 0-7.115 4.417c-3.547 2.624-4.78 2.8-8.8 1.239-2.469-.957-3.256-1.068-5.334.053a35.783 35.783 0 0 0-4.706 3.249c-2.927 2.249-5.953 4.574-9.933 5.263-4.783.828-11.626 1.1-17.07-2.337-1.932-1.216-3.733-2.724-4.367-5.273a17.8 17.8 0 0 1-3.765-.1c-2.673-.269-4.284-.43-6.13 2.207a32.991 32.991 0 0 0-2.95 5.676c-1.4 3.182-2.86 6.469-5.744 8.983-.7.6-1.439 1.213-2.158 1.8-3.231 2.641-6.572 5.375-7.133 9.081-.343 2.236.816 4.187 2.041 6.252 1.381 2.326 2.943 4.96 2.1 8.093a13.052 13.052 0 0 1-1.289 2.949 5.037 5.037 0 0 0-.948 2.934 19.8 19.8 0 0 0 1.215 4.547c.331.941.638 1.828.863 2.7a133.534 133.534 0 0 0 5.162 15.532c.14.348.381.833.6 1.265.154.31.293.593.414.855.094.078.184.159.275.245.934-2.887 2.608-5.048 5.03-8.166 2.244-2.888 3.222-6.15 4.258-9.6.551-1.833 1.119-3.728 1.9-5.637l.279-.688c1.724-4.257 4.082-10.087 8.787-12.419 3.406-1.69 7.809-1.5 9.635 2.121a5.72 5.72 0 0 1 .438 3.015 4.681 4.681 0 0 0 0 .891 4.586 4.586 0 0 0 .536.267 6.3 6.3 0 0 1 1.783 1.075c3.269 2.955 2.848 4.678.839 7.01-.3.351-.646.751-1 1.219a4.232 4.232 0 0 0-.736 1.218 5.356 5.356 0 0 0 .257.631 13.459 13.459 0 0 1 .9 2.5c1.038 4.2-1.66 6.84-3.828 8.968-1.388 1.362-2.7 2.648-2.844 4.056l-.062.6-.39.463a5.463 5.463 0 0 0 .284.914c.069.183.141.377.212.584.255.742.565 1.426.892 2.149a12.8 12.8 0 0 1 1.538 6.142c-.04 1.041-.165 1.991-.289 2.907a12.738 12.738 0 0 0-.034 4.786c1.246 5.374 6.657 7.5 10.91 7.694 8.43.374 10.688 6.3 11.712 11.421a32.858 32.858 0 0 1 .5 5.306c.039 1.018.077 2.067.182 3.1a18.148 18.148 0 0 0 1.055 3.979c.173.511.346 1.03.511 1.553a16.675 16.675 0 0 1 6.923 1.752c4.272 1.95 6.81 5.864 9.054 9.319 2.092 3.226 3.9 6.013 6.561 6.832 4.971 1.534 6.413-.641 8.991-6.772a36.14 36.14 0 0 1 2.168-4.569c3.986-6.667 8.137-8.26 12.15-9.8a32.779 32.779 0 0 0 5.83-2.725 49.44 49.44 0 0 0 6.068-4.738 42.661 42.661 0 0 1 7.259-5.446 2.56 2.56 0 0 1 .258-.125c.335-.141.675-.242 1.015-.359-1.423-4.12 1.457-10.491 2.631-14.036 2.119-6.381.84-13.268-1.367-19.47-2.308-6.483-7.047-8.759-10.774-14.158-2.817-4.082-4.275-9.013-5.422-13.689-2.185-8.909-6.714-17.474-10.66-26.108-4.111-8.993-10.477-16.492-16.779-23.969-.194-.227-.345-.465-.518-.699z" transform="translate(-839.41 -419.781)" style="fill:#26498c"/>
        <text transform="translate(60.59 65.719)" style="fill:#fff;font-size:14px;font-family:NotoSansCJKkr-Medium,Noto Sans CJK KR;font-weight:500"><tspan x="0" y="0">삼척시</tspan></text>
    </g>
</svg>
