<svg xmlns="http://www.w3.org/2000/svg" width="141.642" height="119.922" viewBox="0 0 141.642 119.922">
    <g data-name="그룹 490">
        <path data-name="패스 1562" d="M547.714 388.892v.01c.17 1.178 2.037 2.9 3.686 4.409 2.624 2.41 5.6 5.141 6.4 9.046a14.407 14.407 0 0 1 .263 3.9c3.866 1.279 8.219 5.148 9.036 9.006a9.834 9.834 0 0 1 1.634 2.847 5.324 5.324 0 0 0 1 1.844 15.265 15.265 0 0 0 .091-2.194 22.1 22.1 0 0 1 .057-1.912c-2.463-5.3 2.231-9.51 5.71-12.611 1.818-1.622 3.7-3.3 4.163-4.639l.288-.834.816-.34a21.889 21.889 0 0 0 3.328-2.5c3.6-3 7.677-6.392 10.661-4.014 1.574 1.252 2.03 3.886 2.46 7.2.08.609.154 1.184.235 1.563.571 2.678.571 2.678 2.665 3.427a31.1 31.1 0 0 0 5.2 1.252c3 .538 6.1 1.093 9.438 3.532a19.176 19.176 0 0 0 6.747 2.715 25.473 25.473 0 0 1 6.623 2.431c2.986 1.741 7.181 6.719 7.229 10.872.033 2.775-1.326 4.67-2.528 6.346-.981 1.376-1.759 2.461-1.761 3.865 0 .552.038.972.071 1.345.152 1.645.046 2.626-1.59 4.531a7.8 7.8 0 0 1-5.472 2.689c-.466.07-.949.142-1.452.25-2.876.63-4.517 4.31-4.193 7.221l.027.222-.015.134c.254.765 2.664 2.31 3.833 3.057a19.951 19.951 0 0 1 2.963 2.136l.235.227.15.288c1.629 3.181 2.812 3.02 5.976 2.588a30.9 30.9 0 0 1 3.31-.324c1.454-3.623 4.53-7.355 8.235-7.525 1.349-.061 2.872.756 4.8 1.791 1.116.6 3.349 1.791 4.242 1.823l.2-.655.679-.391c1.064-.611 1.463-3.444 1.725-5.318.122-.869.237-1.686.405-2.4 1.287-5.425 2.854-9.309 4.664-11.54 2.927-3.614 7.035-3.3 10.336-3.041 2.256.175 4.385.34 5.914-.618l.634-.4.6.1c-.072-.285-.164-.59-.231-.821-.118-.4-.242-.808-.326-1.2a27.757 27.757 0 0 1-.362-7.263l.019-.454a28.135 28.135 0 0 0-.306-6.4 14.072 14.072 0 0 0-.51-1.667 8.032 8.032 0 0 1-.423-5.656c1.205-3.4 3.959-4.654 6.39-5.758a18.225 18.225 0 0 0 2.9-1.527c2.556-1.782 3.486-3.807 3.438-7.476a42.379 42.379 0 0 1 .682-6.9c.693-4.485 1.349-8.719-.9-12.24l1.16-.593-1.263.223 1.271-.65-1.438.255.094.408-.022.005a44.97 44.97 0 0 1-1.557-8.924 4.851 4.851 0 0 0-1.725-3.48c-.277-.3-.588-.639-.907-1.018-3.514 1.141-9.47-1.169-11.38-3.815a7.772 7.772 0 0 1-1.024-2.305 5.346 5.346 0 0 0-.421-1.1c-.139-.144-.232-.18-.758-.3a5.5 5.5 0 0 1-1.875-.722 14.576 14.576 0 0 1-2.873-2.621 9.14 9.14 0 0 0-2.53-2.209 12.913 12.913 0 0 0-2.513-.864 13.4 13.4 0 0 1-3.883-1.533 15.255 15.255 0 0 1-2.666-2.35c-1-1.03-2.036-2.1-2.894-2.219-.747-.108-1.219.3-2.283 1.393A11.619 11.619 0 0 1 646.67 342a9.211 9.211 0 0 1-4.392 1.447 5.686 5.686 0 0 0-2.273.588c-1.22.754-1.871 2.189-2.56 3.706-.822 1.811-1.753 3.863-3.905 4.625a6.363 6.363 0 0 1-4.466-.315l-.432.234-.762-.2c-.243-.064-.936.506-1.44.924a7.542 7.542 0 0 1-3.512 1.91c-1.987.332-5.131-.35-7.99-1.028a15.265 15.265 0 0 1-5.959-3.321c-1.8-1.423-3.1-2.3-4.727-2.38-1.469 1.917-2.105 5.676-2.053 8.628l.035 2.093-2.092-.091c-.864-.037-1.751-.1-2.691-.169-3.219-.235-6.868-.5-9.69.448-2.967 1-4.591 3.213-6.472 5.781-.4.546-.826 1.108-1.255 1.661a12.679 12.679 0 0 1-3.524 6.713l-.1.772-1.116.415c-.2.072-.39.118-.586.181a2.9 2.9 0 0 1 .082.612 2.957 2.957 0 0 1-1.035 2.313c-2.836 2.421-7.988 4.035-13.442 5.745-3.957 1.237-12.187 3.818-12.599 5.6z" transform="translate(-547.714 -339.109)" style="fill:#26498c"/>
        <text transform="translate(71.286 47.391)" style="fill:#fff;font-size:14px;font-family:NotoSansCJKkr-Medium,Noto Sans CJK KR;font-weight:500"><tspan x="0" y="0">횡성군</tspan></text>
    </g>
</svg>
