<svg xmlns="http://www.w3.org/2000/svg" width="55.577" height="88.82" viewBox="0 0 55.577 88.82">
    <g data-name="그룹 483">
        <path data-name="패스 1566" d="M850.055 521.338c-.522.492-1.007.977-1.458 1.476l-.728 1.426c-2.323 4.533-4.518 8.811-4.12 13.885.126 1.606.185 3.479.245 5.465.117 3.828.267 8.4 1 11.475.294-.2.571-.375.884-.589 1.139-.778 2.32-1.582 3.531-2.291a4.232 4.232 0 0 0 1.77-1.515c1.2-1.866 2.508-2.479 6.078-2.844 2.2-.227 4.9.746 7.758 1.776a29.29 29.29 0 0 0 3.9 1.231 72.355 72.355 0 0 1 7.6 2.045c4.634 1.408 10.982 3.334 13.681 2.694 2.021-.476 3.293-1.665 4.768-3.041a16.174 16.174 0 0 1 4.308-3.165 53.88 53.88 0 0 0-.365-1.093 21.333 21.333 0 0 1-1.252-4.868c-.115-1.155-.158-2.267-.2-3.345a29.306 29.306 0 0 0-.425-4.68c-1.162-5.81-3.338-8.048-8.021-8.256-7.419-.332-13.139-4.549-14.574-10.743a16.163 16.163 0 0 1-.035-6.195c.115-.867.223-1.684.258-2.542a9.285 9.285 0 0 0-1.193-4.363c-.35-.775-.712-1.577-1.028-2.495a13.078 13.078 0 0 0-.179-.493 4.605 4.605 0 0 1 .047-4.32c.478-2.515 2.285-4.314 3.9-5.9 2.082-2.044 3.234-3.29 2.761-5.205a9.525 9.525 0 0 0-.665-1.824c-.892-1.979-.974-3.289.906-5.822.434-.585.846-1.064 1.173-1.445.163-.187.325-.38.459-.549a8.662 8.662 0 0 0-.954-.964 3.133 3.133 0 0 0-.736-.394 4.628 4.628 0 0 1-2.361-1.893 5.32 5.32 0 0 1-.514-3.091 3.551 3.551 0 0 0-.024-1.023c-.834-1.654-3.43-.821-4.36-.361-3.364 1.668-5.4 6.7-6.885 10.366l-.28.7c-.71 1.735-1.249 3.538-1.772 5.282-1.094 3.647-2.226 7.417-4.925 10.89-3.315 4.264-4.75 6.154-5.023 10.729a19.377 19.377 0 0 1 1.505 8.028c-.363 3.989-2.536 6.037-4.455 7.841z" transform="translate(-843.702 -466.878)" style="fill:#26498c"/>
        <text transform="translate(7.298 76.622)" style="fill:#fff;font-size:14px;font-family:NotoSansCJKkr-Medium,Noto Sans CJK KR;font-weight:500"><tspan x="0" y="0">태백시</tspan></text>
    </g>
</svg>
