<svg xmlns="http://www.w3.org/2000/svg" width="53.487" height="53.258" viewBox="0 0 53.487 53.258">
    <g data-name="그룹 486">
        <path data-name="패스 1576" d="M904.689 378.939a7.384 7.384 0 0 0-4.225 5.147 21.071 21.071 0 0 0-.541 4.4c-.25 4.256-.594 10.082-6.883 11.345a11.34 11.34 0 0 1-4.776-.217 7.221 7.221 0 0 0-3.841-.083 17.5 17.5 0 0 0-2.518 1.085c-1.806.889-3.824 1.875-6.154 1.6a12.73 12.73 0 0 0-1.354 5.066 5.63 5.63 0 0 0 1.188 3.41c.339.558.722 1.191 1.088 1.944a9.09 9.09 0 0 1 .477 7.2 12.2 12.2 0 0 1-6.043 6.416c.209 1.2.957 2.046 2.714 3.154 4.383 2.765 10.193 2.5 14.293 1.788 3.024-.525 5.539-2.46 8.2-4.506a39.472 39.472 0 0 1 5.238-3.592c3.619-1.954 5.766-1.371 8.629-.26 2.647 1.027 2.647 1.027 5.025-.733a72.851 72.851 0 0 1 7.518-4.679c.631-.357 1.25-.712 1.866-1.065-3.107-7.637.142-16.528-4.432-24.48-3.225-5.6-7.717-8.962-10.811-13.319a8.627 8.627 0 0 0-4.658.379z" transform="translate(-871.107 -378.406)" style="fill:#26498c"/>
        <text transform="translate(8.893 37.094)" style="fill:#fff;font-size:14px;font-family:NotoSansCJKkr-Medium,Noto Sans CJK KR;font-weight:500"><tspan x="0" y="0">동해시</tspan></text>
    </g>
</svg>
