<svg xmlns="http://www.w3.org/2000/svg" width="139.844" height="179.448" viewBox="0 0 139.844 179.448">
    <g data-name="그룹 489">
        <path data-name="패스 1563" d="M779.424 304.572c-.716-1.984-2.733-4.382-5.4-6.414l.207.137a2.932 2.932 0 0 1-.449-.333 2.312 2.312 0 0 0-.6.457l-.5.641-.8.106c-3.121.416-6.562 6.382-8.214 9.247l-.143.248c-1.274 2.208-2.592 4.491-2.925 6.788a15.583 15.583 0 0 0-.07 2.564 12.914 12.914 0 0 1-.621 5.175 6.057 6.057 0 0 1-3.4 3.822c-2.457.895-4.973-.487-7.194-1.706a15.535 15.535 0 0 0-3-1.4c-3.537-.93-4.513.617-6.4 5.279-.31.764-.631 1.554-.986 2.328-3.357 7.305-8.822 7.552-14.109 7.791l-3.017.166c-4.772.282-9.709.576-14.556-.624l-.976-.242c-5.926-1.489-8.38-2.1-11.579 2.993-.86 1.369-1.7 2.987-2.583 4.7-1.7 3.29-3.462 6.672-5.772 9.1a4.853 4.853 0 0 1-.151.944c.332.42.667.788 1.013 1.161a8.648 8.648 0 0 1 2.766 5.779 41.9 41.9 0 0 0 1.335 7.885c2.8 4.692 2.011 9.958 1.291 14.623a38.451 38.451 0 0 0-.636 6.249c.042 3.316-.5 7.536-5.126 10.761a21.448 21.448 0 0 1-3.527 1.884c-2.337 1.06-3.688 1.744-4.3 3.485-.3.861-.049 1.672.428 3.032a17.122 17.122 0 0 1 .648 2.163 31.048 31.048 0 0 1 .387 7.366l-.016.458a24.268 24.268 0 0 0 .278 6.281c.051.243.147.562.247.9.077.263.158.548.235.837.408.1.811.2 1.239.3 2.872.663 5.845 1.351 8.283 3.105 3.827 2.752 4.221 6.892 4.568 10.547.053.566.1 1.1.166 1.643a42.869 42.869 0 0 0 1.072 5.15 30.787 30.787 0 0 1 1.311 8.59l-.039.627c-.335 5.29.193 6.812.478 7.242a1.8 1.8 0 0 0 .2-.08l.215-.1.231-.046c4.119-.823 5.752 1.061 6.943 2.437a4.407 4.407 0 0 0 2.349 1.729c1.886.507 4.9-3.264 5.866-5.992a17.725 17.725 0 0 0 .684-2.876c.446-2.468.955-5.268 4.289-7.4 5.215-3.336 10.637-2.72 13.491 1.532l.391.579-.063.7a17.029 17.029 0 0 1-1.549 5.332c-.24.556-.456 1.092-.646 1.626a11.464 11.464 0 0 0 2.054.56c2.068.422 4.64.95 6.4 3.676l.137.212.081.242a12.482 12.482 0 0 0 2.311 3.6 23.5 23.5 0 0 0 3.172-.171c3.056-.292 6.469-.6 8.247 1.423a24.353 24.353 0 0 1 6.4 4.029l.011.006c3.3-4.3.678-14.395-.385-18.48-.49-1.886-1.118-3.725-1.724-5.5a46.147 46.147 0 0 1-2.673-10.574c-.266-2.653-1.767-4.555-3.5-6.758-1.675-2.117-3.57-4.521-4.275-7.814-.561-2.624-1.011-10.758 2.512-13.742a4.732 4.732 0 0 1 5-.66 10.991 10.991 0 0 1 2.741 1.728c1.386 1.085 1.951 1.441 2.871 1.17a1.757 1.757 0 0 0 .533-.229 7.3 7.3 0 0 0-.54-2.239c-.143-.43-.293-.874-.425-1.333l-.165-.552c-.671-2.24-1.92-6.406 1.7-8.8a7.518 7.518 0 0 1 3.705-1.226 2.239 2.239 0 0 0 2.1-1.228c1.779-2.483 2.145-6.091 2.5-9.58a49.05 49.05 0 0 1 .708-5.2c.867-4.107 2.943-6.782 5.7-7.341 1.509-.3 4.479-.194 7.385 3.993 1.144 1.647 2.245 2.536 3.274 2.639 1.329.133 3.1-.9 5.576-3.267l.851.891a12.081 12.081 0 0 1 .7-1.384 4.556 4.556 0 0 0 .771-1.944l.06-.745.536-.517a11.894 11.894 0 0 0 1.219-1.651c1.064-1.6 2.389-3.589 4.441-4.3a8.4 8.4 0 0 1 4.211-.134c1.279.2 1.975.278 2.632-.176 1.712-1.185 1.813-3.37 1.779-6.826a17.363 17.363 0 0 1 .815-6.773 21.622 21.622 0 0 1 4.464-6.273c1.633-1.792 3.177-3.484 3.863-5.516a8.52 8.52 0 0 0-.178-4.511 18.078 18.078 0 0 1-.458-6.167 10.793 10.793 0 0 0-.293-4.31c-.366-.907-.859-1.161-2.04-1.7a11.17 11.17 0 0 1-2.176-1.211 11.338 11.338 0 0 1-3.293-4.337 23.477 23.477 0 0 0-.6-1.122 57.004 57.004 0 0 1-.451-.825c-.634-1.17-2.111-3.912-3.1-4.378-.828-.388-2.357.011-3.708.362a20.11 20.11 0 0 1-2.173.48c-3.01.417-5.378-.933-7.281-2.017-1.94-1.107-3.107-1.709-4.462-1.22a6.513 6.513 0 0 0-1.448.861c-1.26.891-3.368 2.384-6.252.627-4.256-2.6-2.809-6.7-1.85-9.42.502-1.407 1.002-2.843.726-3.624z" transform="translate(-678.873 -297.962)" style="fill:#26498c"/>
        <text transform="translate(38.127 82.538)" style="fill:#fff;font-size:14px;font-family:NotoSansCJKkr-Medium,Noto Sans CJK KR;font-weight:500"><tspan x="0" y="0">평창군</tspan></text>
    </g>
</svg>
