<svg xmlns="http://www.w3.org/2000/svg" width="105.483" height="98.185" viewBox="0 0 105.483 98.185">
    <g data-name="그룹 488">
        <path data-name="패스 1573" d="M797.025 182.455a18.132 18.132 0 0 1-5.236 3.081 14.287 14.287 0 0 1-5.949.2c-2.528-.278-4.153-.387-5.407.686-2.011 2.658-4.393 2.594-6.151 2.527a5.141 5.141 0 0 0-2.927.436l-.652.364c-4.222 2.369-5.478 2.306-8.938-1.072a19.048 19.048 0 0 0-3.509 1.837c-2.319 1.419-5.095 3.079-7.509 2.419a12.641 12.641 0 0 1-7.974 3.853 13.594 13.594 0 0 1-2.259-.039 12.588 12.588 0 0 0-2.354-.02 17.717 17.717 0 0 0-.682 3.056c-.054.322-.1.6-.143.825a15.754 15.754 0 0 0 .821 9.319c1.144 2.878 1.951 3.964 2.407 4.383l1.374-.487a9.571 9.571 0 0 1 8.445 1.152 19.406 19.406 0 0 0 2.262 1.069 14.1 14.1 0 0 1 4.34 2.487c1.7 1.634 2.377 4.083 2.97 6.246.193.707.377 1.375.575 1.91.164.457.372.913.6 1.4.811 1.758 1.815 3.948.687 6.673a13.809 13.809 0 0 1-3.1 4.131 12.86 12.86 0 0 0-2.3 2.826 17.789 17.789 0 0 0-1.038 2.872 19.434 19.434 0 0 1-1.46 3.829c-2.675 4.949-2.806 9.031-2.806 15.818 0 .716-.065 1.487-.131 2.3a24.8 24.8 0 0 0-.119 2.662 27.094 27.094 0 0 1 2.871 2.23 13.67 13.67 0 0 0 3.3 2.365c.982.316 1.73-.118 3.326-1.263a9.622 9.622 0 0 1 4.267-2.053c5.587-.751 9.4 3.538 12.464 6.984.837.942 1.639 1.845 2.416 2.586a25.425 25.425 0 0 1 4.208-.711c.769-.084 1.5-.162 2.234-.282 2.277-.372 2.277-.372 3.194-2.3l.277-.577c1.577-3.265 3.624-5.283 6.085-5.995 2.535-.734 5.334-.113 8.561 1.9.381.238.726.469 1.03.671 1.6 1.072 1.808 1.209 3.3.475a7.719 7.719 0 0 0 1.828-1.685 8.145 8.145 0 0 1 4.214-3.007 6.137 6.137 0 0 1 4.76 1.158 3.137 3.137 0 0 0 1.754.708 6.317 6.317 0 0 0 2.637-1.445 17.373 17.373 0 0 1 2.073-1.344c2.126-2.861 6.753-1.626 10.518-.617a19.283 19.283 0 0 0 4.285.879 10.022 10.022 0 0 0 2.005-.569 102.03 102.03 0 0 1-6.094-9.132c-4.946-8.6-4.874-17.388-11.159-25.005-6.455-7.827-11.08-18.188-17.267-26.763-5.434-7.536-7.976-15.89-10.114-24.542-.27.196-.529.378-.81.591z" transform="translate(-736.984 -181.863)" style="fill:#26498c"/>
        <text transform="translate(33.016 53.637)" style="fill:#fff;font-size:14px;font-family:NotoSansCJKkr-Medium,Noto Sans CJK KR;font-weight:500"><tspan x="0" y="0">양양군</tspan></text>
    </g>
</svg>
