<svg xmlns="http://www.w3.org/2000/svg" width="129.569" height="79.62" viewBox="0 0 129.569 79.62">
    <g data-name="그룹 498">
        <path data-name="패스 1575" d="M395.083 107.332c1.046 3.484-.11 6.257-1.039 8.485-.667 1.6-1.067 2.635-.881 3.607.415 2.17 1.764 2.862 4.779 4.221 3.19 1.437 7.558 3.407 9.839 9.032.677 1.671 1.277 3.569 1.91 5.578 1.84 5.832 3.925 12.442 8.387 14.895 2.92 1.605 5.188.359 9.272-2.172 2.766-1.716 5.9-3.659 9.707-4.176a2.958 2.958 0 0 1 3.114 1.757c2.939 6.8.449 12.288-1.745 17.135-.339.745-.665 1.469-.973 2.189a23 23 0 0 1 4.665 5.609 20.583 20.583 0 0 0 2.923 3.754c5.819-6.006 14.269-8.839 21.836-7.1a17.68 17.68 0 0 1 9.1 5.207c.527-.333 1.079-.748 1.652-1.187a15.965 15.965 0 0 1 4-2.469 25.364 25.364 0 0 1 3.958-1.027c.82-.165 1.6-.32 2.259-.517l.128-.039.134-.02c.014 0 .008 0 .02-.005.246-.717-.342-3.082-.667-4.381-.672-2.685-1.307-5.222-.187-7.006a9.566 9.566 0 0 1 2.552-2.619 4.119 4.119 0 0 0 1.731-2.031 16.658 16.658 0 0 0 .58-2.271c.427-2.036.911-4.347 2.76-5.952 2.846-2.47 4.87-1.11 5.843-.456.646.434.715.444 1.017.348.161-.1.909-.748 1.512-4.748a14.4 14.4 0 0 0 .108-1.821c.034-2 .086-5.016 3.573-6.251a7.872 7.872 0 0 1 3.667-.329 2.124 2.124 0 0 0 2.368-.859 5.258 5.258 0 0 0 .668-.988 6.445 6.445 0 0 1 2.509-2.677 9.215 9.215 0 0 1 3.178-.971 4.687 4.687 0 0 0 1.883-.557c2.072-1.513-.346-5.582-1.136-6.793-2.557-3.919-3.232-6.821.516-10.926a18.532 18.532 0 0 1 1.6-1.51c.175-.154.318-.3.481-.442-2.907-1.084-5.559-2.59-8.369-2.182-4.115.6-8.693 6.377-13.931 6.293-3.711-.061-2.881-1.391-5.26-2.478-1.824-.834-5.475-1.731-7.227-2.63-3.933-2.021-5.374-6.066-11.206-6.606-2.952-.275-7.237 1.35-10.481 1.348-3.583 0-6.98-1.82-10-1.824-8.4-.01-6.633 6.817-14.986 2.352-8.048-4.3-12.452-1.642-21.013-1.187-6 .317-13.055-4.386-18.286-1.2.373 3.367-3.08 5.743-7.206 7.582.133.332.259.666.364 1.015z" transform="translate(-393.117 -97.626)" style="fill:#26498c"/>
        <text transform="translate(46.883 38.874)" style="fill:#fff;font-size:14px;font-family:NotoSansCJKkr-Medium,Noto Sans CJK KR;font-weight:500"><tspan x="0" y="0">철원군</tspan></text>
    </g>
</svg>
