<svg xmlns="http://www.w3.org/2000/svg" width="236.427" height="60.845" viewBox="0 0 236.427 60.845">
    <g data-name="그룹 557">
        <path data-name="패스 1565" d="m213.25 185.574-35.113-35.113a12.886 12.886 0 0 0-18.211 0l-35.114 35.113a12.866 12.866 0 1 0 18.2 18.195l21.567-21.569c.706-.631 4.86-4 8.972.108l.014-.025 21.492 21.491a12.865 12.865 0 1 0 18.193-18.195z" style="fill:#003b86" transform="translate(-121.043 -146.693)"/>
        <path data-name="패스 1566" d="m283.507 185.574-35.114-35.113a12.886 12.886 0 0 0-18.211 0l-35.114 35.113a12.866 12.866 0 0 0 18.2 18.195l21.568-21.569c.706-.631 4.86-4 8.971.108l.015-.025 21.49 21.491a12.866 12.866 0 1 0 18.195-18.195z" style="fill:#e88c00" transform="translate(-121.043 -146.693)"/>
        <path data-name="패스 1567" d="m353.7 185.574-35.114-35.113a12.885 12.885 0 0 0-18.21 0l-35.113 35.113a12.865 12.865 0 1 0 18.194 18.195L305.03 182.2c.706-.631 4.862-4 8.971.108l.016-.025 21.49 21.491a12.865 12.865 0 1 0 18.193-18.2z" style="fill:#3a9c67" transform="translate(-121.043 -146.693)"/>
    </g>
</svg>
