<svg xmlns="http://www.w3.org/2000/svg" width="34.598" height="248.502" viewBox="0 0 34.598 248.502">
    <g data-name="그룹 575">
        <g data-name="그룹 572">
            <path data-name="패스 1692" d="M257.188 74.569c0 4.258-2.491 7.146-7.1 8.4l-1.068-2.129c3.185-.825 4.884-2.359 5.248-4.175h-4.489v-2.1zm4.473 11.321c0 1.98-2.145 3.251-5.281 3.251-3.152 0-5.3-1.271-5.3-3.251 0-2 2.145-3.268 5.3-3.268 3.136 0 5.281 1.271 5.281 3.268zm-2.642 0c0-.842-.956-1.221-2.639-1.221-1.7 0-2.657.379-2.657 1.221 0 .825.958 1.2 2.657 1.2 1.683.004 2.639-.375 2.639-1.2zm4.407-8.862v2.162h-1.931v3.217h-2.673v-8.795h2.673v3.416z" style="fill:#1a1311" transform="translate(-231.733 -51.049)"/>
            <path data-name="패스 1693" d="M262.767 104.337v2.1h-11.784v-4.653h2.064v-1.919a68.163 68.163 0 0 1-3.565.083l-.313-2.08a81.184 81.184 0 0 0 9.752-.478l.181 1.881c-1.122.2-2.276.33-3.416.429v2.855h-2.061v1.782zm-12.542-9.9c0-1.634 1.617-2.789 3.877-2.789 2.278 0 3.9 1.155 3.9 2.789 0 1.667-1.617 2.805-3.9 2.805-2.26-.001-3.877-1.142-3.877-2.806zm2.525 0c0 .61.56.875 1.352.875.826 0 1.371-.265 1.371-.875 0-.594-.545-.858-1.371-.858-.792-.001-1.352.263-1.352.857zm7.013 5.644v-8.912h2.673v11.716h-2.673v-1.007h-2.773v-1.8z" style="fill:#1a1311" transform="translate(-231.733 -51.049)"/>
            <path data-name="패스 1694" d="M253.674 117.652a4 4 0 1 1 4.306-3.993 4.085 4.085 0 0 1-4.306 3.993zm8.862 4.241v2.1h-10.892v-5.3h2.673v3.2zm-8.862-6.534a1.7 1.7 0 1 0-1.7-1.7 1.584 1.584 0 0 0 1.7 1.7zm8.5 4.406H259.5v-11.024h2.673z" style="fill:#1a1311" transform="translate(-231.733 -51.049)"/>
            <path data-name="패스 1695" d="M262.733 126.281v15.479h-2.525v-7.574h-.825v6.93h-2.475v-4.274l-1.155 1.535a5.964 5.964 0 0 1-2.673-3.169 6.294 6.294 0 0 1-2.657 3.747l-1.584-2.014c2.36-1.419 2.871-4.208 2.871-7.1h-2.31v-2.128h6.964v2.128H254.3c0 2.525.511 4.984 2.607 6.321V126.5h2.475v5.562h.825v-5.776z" style="fill:#1a1311" transform="translate(-231.733 -51.049)"/>
            <path data-name="패스 1696" d="M260.077 153.012v1.156h1.484v5.164h-2.672v-3.1h-8.136v-2.062h1.534v-1.156H249.2v-2.079h14.01v2.079zm-9.556-5.809c0-1.9 2.279-3.069 5.694-3.069s5.693 1.172 5.693 3.069c0 1.915-2.277 3.087-5.693 3.087s-5.694-1.172-5.694-3.09zm2.756 0c0 .743 1.024 1.057 2.938 1.057s2.937-.314 2.937-1.057c0-.725-1.023-1.056-2.937-1.056s-2.938.331-2.938 1.053zm4.142 5.809h-2.475v1.156h2.475z" style="fill:#1a1311" transform="translate(-231.733 -51.049)"/>
            <path data-name="패스 1697" d="M257.287 170.057a5.375 5.375 0 0 1-3.25-2.69 5.81 5.81 0 0 1-3.646 3.152L249 168.39a4.815 4.815 0 0 0 3.631-4.934v-1.287h2.722v1.155a4.405 4.405 0 0 0 3.285 4.654zm5.066 3.779c0 1.947-2.079 3.069-5.379 3.069-3.317 0-5.4-1.122-5.4-3.069 0-1.931 2.079-3.053 5.4-3.053 3.3 0 5.379 1.117 5.379 3.053zm-2.672 0c0-.727-.875-1.023-2.707-1.023-1.848 0-2.723.3-2.723 1.023 0 .743.875 1.039 2.723 1.039 1.832 0 2.707-.296 2.707-1.039zm-.067-7.723h-2.524v-2.129h2.524v-2.574h2.673v9.009h-2.673z" style="fill:#1a1311" transform="translate(-231.733 -51.049)"/>
            <path data-name="패스 1698" d="M257.932 187.448a53.189 53.189 0 0 1-8.5.545l-.248-2.13h1.416V182h-1.056v-2.1h8.2v2.1h-1.056v3.614c.364-.032.742-.065 1.089-.115zm4.421 4.092c0 1.849-2.062 2.938-5.379 2.938-3.332 0-5.4-1.089-5.4-2.938 0-1.881 2.064-2.97 5.4-2.97 3.317 0 5.379 1.089 5.379 2.97zm-9.191-5.725.974-.034V182h-.974zm6.519 5.725c0-.693-.859-.956-2.707-.956-1.865 0-2.723.263-2.723.956 0 .661.858.941 2.723.941 1.848 0 2.707-.281 2.707-.941zm-.067-5.164h-1.4v-2.1h1.4v-.89h-1.4v-2.1h1.4v-2.327h2.673v9.406h-2.673z" style="fill:#1a1311" transform="translate(-231.733 -51.049)"/>
            <path data-name="패스 1699" d="M255.621 205.17a4.883 4.883 0 0 1-2.541-2.278 5.329 5.329 0 0 1-2.822 2.805l-1.386-2.062a4.653 4.653 0 0 0 2.854-4.588v-1.634h2.591v1.634a4.1 4.1 0 0 0 2.393 3.961V196.8h2.475v3.267h.776v-3.564h2.525v9.423h-2.525v-3.747h-.776v3.267h-2.475v-1.814zm6.931 3.894c0 1.832-2.146 2.97-5.429 2.97-3.268 0-5.413-1.138-5.413-2.97 0-1.848 2.145-2.987 5.413-2.987 3.283 0 5.429 1.139 5.429 2.987zm-2.674 0c0-.693-.941-.991-2.755-.991-1.8 0-2.739.3-2.739.991 0 .676.94.973 2.739.973 1.814 0 2.755-.297 2.755-.973z" style="fill:#1a1311" transform="translate(-231.733 -51.049)"/>
            <path data-name="패스 1700" d="M263.245 225.712v2.13H249.2v-2.13h2.69v-4.752h2.623v4.752h1.187v-4.752h2.624v4.752zm-4.274-2.013a37.127 37.127 0 0 0 .528-6.353h-8.978v-2.1h11.651v1.4a41.447 41.447 0 0 1-.528 7.311z" style="fill:#1a1311" transform="translate(-231.733 -51.049)"/>
            <path data-name="패스 1701" d="M260.077 240.794v1.154h1.484v5.165h-2.672v-3.1h-8.136v-2.064h1.534v-1.154H249.2v-2.08h14.01v2.08zm-9.556-5.81c0-1.9 2.279-3.069 5.694-3.069s5.693 1.172 5.693 3.069c0 1.914-2.277 3.086-5.693 3.086s-5.694-1.17-5.694-3.086zm2.756 0c0 .744 1.024 1.057 2.938 1.057s2.937-.313 2.937-1.057c0-.725-1.023-1.055-2.937-1.055s-2.938.33-2.938 1.055zm4.142 5.81h-2.475v1.154h2.475z" style="fill:#1a1311" transform="translate(-231.733 -51.049)"/>
            <path data-name="패스 1702" d="M257.618 258.565a5.744 5.744 0 0 1-3.467-2.774 5.74 5.74 0 0 1-3.613 3.02l-1.369-2.062a4.663 4.663 0 0 0 3.6-4.473H249.9V250.2h8.4v2.079h-2.805a4.478 4.478 0 0 0 3.482 4.225zm4.918 3.778v2.1h-10.892v-5.116h2.673v3.02zm-.364-2.063H259.5v-11.09h2.673z" style="fill:#1a1311" transform="translate(-231.733 -51.049)"/>
            <path data-name="패스 1703" d="M263.228 274.9v2.03H249.2v-2.03zm-.676-5.181h-12.723v-1.981h5.049v-1.105h2.674v1.105h5zm-.952 10.131c0 1.584-1.981 2.425-5.43 2.425-3.432 0-5.412-.841-5.412-2.425 0-1.6 1.98-2.443 5.412-2.443 3.444 0 5.43.842 5.43 2.443zm-5.385-9.85c3.4 0 5.28.76 5.28 2.228 0 1.452-1.881 2.212-5.28 2.212s-5.281-.76-5.281-2.212c0-1.47 1.882-2.228 5.281-2.228zm2.657 9.852c0-.429-.727-.545-2.707-.545-1.964 0-2.689.116-2.689.545 0 .413.725.528 2.689.528 1.98-.002 2.707-.117 2.707-.53zm-2.657-8.07c-1.749 0-2.426.082-2.426.446 0 .346.677.445 2.426.445s2.426-.1 2.426-.445c0-.366-.677-.448-2.426-.448z" style="fill:#1a1311" transform="translate(-231.733 -51.049)"/>
            <path data-name="패스 1704" d="M262.767 297.455v2.1h-11.784V294.9h2.064v-1.914a68.11 68.11 0 0 1-3.565.082l-.313-2.078a80.782 80.782 0 0 0 9.752-.479l.181 1.882c-1.122.2-2.276.33-3.416.428v2.856h-2.061v1.781zm-12.542-9.9c0-1.634 1.617-2.789 3.877-2.789 2.278 0 3.9 1.155 3.9 2.789 0 1.667-1.617 2.8-3.9 2.8-2.26.004-3.877-1.133-3.877-2.8zm2.525 0c0 .61.56.874 1.352.874.826 0 1.371-.264 1.371-.874 0-.594-.545-.859-1.371-.859-.792.004-1.352.265-1.352.859zm7.013 5.643v-8.911h2.673V296h-2.673v-1h-2.773v-1.8z" style="fill:#1a1311" transform="translate(-231.733 -51.049)"/>
        </g>
        <g data-name="그룹 573">
            <path data-name="패스 1705" d="M240.544 75.651a3.089 3.089 0 0 1 3.38 3.1 2.724 2.724 0 0 1-.83 2l-.82-.69a1.7 1.7 0 0 0 .541-1.267c0-1.073-.838-1.825-2.227-1.825-1.406 0-2.253.646-2.253 1.913a1.3 1.3 0 0 0 .245.812h1.274v-1.143h1.057v2.3h-2.917a3.043 3.043 0 0 1-.777-2.1 3.009 3.009 0 0 1 3.327-3.1z" style="fill:#868585" transform="translate(-231.733 -51.049)"/>
            <path data-name="패스 1706" d="M238.666 82.148c1.048 0 1.6.848 1.809 2.812.48-.017.846-.227.846-.829a2.769 2.769 0 0 0-.462-1.345l.847-.463a3.915 3.915 0 0 1 .646 2.044c0 1.24-.743 1.877-2.157 1.877h-2.856V85.2l.524-.1v-.026a2.3 2.3 0 0 1-.646-1.476 1.389 1.389 0 0 1 1.449-1.45zm.036 2.812h.987c-.158-1.187-.481-1.589-.918-1.589-.384 0-.55.271-.55.646a1.291 1.291 0 0 0 .479.943z" style="fill:#868585" transform="translate(-231.733 -51.049)"/>
            <path data-name="패스 1707" d="M242.229 87.815v1.048l-.646.088v.035a2.256 2.256 0 0 1 .769 1.589c0 1.057-.734 1.511-1.965 1.511h-3.048V90.8h2.891c.751 0 1.021-.209 1.021-.69a1.405 1.405 0 0 0-.55-1.022h-3.362v-1.273z" style="fill:#868585" transform="translate(-231.733 -51.049)"/>
            <path data-name="패스 1708" d="M236.475 93.352a1.186 1.186 0 0 1 1.012.7h.045a.923.923 0 0 1 .82-.445 1.214 1.214 0 0 1 .917.541h.035a1.619 1.619 0 0 1 1.275-.646 1.8 1.8 0 0 1 1.773 1.974 2.3 2.3 0 0 1-.123.733v1.764h-.942v-.838a1.234 1.234 0 0 1-.743.227 1.67 1.67 0 0 1-1.659-1.886 2.1 2.1 0 0 1 .113-.629.486.486 0 0 0-.418-.21c-.263 0-.4.192-.4.768v.83c0 1.179-.367 1.817-1.222 1.817-.987 0-1.738-1.022-1.738-2.655-.003-1.155.39-2.045 1.255-2.045zm.261 3.475c.35 0 .437-.288.437-.812v-.594a2.758 2.758 0 0 1 .07-.682.737.737 0 0 0-.567-.322c-.411 0-.647.454-.647 1.17 0 .733.323 1.24.707 1.24zm3.843-.594c.577 0 .9-.323.9-.759s-.322-.769-.9-.769a.793.793 0 0 0-.9.769c.001.426.321.759.9.759z" style="fill:#868585" transform="translate(-231.733 -51.049)"/>
            <path data-name="패스 1709" d="M242.229 98.625v1.284l-2.418.533c-.473.1-.943.157-1.424.244v.035c.481.1.961.184 1.424.306l2.418.585v1.144l-2.418.611c-.473.114-.943.2-1.424.306v.044c.481.087.951.148 1.424.244l2.418.533v1.188l-4.89-1.205v-1.512l2.131-.515c.463-.1.908-.183 1.424-.279v-.044c-.516-.1-.97-.166-1.424-.271l-2.131-.5v-1.464z" style="fill:#868585" transform="translate(-231.733 -51.049)"/>
            <path data-name="패스 1710" d="M239.775 106.5a2.358 2.358 0 1 1-2.558 2.349 2.388 2.388 0 0 1 2.558-2.349zm0 3.388c.926 0 1.529-.375 1.529-1.039s-.6-1.039-1.529-1.039-1.51.375-1.51 1.039.593 1.041 1.51 1.041z" style="fill:#868585" transform="translate(-231.733 -51.049)"/>
            <path data-name="패스 1711" d="M242.229 112.536v1.048l-.646.087v.035a2.256 2.256 0 0 1 .769 1.589c0 1.057-.734 1.511-1.965 1.511h-3.048v-1.283h2.891c.751 0 1.021-.21 1.021-.691a1.405 1.405 0 0 0-.55-1.021h-3.362v-1.275z" style="fill:#868585" transform="translate(-231.733 -51.049)"/>
            <path data-name="패스 1712" d="M243.8 120.744v1.292h-6.463v-1.292z" style="fill:#868585" transform="translate(-231.733 -51.049)"/>
            <path data-name="패스 1713" d="M242.229 123.782v1.048l-.646.088v.034a2.256 2.256 0 0 1 .769 1.59c0 1.057-.734 1.51-1.965 1.51h-3.048v-1.283h2.891c.751 0 1.021-.209 1.021-.69a1.4 1.4 0 0 0-.55-1.021h-3.362v-1.276z" style="fill:#868585" transform="translate(-231.733 -51.049)"/>
            <path data-name="패스 1714" d="m237.907 129.179.8.585a2.128 2.128 0 0 0-.533 1.309c0 .49.21.708.516.708.367 0 .532-.507.733-1.021.236-.62.612-1.337 1.424-1.337.882 0 1.5.717 1.5 1.817a2.737 2.737 0 0 1-.6 1.668l-.777-.576a1.881 1.881 0 0 0 .419-1.058c0-.436-.192-.646-.471-.646-.359 0-.489.48-.681 1-.244.646-.568 1.362-1.476 1.362-.856 0-1.546-.672-1.546-1.947a3.079 3.079 0 0 1 .692-1.864z" style="fill:#868585" transform="translate(-231.733 -51.049)"/>
            <path data-name="패스 1715" d="M239.051 134.209h2.166v-.69h.951l.061.751 1.311.148v1.074h-1.311v1.208h-1.012v-1.205h-2.166c-.559 0-.822.227-.822.664a1.409 1.409 0 0 0 .106.48l-.935.21a3.147 3.147 0 0 1-.183-1.031c0-1.165.734-1.609 1.834-1.609z" style="fill:#868585" transform="translate(-231.733 -51.049)"/>
            <path data-name="패스 1716" d="M242.229 137.954v1.276h-4.89v-1.276zm1.485-.122a.767.767 0 1 1-.7.769.714.714 0 0 1 .7-.769z" style="fill:#868585" transform="translate(-231.733 -51.049)"/>
            <path data-name="패스 1717" d="M239.051 141.054h2.166v-.69h.951l.061.751 1.311.149v1.074h-1.311v1.205h-1.012v-1.205h-2.166c-.559 0-.822.227-.822.664a1.414 1.414 0 0 0 .106.48l-.935.209a3.135 3.135 0 0 1-.183-1.03c0-1.161.734-1.607 1.834-1.607z" style="fill:#868585" transform="translate(-231.733 -51.049)"/>
            <path data-name="패스 1718" d="M239.173 144.748h3.056v1.283h-2.891c-.758 0-1.021.21-1.021.681a1.178 1.178 0 0 0 .612 1h3.3v1.284h-4.89v-1.048l.7-.1v-.035a1.967 1.967 0 0 1-.82-1.563c-.002-1.05.732-1.502 1.954-1.502z" style="fill:#868585" transform="translate(-231.733 -51.049)"/>
            <path data-name="패스 1719" d="M239.051 150.808h2.166v-.69h.951l.061.751 1.311.148v1.075h-1.311v1.2h-1.012v-1.2h-2.166c-.559 0-.822.226-.822.663a1.4 1.4 0 0 0 .106.48l-.935.21a3.145 3.145 0 0 1-.183-1.03c0-1.162.734-1.607 1.834-1.607z" style="fill:#868585" transform="translate(-231.733 -51.049)"/>
            <path data-name="패스 1720" d="M239.775 154.082a2.394 2.394 0 0 1 2.577 2.279c0 1.346-.987 2.044-2.341 2.044a2.384 2.384 0 0 1-.585-.061v-3.012a1.284 1.284 0 0 0-1.222 1.353 2.015 2.015 0 0 0 .34 1.1l-.786.437a3.084 3.084 0 0 1-.541-1.712 2.369 2.369 0 0 1 2.558-2.428zm.5 3.223c.663 0 1.083-.3 1.083-.926a1.1 1.1 0 0 0-1.083-1.065z" style="fill:#868585" transform="translate(-231.733 -51.049)"/>
            <path data-name="패스 1721" d="M243.313 164.579a1.6 1.6 0 0 0 .1-.516c0-.384-.227-.593-.768-.593h-.42v.916h-1.012v-.916h-3.878v-1.285h3.878v-.654h.951l.053.654h.4a1.587 1.587 0 0 1 1.808 1.7 2.567 2.567 0 0 1-.175.925z" style="fill:#868585" transform="translate(-231.733 -51.049)"/>
            <path data-name="패스 1722" d="M239.775 165.067a2.358 2.358 0 1 1-2.558 2.35 2.389 2.389 0 0 1 2.558-2.35zm0 3.389c.926 0 1.529-.375 1.529-1.039s-.6-1.04-1.529-1.04-1.51.376-1.51 1.04.593 1.039 1.51 1.039z" style="fill:#868585" transform="translate(-231.733 -51.049)"/>
            <path data-name="패스 1723" d="M242.229 171.1v1.048l-.864.087v.035a1.7 1.7 0 0 1 .987 1.389 1.384 1.384 0 0 1-.105.576l-1.109-.227a1.55 1.55 0 0 0 .079-.507c0-.383-.254-.846-.962-1.126h-2.916V171.1z" style="fill:#868585" transform="translate(-231.733 -51.049)"/>
            <path data-name="패스 1724" d="M242.727 178.8v-1.817h1.073v4.943h-1.075V180.1h-5.388v-1.3z" style="fill:#868585" transform="translate(-231.733 -51.049)"/>
            <path data-name="패스 1725" d="M238.666 182.234c1.048 0 1.6.847 1.809 2.812.48-.018.846-.227.846-.829a2.779 2.779 0 0 0-.462-1.346l.847-.462a3.915 3.915 0 0 1 .646 2.043c0 1.24-.743 1.878-2.157 1.878h-2.856v-1.048l.524-.1v-.027a2.3 2.3 0 0 1-.646-1.475 1.389 1.389 0 0 1 1.449-1.446zm.036 2.812h.987c-.158-1.188-.481-1.589-.918-1.589-.384 0-.55.271-.55.646a1.293 1.293 0 0 0 .479.943z" style="fill:#868585" transform="translate(-231.733 -51.049)"/>
            <path data-name="패스 1726" d="M238.71 187.9h5.6v1.276h-5.66c-.288 0-.384.138-.384.262a.735.735 0 0 0 .017.173l-.951.158a1.733 1.733 0 0 1-.114-.664c-.001-.889.582-1.205 1.492-1.205z" style="fill:#868585" transform="translate(-231.733 -51.049)"/>
            <path data-name="패스 1727" d="M239.775 190.607a2.4 2.4 0 0 1 2.577 2.281c0 1.344-.987 2.043-2.341 2.043a2.434 2.434 0 0 1-.585-.061v-3.014a1.287 1.287 0 0 0-1.222 1.355 2.02 2.02 0 0 0 .34 1.1l-.786.436a3.076 3.076 0 0 1-.541-1.711 2.37 2.37 0 0 1 2.558-2.429zm.5 3.224c.663 0 1.083-.3 1.083-.926a1.1 1.1 0 0 0-1.083-1.066z" style="fill:#868585" transform="translate(-231.733 -51.049)"/>
            <path data-name="패스 1728" d="M242.229 196.249v1.051l-.646.087v.035a2.258 2.258 0 0 1 .769 1.59c0 1.056-.734 1.511-1.965 1.511h-3.048v-1.285h2.891c.751 0 1.021-.209 1.021-.689a1.407 1.407 0 0 0-.55-1.022h-3.362v-1.275z" style="fill:#868585" transform="translate(-231.733 -51.049)"/>
            <path data-name="패스 1729" d="M239.051 202.292h2.166v-.69h.951l.061.751 1.311.148v1.074h-1.311v1.205h-1.012v-1.205h-2.166c-.559 0-.822.228-.822.664a1.42 1.42 0 0 0 .106.481l-.935.209a3.147 3.147 0 0 1-.183-1.031c0-1.161.734-1.606 1.834-1.606z" style="fill:#868585" transform="translate(-231.733 -51.049)"/>
            <path data-name="패스 1730" d="M237.217 213.557a5.226 5.226 0 0 1 .681-1.608 3.125 3.125 0 0 1-.681-1.982 1.883 1.883 0 0 1 1.834-2.113 2.143 2.143 0 0 1 1.833 1.213 3.063 3.063 0 0 1 1.4-.41 1.611 1.611 0 0 1 1.641 1.7 1.366 1.366 0 0 1-1.406 1.5c-.855 0-1.389-.7-1.869-1.389a8.267 8.267 0 0 0-1.345 1.4 4.877 4.877 0 0 0 1.642.795v1.161a7.086 7.086 0 0 1-2.219-1.091 3.934 3.934 0 0 0-.462 1.144zm.987-3.433a1.753 1.753 0 0 0 .322.943 9.276 9.276 0 0 1 1.512-1.458 1.246 1.246 0 0 0-.908-.533.945.945 0 0 0-.93 1.048zm3.214-.165c.306.506.62.9 1.091.9.323 0 .559-.149.559-.489 0-.375-.3-.646-.785-.646a2.006 2.006 0 0 0-.865.235z" style="fill:#868585" transform="translate(-231.733 -51.049)"/>
            <path data-name="패스 1731" d="M243.8 215.1v1.292h-5.38v2.62h-1.083V215.1z" style="fill:#868585" transform="translate(-231.733 -51.049)"/>
            <path data-name="패스 1732" d="M242.229 220.3v1.275h-4.89V220.3zm1.485-.122a.767.767 0 0 1 0 1.528.767.767 0 0 1 0-1.528z" style="fill:#868585" transform="translate(-231.733 -51.049)"/>
            <path data-name="패스 1733" d="M243.313 225.824a1.585 1.585 0 0 0 .1-.514c0-.385-.227-.6-.768-.6h-.42v.918h-1.012v-.918h-3.878v-1.283h3.878v-.656h.951l.053.656h.4a1.586 1.586 0 0 1 1.808 1.7 2.573 2.573 0 0 1-.175.926z" style="fill:#868585" transform="translate(-231.733 -51.049)"/>
            <path data-name="패스 1734" d="M239.775 226.314a2.394 2.394 0 0 1 2.577 2.279c0 1.345-.987 2.043-2.341 2.043a2.435 2.435 0 0 1-.585-.061v-3.013a1.284 1.284 0 0 0-1.222 1.353 2.024 2.024 0 0 0 .34 1.1l-.786.436a3.082 3.082 0 0 1-.541-1.712 2.369 2.369 0 0 1 2.558-2.425zm.5 3.221c.663 0 1.083-.3 1.083-.926a1.1 1.1 0 0 0-1.083-1.064z" style="fill:#868585" transform="translate(-231.733 -51.049)"/>
            <path data-name="패스 1735" d="M238.71 231.954h5.6v1.275h-5.66c-.288 0-.384.14-.384.262a.746.746 0 0 0 .017.175l-.951.157a1.729 1.729 0 0 1-.114-.664c-.001-.89.582-1.205 1.492-1.205z" style="fill:#868585" transform="translate(-231.733 -51.049)"/>
            <path data-name="패스 1736" d="M239.775 234.661a2.358 2.358 0 1 1-2.558 2.349 2.388 2.388 0 0 1 2.558-2.349zm0 3.389c.926 0 1.529-.376 1.529-1.04s-.6-1.039-1.529-1.039-1.51.376-1.51 1.039.593 1.04 1.51 1.04z" style="fill:#868585" transform="translate(-231.733 -51.049)"/>
            <path data-name="패스 1737" d="M242.229 240.694v1.049l-.646.087v.035a2.256 2.256 0 0 1 .769 1.589c0 1.057-.734 1.511-1.965 1.511h-3.048v-1.283h2.891c.751 0 1.021-.21 1.021-.691a1.4 1.4 0 0 0-.55-1.021h-3.362v-1.276z" style="fill:#868585" transform="translate(-231.733 -51.049)"/>
            <path data-name="패스 1738" d="M236.475 246.231a1.185 1.185 0 0 1 1.012.7h.045a.924.924 0 0 1 .82-.446 1.214 1.214 0 0 1 .917.541h.035a1.616 1.616 0 0 1 1.275-.646 1.8 1.8 0 0 1 1.773 1.974 2.292 2.292 0 0 1-.123.733v1.765h-.942v-.839a1.228 1.228 0 0 1-.743.227 1.67 1.67 0 0 1-1.659-1.886 2.1 2.1 0 0 1 .113-.628.483.483 0 0 0-.418-.21c-.263 0-.4.192-.4.768v.829c0 1.18-.367 1.817-1.222 1.817-.987 0-1.738-1.022-1.738-2.655-.003-1.154.39-2.044 1.255-2.044zm.261 3.475c.35 0 .437-.287.437-.811v-.595a2.747 2.747 0 0 1 .07-.682.735.735 0 0 0-.567-.323c-.411 0-.647.455-.647 1.17 0 .735.323 1.241.707 1.241zm3.843-.594c.577 0 .9-.322.9-.759s-.322-.769-.9-.769a.793.793 0 0 0-.9.769c.001.428.321.759.9.759z" style="fill:#868585" transform="translate(-231.733 -51.049)"/>
            <path data-name="패스 1739" d="M243.8 254.378v3.965h-1.075v-2.673h-1.493v2.27h-1.083v-2.27h-1.729v2.769h-1.083v-4.061z" style="fill:#868585" transform="translate(-231.733 -51.049)"/>
            <path data-name="패스 1740" d="M239.775 259.521a2.3 2.3 0 0 1 2.577 2.052 1.684 1.684 0 0 1-.533 1.241l.768-.053h1.722v1.284h-6.97v-1.04l.507-.105v-.026a2.025 2.025 0 0 1-.629-1.353c0-1.214.96-2 2.558-2zm-.995 3.24h2.148a1.3 1.3 0 0 0 .368-.908c0-.551-.525-1.013-1.5-1.013-1.013 0-1.52.366-1.52 1.013a1.089 1.089 0 0 0 .504.908z" style="fill:#868585" transform="translate(-231.733 -51.049)"/>
            <path data-name="패스 1741" d="M239.173 265.633h3.056v1.284h-2.891c-.758 0-1.021.209-1.021.681a1.179 1.179 0 0 0 .612 1h3.3v1.284h-4.89v-1.049l.7-.1v-.033a1.965 1.965 0 0 1-.82-1.563c-.002-1.05.732-1.504 1.954-1.504z" style="fill:#868585" transform="translate(-231.733 -51.049)"/>
            <path data-name="패스 1742" d="M239.775 271.2a2.442 2.442 0 0 1 2.577 2.5 2.132 2.132 0 0 1-.542 1.423l-.829-.611a1.117 1.117 0 0 0 .323-.751c0-.742-.6-1.249-1.529-1.249s-1.51.507-1.51 1.214a1.523 1.523 0 0 0 .392.952l-.847.506a2.425 2.425 0 0 1-.593-1.6 2.337 2.337 0 0 1 2.558-2.384z" style="fill:#868585" transform="translate(-231.733 -51.049)"/>
            <path data-name="패스 1743" d="M238.666 276.024c1.048 0 1.6.847 1.809 2.812.48-.017.846-.227.846-.829a2.772 2.772 0 0 0-.462-1.345l.847-.463a3.915 3.915 0 0 1 .646 2.043c0 1.24-.743 1.878-2.157 1.878h-2.856v-1.048l.524-.1v-.027a2.3 2.3 0 0 1-.646-1.476 1.389 1.389 0 0 1 1.449-1.445zm.036 2.812h.987c-.158-1.188-.481-1.589-.918-1.589-.384 0-.55.271-.55.647a1.292 1.292 0 0 0 .479.942z" style="fill:#868585" transform="translate(-231.733 -51.049)"/>
            <path data-name="패스 1744" d="M239.051 281.709h2.166v-.69h.951l.061.752 1.311.148v1.073h-1.311v1.208h-1.012v-1.206h-2.166c-.559 0-.822.228-.822.664a1.414 1.414 0 0 0 .106.481l-.935.21a3.148 3.148 0 0 1-.183-1.032c0-1.163.734-1.608 1.834-1.608z" style="fill:#868585" transform="translate(-231.733 -51.049)"/>
            <path data-name="패스 1745" d="M242.229 285.455v1.275h-4.89v-1.275zm1.485-.123a.768.768 0 1 1-.7.769.714.714 0 0 1 .7-.769z" style="fill:#868585" transform="translate(-231.733 -51.049)"/>
            <path data-name="패스 1746" d="M239.775 288.065a2.358 2.358 0 1 1-2.558 2.349 2.389 2.389 0 0 1 2.558-2.349zm0 3.389c.926 0 1.529-.376 1.529-1.04s-.6-1.039-1.529-1.039-1.51.376-1.51 1.039.593 1.04 1.51 1.04z" style="fill:#868585" transform="translate(-231.733 -51.049)"/>
            <path data-name="패스 1747" d="M242.229 294.1v1.047l-.646.088v.035a2.254 2.254 0 0 1 .769 1.589c0 1.057-.734 1.511-1.965 1.511h-3.048v-1.284h2.891c.751 0 1.021-.21 1.021-.689a1.406 1.406 0 0 0-.55-1.023h-3.362V294.1z" style="fill:#868585" transform="translate(-231.733 -51.049)"/>
        </g>
        <g data-name="그룹 574">
            <path data-name="패스 1748" d="M241.345 53.637a2.59 2.59 0 1 1-2.59-2.588 2.591 2.591 0 0 1 2.59 2.588z" style="fill:#00397b" transform="translate(-231.733 -51.049)"/>
            <path data-name="패스 1749" d="m245.227 63.043-5.139-5.143a1.887 1.887 0 0 0-2.665 0l-5.138 5.139a1.882 1.882 0 1 0 2.662 2.662l3.157-3.157a.914.914 0 0 1 1.312.016l3.145 3.145a1.883 1.883 0 1 0 2.663-2.662z" style="fill:#00397b" transform="translate(-231.733 -51.049)"/>
            <path data-name="패스 1750" d="M251.625 53.637a2.589 2.589 0 1 1-2.588-2.588 2.589 2.589 0 0 1 2.588 2.588z" style="fill:#dd870d" transform="translate(-231.733 -51.049)"/>
            <path data-name="패스 1751" d="m255.508 63.043-5.14-5.139a1.886 1.886 0 0 0-2.664 0l-5.139 5.139a1.883 1.883 0 0 0 2.663 2.662l3.157-3.157a.915.915 0 0 1 1.313.016l3.146 3.145a1.882 1.882 0 1 0 2.662-2.662z" style="fill:#dd870d" transform="translate(-231.733 -51.049)"/>
            <path data-name="패스 1752" d="M261.9 53.637a2.589 2.589 0 1 1-2.588-2.588 2.589 2.589 0 0 1 2.588 2.588z" style="fill:#3b9366" transform="translate(-231.733 -51.049)"/>
            <path data-name="패스 1753" d="m265.779 63.043-5.138-5.143a1.887 1.887 0 0 0-2.665 0l-5.138 5.139a1.882 1.882 0 0 0 2.662 2.662l3.157-3.157a.915.915 0 0 1 1.313.016l3.144 3.145a1.883 1.883 0 0 0 2.663-2.662z" style="fill:#3b9366" transform="translate(-231.733 -51.049)"/>
        </g>
    </g>
</svg>
