<?xml version="1.0" encoding="utf-8"?>
<!-- Generator: Adobe Illustrator 16.0.0, SVG Export Plug-In . SVG Version: 6.00 Build 0)  -->
<!DOCTYPE svg PUBLIC "-//W3C//DTD SVG 1.1//EN" "http://www.w3.org/Graphics/SVG/1.1/DTD/svg11.dtd">
<svg version="1.1" id="레이어_1" xmlns="http://www.w3.org/2000/svg" xmlns:xlink="http://www.w3.org/1999/xlink" x="0px"
	 y="0px" width="500px" height="350px" viewBox="0 0 500 350" enable-background="new 0 0 500 350" xml:space="preserve">
<g>
	<g>
		<g>
			<path d="M86.438,182.096c0,7.729-4.522,12.971-12.879,15.247l-1.947-3.864c5.781-1.498,8.865-4.283,9.525-7.578h-8.148v-3.805
				H86.438z M94.556,202.645c0,3.594-3.894,5.9-9.585,5.9c-5.721,0-9.615-2.307-9.615-5.9c0-3.625,3.895-5.931,9.615-5.931
				C90.662,196.714,94.556,199.02,94.556,202.645z M89.764,202.645c0-1.528-1.738-2.217-4.793-2.217
				c-3.086,0-4.822,0.688-4.822,2.217c0,1.498,1.736,2.187,4.822,2.187C88.025,204.831,89.764,204.143,89.764,202.645z
				 M97.761,186.56v3.924h-3.505v5.841h-4.853v-15.966h4.853v6.201H97.761z"/>
			<path d="M124.121,204.262v3.804h-21.387v-8.446h3.744v-3.475c-2.276,0.119-4.492,0.149-6.47,0.149l-0.569-3.774
				c5.092-0.029,11.861-0.09,17.703-0.868l0.329,3.415c-2.036,0.359-4.134,0.599-6.2,0.778v5.182h-3.744v3.235H124.121z
				 M101.357,186.29c0-2.966,2.936-5.063,7.039-5.063c4.133,0,7.068,2.097,7.068,5.063c0,3.024-2.936,5.092-7.068,5.092
				C104.293,191.382,101.357,189.314,101.357,186.29z M105.939,186.29c0,1.107,1.019,1.587,2.457,1.587
				c1.497,0,2.485-0.479,2.485-1.587c0-1.079-0.988-1.559-2.485-1.559C106.958,184.731,105.939,185.211,105.939,186.29z
				 M118.67,196.533v-16.175h4.853v21.268h-4.853v-1.827h-5.032v-3.266H118.67z"/>
			<path d="M135.176,196.563c-4.373,0-7.818-3.085-7.818-7.249c0-4.193,3.445-7.248,7.818-7.248s7.818,3.055,7.818,7.248
				C142.994,193.479,139.549,196.563,135.176,196.563z M151.262,204.262v3.804h-19.77v-9.614h4.852v5.811H151.262z M135.176,192.4
				c1.737,0,3.086-1.049,3.086-3.086c0-2.066-1.349-3.085-3.086-3.085s-3.086,1.019-3.086,3.085
				C132.09,191.352,133.438,192.4,135.176,192.4z M150.602,200.397h-4.852v-20.009h4.852V200.397z"/>
			<path d="M179.18,180.358v28.097h-4.583v-13.748H173.1v12.58h-4.494v-7.758l-2.096,2.785c-2.307-1.258-3.865-3.265-4.854-5.751
				c-0.869,2.936-2.396,5.302-4.822,6.8l-2.875-3.654c4.283-2.576,5.211-7.639,5.211-12.88h-4.193v-3.864h12.641v3.864h-3.744
				c0,4.583,0.929,9.046,4.732,11.472v-17.553h4.494v10.095h1.497v-10.484H179.18z"/>
			<path d="M201.916,197.013v2.097h2.695v9.376h-4.852v-5.631h-14.768v-3.745h2.785v-2.097h-5.601v-3.773h25.431v3.773H201.916z
				 M184.572,186.47c0-3.445,4.135-5.572,10.334-5.572c6.201,0,10.335,2.127,10.335,5.572c0,3.475-4.134,5.601-10.335,5.601
				C188.707,192.07,184.572,189.944,184.572,186.47z M189.575,186.47c0,1.348,1.856,1.917,5.331,1.917s5.332-0.569,5.332-1.917
				c0-1.318-1.857-1.917-5.332-1.917S189.575,185.151,189.575,186.47z M197.094,197.013h-4.493v2.097h4.493V197.013z"/>
			<path d="M224.412,196.085c-2.845-0.929-4.732-2.637-5.9-4.883c-1.229,2.636-3.354,4.673-6.619,5.721l-2.517-3.864
				c5.062-1.557,6.59-5.361,6.59-8.956v-2.336h4.942v2.097c0,3.595,1.318,7.009,5.961,8.447L224.412,196.085z M233.609,202.943
				c0,3.535-3.775,5.572-9.766,5.572c-6.021,0-9.795-2.037-9.795-5.572c0-3.504,3.773-5.541,9.795-5.541
				C229.834,197.402,233.609,199.439,233.609,202.943z M228.756,202.943c0-1.317-1.588-1.856-4.912-1.856
				c-3.355,0-4.942,0.539-4.942,1.856c0,1.349,1.587,1.888,4.942,1.888C227.168,204.831,228.756,204.292,228.756,202.943z
				 M228.637,188.926h-4.584v-3.864h4.584v-4.673h4.852v16.354h-4.852V188.926z"/>
			<path d="M253.141,195.785c-5.093,0.868-10.994,0.988-15.427,0.988l-0.449-3.864h2.575V185.9h-1.916v-3.805h14.887v3.805h-1.917
				v6.56c0.659-0.06,1.349-0.119,1.978-0.21L253.141,195.785z M261.168,203.214c0,3.354-3.744,5.331-9.766,5.331
				c-6.051,0-9.795-1.977-9.795-5.331c0-3.415,3.744-5.393,9.795-5.393C257.424,197.821,261.168,199.799,261.168,203.214z
				 M244.483,192.819l1.767-0.06V185.9h-1.767V192.819z M256.314,203.214c0-1.259-1.557-1.737-4.912-1.737
				c-3.385,0-4.941,0.479-4.941,1.737c0,1.198,1.557,1.707,4.941,1.707C254.758,204.921,256.314,204.412,256.314,203.214z
				 M256.195,193.838h-2.546v-3.804h2.546v-1.618h-2.546v-3.804h2.546v-4.224h4.853v17.074h-4.853V193.838z"/>
			<path d="M276.506,196.085c-2.157-0.869-3.625-2.307-4.613-4.134c-1.019,2.246-2.666,4.043-5.122,5.092l-2.517-3.744
				c4.014-1.768,5.182-5.122,5.182-8.327v-2.966h4.703v2.966c0,2.815,1.049,5.602,4.344,7.188v-11.263h4.492v5.932h1.408v-6.471
				h4.584v17.104h-4.584v-6.8h-1.408v5.931h-4.492v-3.295L276.506,196.085z M289.086,203.153c0,3.325-3.895,5.392-9.855,5.392
				c-5.93,0-9.824-2.066-9.824-5.392c0-3.354,3.895-5.421,9.824-5.421C285.191,197.732,289.086,199.799,289.086,203.153z
				 M284.233,203.153c0-1.258-1.708-1.797-5.003-1.797c-3.264,0-4.972,0.539-4.972,1.797c0,1.229,1.708,1.768,4.972,1.768
				C282.525,204.921,284.233,204.382,284.233,203.153z"/>
			<path d="M317.902,201.506v3.864h-25.49v-3.864h4.883v-8.626h4.763v8.626h2.157v-8.626h4.762v8.626H317.902z M310.145,197.852
				c0.84-4.822,0.93-8.537,0.959-11.532h-16.295v-3.804h21.147v2.546c0,3.325,0,7.339-0.958,13.27L310.145,197.852z"/>
			<path d="M339.711,197.013v2.097h2.695v9.376h-4.852v-5.631h-14.768v-3.745h2.785v-2.097h-5.601v-3.773h25.431v3.773H339.711z
				 M322.367,186.47c0-3.445,4.135-5.572,10.334-5.572c6.201,0,10.335,2.127,10.335,5.572c0,3.475-4.134,5.601-10.335,5.601
				C326.502,192.07,322.367,189.944,322.367,186.47z M327.371,186.47c0,1.348,1.855,1.917,5.33,1.917s5.332-0.569,5.332-1.917
				c0-1.318-1.857-1.917-5.332-1.917S327.371,185.151,327.371,186.47z M334.889,197.013h-4.493v2.097h4.493V197.013z"/>
			<path d="M362.807,197.402c-3.025-0.929-5.031-2.756-6.29-5.032c-1.228,2.486-3.325,4.493-6.56,5.481l-2.486-3.744
				c4.793-1.468,6.41-4.912,6.529-8.117h-5.211v-3.774h15.246v3.774h-5.092c0.119,2.995,1.707,6.23,6.32,7.668L362.807,197.402z
				 M371.732,204.262v3.804h-19.77v-9.285h4.854v5.481H371.732z M371.074,200.518h-4.854v-20.129h4.854V200.518z"/>
			<path d="M400.551,195.186v3.685H375.09v-3.685H400.551z M399.322,185.78h-23.094v-3.595h9.165v-2.007h4.853v2.007h9.076V185.78z
				 M397.584,204.172c0,2.876-3.594,4.403-9.854,4.403c-6.23,0-9.825-1.527-9.825-4.403c0-2.905,3.595-4.434,9.825-4.434
				C393.99,199.738,397.584,201.267,397.584,204.172z M387.82,186.29c6.17,0,9.584,1.377,9.584,4.043
				c0,2.637-3.414,4.014-9.584,4.014c-6.171,0-9.586-1.377-9.586-4.014C378.234,187.667,381.649,186.29,387.82,186.29z
				 M392.643,204.172c0-0.778-1.318-0.988-4.912-0.988c-3.564,0-4.883,0.21-4.883,0.988c0,0.749,1.318,0.959,4.883,0.959
				C391.324,205.131,392.643,204.921,392.643,204.172z M387.82,189.524c-3.176,0-4.404,0.15-4.404,0.809
				c0,0.63,1.229,0.809,4.404,0.809c3.174,0,4.402-0.179,4.402-0.809C392.223,189.675,390.994,189.524,387.82,189.524z"/>
			<path d="M427.271,204.262v3.804h-21.388v-8.446h3.744v-3.475c-2.276,0.119-4.493,0.149-6.47,0.149l-0.569-3.774
				c5.093-0.029,11.862-0.09,17.702-0.868l0.33,3.415c-2.037,0.359-4.135,0.599-6.201,0.778v5.182h-3.744v3.235H427.271z
				 M404.506,186.29c0-2.966,2.936-5.063,7.039-5.063c4.133,0,7.068,2.097,7.068,5.063c0,3.024-2.936,5.092-7.068,5.092
				C407.441,191.382,404.506,189.314,404.506,186.29z M409.089,186.29c0,1.107,1.019,1.587,2.456,1.587
				c1.498,0,2.486-0.479,2.486-1.587c0-1.079-0.988-1.559-2.486-1.559C410.107,184.731,409.089,185.211,409.089,186.29z
				 M421.818,196.533v-16.175h4.854v21.268h-4.854v-1.827h-5.031v-3.266H421.818z"/>
		</g>
		<g>
			<path fill="#989797" d="M74.242,220.28c0-3.269,2.117-5.185,4.756-5.185c1.433,0,2.424,0.616,3.066,1.272l-1.059,1.26
				c-0.481-0.469-1.044-0.831-1.941-0.831c-1.648,0-2.8,1.286-2.8,3.416c0,2.156,0.991,3.456,2.934,3.456
				c0.481,0,0.964-0.134,1.245-0.375v-1.956h-1.754v-1.62h3.522v4.474c-0.669,0.656-1.835,1.192-3.214,1.192
				C76.291,225.384,74.242,223.588,74.242,220.28z"/>
			<path fill="#989797" d="M84.422,223.16c0-1.607,1.299-2.451,4.313-2.773c-0.027-0.736-0.348-1.299-1.272-1.299
				c-0.696,0-1.366,0.308-2.063,0.71l-0.709-1.3c0.883-0.549,1.955-0.991,3.135-0.991c1.901,0,2.879,1.139,2.879,3.309v4.381h-1.607
				l-0.146-0.804h-0.041c-0.656,0.563-1.406,0.991-2.264,0.991C85.305,225.384,84.422,224.433,84.422,223.16z M88.734,223.106
				v-1.514c-1.822,0.241-2.438,0.736-2.438,1.406c0,0.589,0.414,0.844,0.99,0.844C87.85,223.843,88.266,223.575,88.734,223.106z"/>
			<path fill="#989797" d="M93.328,217.694h1.607l0.133,0.991h0.055c0.656-0.643,1.42-1.179,2.438-1.179
				c1.621,0,2.316,1.126,2.316,3.015v4.675h-1.969v-4.434c0-1.152-0.321-1.567-1.058-1.567c-0.616,0-1.005,0.295-1.567,0.844v5.157
				h-1.955V217.694z"/>
			<path fill="#989797" d="M102.033,226.522c0-0.63,0.389-1.166,1.072-1.555v-0.066c-0.389-0.255-0.684-0.644-0.684-1.26
				c0-0.563,0.389-1.085,0.83-1.406v-0.054c-0.509-0.375-0.991-1.085-0.991-1.955c0-1.769,1.434-2.72,3.027-2.72
				c0.415,0,0.817,0.081,1.126,0.188h2.705v1.447h-1.286c0.2,0.254,0.349,0.67,0.349,1.139c0,1.688-1.286,2.545-2.894,2.545
				c-0.294,0-0.644-0.067-0.964-0.175c-0.215,0.175-0.322,0.349-0.322,0.644c0,0.401,0.295,0.616,1.18,0.616h1.271
				c1.809,0,2.787,0.563,2.787,1.875c0,1.514-1.568,2.666-4.072,2.666C103.399,228.451,102.033,227.849,102.033,226.522z
				 M107.364,226.12c0-0.536-0.442-0.67-1.245-0.67h-0.911c-0.456,0-0.777-0.04-1.046-0.107c-0.334,0.269-0.494,0.563-0.494,0.871
				c0,0.63,0.695,0.991,1.795,0.991C106.588,227.205,107.364,226.71,107.364,226.12z M106.453,220.227
				c0-0.885-0.495-1.38-1.165-1.38s-1.179,0.495-1.179,1.38c0,0.884,0.522,1.38,1.179,1.38S106.453,221.11,106.453,220.227z"/>
			<path fill="#989797" d="M110.337,217.694h1.97l0.816,3.711c0.147,0.723,0.241,1.446,0.375,2.183h0.053
				c0.148-0.736,0.282-1.473,0.47-2.183l0.897-3.711h1.755l0.938,3.711c0.175,0.723,0.308,1.446,0.469,2.183h0.067
				c0.133-0.736,0.228-1.46,0.375-2.183l0.816-3.711h1.822l-1.849,7.502h-2.317l-0.791-3.269c-0.16-0.71-0.281-1.394-0.428-2.184
				h-0.066c-0.148,0.79-0.256,1.487-0.416,2.184l-0.764,3.269h-2.25L110.337,217.694z"/>
			<path fill="#989797" d="M122.632,221.459c0-2.505,1.728-3.952,3.603-3.952c1.877,0,3.604,1.447,3.604,3.952
				c0,2.478-1.727,3.925-3.604,3.925C124.359,225.384,122.632,223.937,122.632,221.459z M127.829,221.459
				c0-1.42-0.575-2.345-1.595-2.345c-1.018,0-1.594,0.925-1.594,2.345c0,1.406,0.576,2.317,1.594,2.317
				C127.254,223.776,127.829,222.865,127.829,221.459z"/>
			<path fill="#989797" d="M132.102,217.694h1.607l0.133,0.991h0.055c0.656-0.643,1.42-1.179,2.438-1.179
				c1.621,0,2.316,1.126,2.316,3.015v4.675h-1.969v-4.434c0-1.152-0.32-1.567-1.058-1.567c-0.616,0-1.005,0.295-1.567,0.844v5.157
				h-1.955V217.694z"/>
			<path fill="#989797" d="M145.119,215.283h1.982v9.913h-1.982V215.283z"/>
			<path fill="#989797" d="M149.994,217.694h1.607l0.134,0.991h0.054c0.656-0.643,1.42-1.179,2.438-1.179
				c1.621,0,2.317,1.126,2.317,3.015v4.675h-1.969v-4.434c0-1.152-0.321-1.567-1.058-1.567c-0.617,0-1.006,0.295-1.568,0.844v5.157
				h-1.955V217.694z"/>
			<path fill="#989797" d="M158.485,224.325l0.897-1.232c0.67,0.522,1.313,0.817,2.01,0.817c0.75,0,1.084-0.322,1.084-0.79
				c0-0.563-0.776-0.817-1.566-1.126c-0.951-0.361-2.049-0.938-2.049-2.183c0-1.354,1.098-2.305,2.785-2.305
				c1.098,0,1.93,0.456,2.559,0.925l-0.885,1.192c-0.535-0.375-1.058-0.644-1.62-0.644c-0.67,0-0.991,0.295-0.991,0.724
				c0,0.549,0.736,0.75,1.527,1.045c0.99,0.375,2.09,0.87,2.09,2.264c0,1.313-1.031,2.371-2.988,2.371
				C160.334,225.384,159.223,224.941,158.485,224.325z"/>
			<path fill="#989797" d="M166.414,222.57v-3.321h-1.058v-1.46l1.151-0.095l0.229-2.009h1.647v2.009h1.849v1.555h-1.849v3.321
				c0,0.857,0.349,1.259,1.019,1.259c0.24,0,0.535-0.08,0.736-0.16l0.321,1.433c-0.401,0.135-0.925,0.282-1.581,0.282
				C167.098,225.384,166.414,224.258,166.414,222.57z"/>
			<path fill="#989797" d="M172.188,215.417c0-0.643,0.495-1.071,1.178-1.071c0.67,0,1.166,0.429,1.166,1.071
				c0,0.617-0.496,1.072-1.166,1.072C172.683,216.489,172.188,216.034,172.188,215.417z M172.375,217.694h1.955v7.502h-1.955
				V217.694z"/>
			<path fill="#989797" d="M177.344,222.57v-3.321h-1.059v-1.46l1.152-0.095l0.227-2.009h1.648v2.009h1.848v1.555h-1.848v3.321
				c0,0.857,0.348,1.259,1.018,1.259c0.242,0,0.535-0.08,0.736-0.16l0.322,1.433c-0.402,0.135-0.924,0.282-1.58,0.282
				C178.026,225.384,177.344,224.258,177.344,222.57z"/>
			<path fill="#989797" d="M183.223,222.383v-4.688h1.969v4.434c0,1.166,0.322,1.567,1.045,1.567c0.617,0,1.019-0.268,1.527-0.938
				v-5.063h1.969v7.502h-1.607l-0.146-1.072h-0.055c-0.643,0.764-1.365,1.26-2.396,1.26
				C183.92,225.384,183.223,224.258,183.223,222.383z"/>
			<path fill="#989797" d="M192.732,222.57v-3.321h-1.059v-1.46l1.152-0.095l0.228-2.009h1.647v2.009h1.849v1.555h-1.849v3.321
				c0,0.857,0.348,1.259,1.018,1.259c0.242,0,0.536-0.08,0.736-0.16l0.322,1.433c-0.402,0.135-0.924,0.282-1.58,0.282
				C193.416,225.384,192.732,224.258,192.732,222.57z"/>
			<path fill="#989797" d="M197.969,221.459c0-2.438,1.701-3.952,3.496-3.952c2.063,0,3.135,1.514,3.135,3.59
				c0,0.362-0.041,0.724-0.094,0.897h-4.621c0.16,1.232,0.964,1.876,2.076,1.876c0.615,0,1.151-0.188,1.688-0.522l0.67,1.205
				c-0.736,0.51-1.688,0.831-2.625,0.831C199.604,225.384,197.969,223.924,197.969,221.459z M202.912,220.695
				c0-1.018-0.456-1.661-1.42-1.661c-0.791,0-1.487,0.563-1.635,1.661H202.912z"/>
			<path fill="#989797" d="M214.496,216.034c-0.254-0.095-0.549-0.161-0.789-0.161c-0.59,0-0.912,0.349-0.912,1.179v0.643h1.407
				v1.555h-1.407v5.947h-1.969v-5.947h-1.004v-1.46l1.004-0.081v-0.616c0-1.567,0.724-2.772,2.612-2.772
				c0.576,0,1.085,0.134,1.42,0.268L214.496,216.034z"/>
			<path fill="#989797" d="M215.461,221.459c0-2.505,1.727-3.952,3.603-3.952s3.604,1.447,3.604,3.952
				c0,2.478-1.728,3.925-3.604,3.925S215.461,223.937,215.461,221.459z M220.658,221.459c0-1.42-0.576-2.345-1.595-2.345
				s-1.594,0.925-1.594,2.345c0,1.406,0.575,2.317,1.594,2.317S220.658,222.865,220.658,221.459z"/>
			<path fill="#989797" d="M224.93,217.694h1.607l0.134,1.326h0.054c0.549-0.978,1.353-1.514,2.13-1.514
				c0.415,0,0.656,0.067,0.884,0.161l-0.348,1.701c-0.256-0.08-0.469-0.12-0.777-0.12c-0.59,0-1.299,0.388-1.729,1.473v4.475h-1.955
				V217.694z"/>
			<path fill="#989797" d="M237.171,216.931h-2.786v-1.647h7.582v1.647h-2.813v8.266h-1.983V216.931z"/>
			<path fill="#989797" d="M242.648,223.16c0-1.607,1.299-2.451,4.313-2.773c-0.026-0.736-0.349-1.299-1.272-1.299
				c-0.697,0-1.367,0.308-2.063,0.71l-0.711-1.3c0.885-0.549,1.956-0.991,3.135-0.991c1.902,0,2.88,1.139,2.88,3.309v4.381h-1.606
				l-0.148-0.804h-0.039c-0.657,0.563-1.408,0.991-2.265,0.991C243.533,225.384,242.648,224.433,242.648,223.16z M246.962,223.106
				v-1.514c-1.821,0.241-2.438,0.736-2.438,1.406c0,0.589,0.416,0.844,0.992,0.844C246.078,223.843,246.492,223.575,246.962,223.106
				z"/>
			<path fill="#989797" d="M251.555,223.093v-8.586h1.956v8.68c0,0.442,0.214,0.59,0.401,0.59c0.081,0,0.135,0,0.269-0.027
				l0.241,1.46c-0.229,0.094-0.563,0.175-1.018,0.175C252.037,225.384,251.555,224.486,251.555,223.093z"/>
			<path fill="#989797" d="M255.922,221.459c0-2.438,1.701-3.952,3.496-3.952c2.063,0,3.134,1.514,3.134,3.59
				c0,0.362-0.04,0.724-0.094,0.897h-4.622c0.162,1.232,0.965,1.876,2.077,1.876c0.616,0,1.151-0.188,1.688-0.522l0.669,1.205
				c-0.737,0.51-1.688,0.831-2.626,0.831C257.556,225.384,255.922,223.924,255.922,221.459z M260.863,220.695
				c0-1.018-0.455-1.661-1.42-1.661c-0.789,0-1.486,0.563-1.633,1.661H260.863z"/>
			<path fill="#989797" d="M264.787,217.694h1.607l0.135,0.991h0.053c0.656-0.643,1.42-1.179,2.438-1.179
				c1.621,0,2.318,1.126,2.318,3.015v4.675h-1.969v-4.434c0-1.152-0.322-1.567-1.059-1.567c-0.617,0-1.005,0.295-1.567,0.844v5.157
				h-1.956V217.694z"/>
			<path fill="#989797" d="M274.27,222.57v-3.321h-1.058v-1.46l1.151-0.095l0.229-2.009h1.647v2.009h1.849v1.555h-1.849v3.321
				c0,0.857,0.349,1.259,1.019,1.259c0.24,0,0.535-0.08,0.736-0.16l0.321,1.433c-0.401,0.135-0.925,0.282-1.581,0.282
				C274.953,225.384,274.27,224.258,274.27,222.57z"/>
			<path fill="#989797" d="M291.977,225.384c-0.777-0.175-1.634-0.522-2.465-1.045c-0.816,0.643-1.821,1.045-3.04,1.045
				c-2.076,0-3.241-1.272-3.241-2.813c0-1.379,0.87-2.184,1.861-2.813c-0.402-0.75-0.629-1.487-0.629-2.144
				c0-1.38,1.004-2.519,2.598-2.519c1.406,0,2.305,0.857,2.305,2.157c0,1.313-1.072,2.13-2.131,2.866
				c0.59,0.736,1.354,1.46,2.145,2.063c0.521-0.696,0.951-1.54,1.219-2.518h1.781c-0.361,1.219-0.91,2.371-1.674,3.402
				c0.643,0.361,1.244,0.616,1.754,0.71L291.977,225.384z M286.713,223.87c0.482,0,0.978-0.188,1.446-0.496
				c-0.844-0.696-1.606-1.487-2.237-2.317c-0.482,0.415-0.816,0.857-0.816,1.394C285.105,223.294,285.762,223.87,286.713,223.87z
				 M286.459,218.94c0.775-0.469,1.379-0.951,1.379-1.675c0-0.495-0.229-0.856-0.75-0.856c-0.576,0-0.991,0.469-0.991,1.205
				C286.097,218.029,286.23,218.472,286.459,218.94z"/>
			<path fill="#989797" d="M294.561,215.283h1.982v8.252h4.02v1.661h-6.002V215.283z"/>
			<path fill="#989797" d="M302.557,215.417c0-0.643,0.496-1.071,1.178-1.071c0.67,0,1.166,0.429,1.166,1.071
				c0,0.617-0.496,1.072-1.166,1.072C303.053,216.489,302.557,216.034,302.557,215.417z M302.744,217.694h1.955v7.502h-1.955
				V217.694z"/>
			<path fill="#989797" d="M311.437,216.034c-0.255-0.095-0.55-0.161-0.79-0.161c-0.59,0-0.911,0.349-0.911,1.179v0.643h1.407v1.555
				h-1.407v5.947h-1.97v-5.947h-1.004v-1.46l1.004-0.081v-0.616c0-1.567,0.725-2.772,2.613-2.772c0.576,0,1.084,0.134,1.42,0.268
				L311.437,216.034z"/>
			<path fill="#989797" d="M312.4,221.459c0-2.438,1.701-3.952,3.496-3.952c2.063,0,3.135,1.514,3.135,3.59
				c0,0.362-0.041,0.724-0.094,0.897h-4.621c0.16,1.232,0.965,1.876,2.076,1.876c0.615,0,1.152-0.188,1.688-0.522l0.67,1.205
				c-0.736,0.51-1.688,0.831-2.625,0.831C314.035,225.384,312.4,223.924,312.4,221.459z M317.344,220.695
				c0-1.018-0.456-1.661-1.42-1.661c-0.791,0-1.486,0.563-1.635,1.661H317.344z"/>
			<path fill="#989797" d="M321.268,223.093v-8.586h1.955v8.68c0,0.442,0.215,0.59,0.402,0.59c0.08,0,0.133,0,0.268-0.027l0.24,1.46
				c-0.227,0.094-0.563,0.175-1.018,0.175C321.749,225.384,321.268,224.486,321.268,223.093z"/>
			<path fill="#989797" d="M325.633,221.459c0-2.505,1.729-3.952,3.604-3.952s3.604,1.447,3.604,3.952
				c0,2.478-1.729,3.925-3.604,3.925S325.633,223.937,325.633,221.459z M330.83,221.459c0-1.42-0.576-2.345-1.594-2.345
				s-1.594,0.925-1.594,2.345c0,1.406,0.576,2.317,1.594,2.317S330.83,222.865,330.83,221.459z"/>
			<path fill="#989797" d="M335.102,217.694h1.607l0.135,0.991h0.053c0.656-0.643,1.42-1.179,2.438-1.179
				c1.621,0,2.318,1.126,2.318,3.015v4.675h-1.969v-4.434c0-1.152-0.322-1.567-1.059-1.567c-0.616,0-1.005,0.295-1.566,0.844v5.157
				h-1.957V217.694z"/>
			<path fill="#989797" d="M343.807,226.522c0-0.63,0.389-1.166,1.072-1.555v-0.066c-0.389-0.255-0.684-0.644-0.684-1.26
				c0-0.563,0.389-1.085,0.831-1.406v-0.054c-0.509-0.375-0.991-1.085-0.991-1.955c0-1.769,1.434-2.72,3.027-2.72
				c0.415,0,0.816,0.081,1.125,0.188h2.705v1.447h-1.285c0.201,0.254,0.348,0.67,0.348,1.139c0,1.688-1.285,2.545-2.893,2.545
				c-0.295,0-0.643-0.067-0.965-0.175c-0.214,0.175-0.321,0.349-0.321,0.644c0,0.401,0.295,0.616,1.179,0.616h1.273
				c1.808,0,2.785,0.563,2.785,1.875c0,1.514-1.566,2.666-4.072,2.666C345.174,228.451,343.807,227.849,343.807,226.522z
				 M349.139,226.12c0-0.536-0.441-0.67-1.246-0.67h-0.91c-0.455,0-0.777-0.04-1.045-0.107c-0.336,0.269-0.496,0.563-0.496,0.871
				c0,0.63,0.697,0.991,1.795,0.991C348.361,227.205,349.139,226.71,349.139,226.12z M348.229,220.227
				c0-0.885-0.496-1.38-1.166-1.38s-1.179,0.495-1.179,1.38c0,0.884,0.522,1.38,1.179,1.38S348.229,221.11,348.229,220.227z"/>
			<path fill="#989797" d="M356.732,215.283h6.08v1.647h-4.098v2.291h3.482v1.661h-3.482v2.652h4.246v1.661h-6.229V215.283z"/>
			<path fill="#989797" d="M364.835,221.459c0-2.451,1.526-3.952,3.147-3.952c0.844,0,1.367,0.321,1.902,0.817l-0.08-1.179v-2.639
				h1.969v10.689h-1.594l-0.16-0.777h-0.041c-0.549,0.536-1.299,0.965-2.076,0.965C366.041,225.384,364.835,223.91,364.835,221.459z
				 M369.805,222.985v-3.295c-0.455-0.415-0.924-0.563-1.394-0.563c-0.844,0-1.554,0.804-1.554,2.304
				c0,1.554,0.563,2.331,1.554,2.331C368.934,223.763,369.375,223.549,369.805,222.985z"/>
			<path fill="#989797" d="M374.424,222.383v-4.688h1.969v4.434c0,1.166,0.322,1.567,1.045,1.567c0.617,0,1.02-0.268,1.527-0.938
				v-5.063h1.969v7.502h-1.606l-0.147-1.072h-0.054c-0.644,0.764-1.366,1.26-2.397,1.26
				C375.121,225.384,374.424,224.258,374.424,222.383z"/>
			<path fill="#989797" d="M383.184,221.459c0-2.505,1.795-3.952,3.83-3.952c0.926,0,1.635,0.362,2.184,0.831l-0.938,1.272
				c-0.375-0.321-0.723-0.496-1.151-0.496c-1.139,0-1.915,0.925-1.915,2.345c0,1.406,0.776,2.317,1.861,2.317
				c0.535,0,1.045-0.255,1.46-0.604l0.776,1.3c-0.709,0.629-1.62,0.911-2.451,0.911
				C384.764,225.384,383.184,223.937,383.184,221.459z"/>
			<path fill="#989797" d="M390.791,223.16c0-1.607,1.299-2.451,4.313-2.773c-0.026-0.736-0.349-1.299-1.272-1.299
				c-0.697,0-1.367,0.308-2.063,0.71l-0.711-1.3c0.885-0.549,1.956-0.991,3.135-0.991c1.902,0,2.881,1.139,2.881,3.309v4.381h-1.607
				l-0.148-0.804h-0.039c-0.657,0.563-1.408,0.991-2.265,0.991C391.676,225.384,390.791,224.433,390.791,223.16z M395.104,223.106
				v-1.514c-1.821,0.241-2.438,0.736-2.438,1.406c0,0.589,0.416,0.844,0.992,0.844C394.221,223.843,394.635,223.575,395.104,223.106
				z"/>
			<path fill="#989797" d="M399.725,222.57v-3.321h-1.059v-1.46l1.152-0.095l0.228-2.009h1.647v2.009h1.849v1.555h-1.849v3.321
				c0,0.857,0.348,1.259,1.018,1.259c0.242,0,0.536-0.08,0.737-0.16l0.321,1.433c-0.402,0.135-0.924,0.282-1.58,0.282
				C400.408,225.384,399.725,224.258,399.725,222.57z"/>
			<path fill="#989797" d="M405.496,215.417c0-0.643,0.496-1.071,1.18-1.071c0.67,0,1.166,0.429,1.166,1.071
				c0,0.617-0.496,1.072-1.166,1.072C405.992,216.489,405.496,216.034,405.496,215.417z M405.684,217.694h1.957v7.502h-1.957
				V217.694z"/>
			<path fill="#989797" d="M409.902,221.459c0-2.505,1.729-3.952,3.604-3.952s3.604,1.447,3.604,3.952
				c0,2.478-1.729,3.925-3.604,3.925S409.902,223.937,409.902,221.459z M415.1,221.459c0-1.42-0.575-2.345-1.594-2.345
				c-1.018,0-1.594,0.925-1.594,2.345c0,1.406,0.576,2.317,1.594,2.317C414.524,223.776,415.1,222.865,415.1,221.459z"/>
			<path fill="#989797" d="M419.372,217.694h1.608l0.133,0.991h0.055c0.656-0.643,1.419-1.179,2.438-1.179
				c1.621,0,2.316,1.126,2.316,3.015v4.675h-1.969v-4.434c0-1.152-0.321-1.567-1.059-1.567c-0.615,0-1.004,0.295-1.566,0.844v5.157
				h-1.956V217.694z"/>
		</g>
	</g>
	<circle id="XMLID_17_" fill="#27498C" cx="95.206" cy="129.915" r="8.366"/>
	<path fill="#27498C" d="M116.113,160.304l-16.603-16.603c-1.188-1.189-2.747-1.782-4.306-1.781
		c-1.557-0.001-3.115,0.592-4.305,1.781l-16.603,16.603c-2.376,2.375-2.376,6.228,0.001,8.603c2.375,2.376,6.227,2.376,8.602,0
		l10.2-10.2c0.334-0.299,2.298-1.893,4.241,0.051l0.008-0.012l10.161,10.161c2.375,2.376,6.228,2.376,8.603,0
		C118.489,166.531,118.489,162.679,116.113,160.304z"/>
	<circle id="XMLID_8_" fill="#E09B1F" cx="128.425" cy="129.915" r="8.366"/>
	<path fill="#E09B1F" d="M149.332,160.304l-16.603-16.603c-1.188-1.189-2.747-1.782-4.306-1.781
		c-1.557-0.001-3.115,0.592-4.305,1.781l-16.603,16.603c-2.376,2.375-2.376,6.228,0.001,8.603c2.375,2.376,6.227,2.376,8.602,0
		l10.2-10.2c0.334-0.299,2.298-1.893,4.241,0.051l0.008-0.012l10.161,10.161c2.375,2.376,6.228,2.376,8.603,0
		C151.708,166.531,151.708,162.679,149.332,160.304z"/>
	<circle id="XMLID_1_" fill="#3CA27A" cx="161.614" cy="129.915" r="8.366"/>
	<path fill="#3CA27A" d="M182.521,160.304l-16.603-16.603c-1.188-1.189-2.747-1.782-4.306-1.781
		c-1.557-0.001-3.115,0.592-4.305,1.781l-16.603,16.603c-2.376,2.375-2.376,6.228,0.001,8.603c2.375,2.376,6.227,2.376,8.602,0
		l10.2-10.2c0.334-0.299,2.298-1.893,4.241,0.051l0.008-0.012l10.161,10.161c2.375,2.376,6.228,2.376,8.603,0
		C184.897,166.531,184.897,162.679,182.521,160.304z"/>
</g>
</svg>
